SplineFontDB: 3.2
FontName: CommitMonoFont-Regular
FullName: CommitMonoFont Regular
FamilyName: CommitMonoFont
Weight: Regular
Copyright: Copyright 2023 Commit Mono authors (https://github.com/eigilnikolajsen/commit-mono)
Version: Version 1.143
ItalicAngle: 0
UnderlinePosition: -125
UnderlineWidth: 50
Ascent: 800
Descent: 200
InvalidEm: 0
sfntRevision: 0x00010000
LayerCount: 2
Layer: 0 0 "+gMxmbwAA" 1
Layer: 1 0 "+Uk1mbwAA" 0
XUID: [1021 689 -331905675 9237]
StyleMap: 0x0000
FSType: 0
OS2Version: 4
OS2_WeightWidthSlopeOnly: 0
OS2_UseTypoMetrics: 0
CreationTime: 1737270352
ModificationTime: 1737301124
PfmFamily: 81
TTFWeight: 400
TTFWidth: 5
LineGap: 0
VLineGap: 0
Panose: 0 0 0 0 0 0 0 0 0 0
OS2TypoAscent: 900
OS2TypoAOffset: 0
OS2TypoDescent: -200
OS2TypoDOffset: 0
OS2TypoLinegap: 0
OS2WinAscent: 900
OS2WinAOffset: 0
OS2WinDescent: 200
OS2WinDOffset: 0
HheadAscent: 900
HheadAOffset: 0
HheadDescent: -200
HheadDOffset: 0
OS2SubXSize: 650
OS2SubYSize: 600
OS2SubXOff: 0
OS2SubYOff: -75
OS2SupXSize: 650
OS2SupYSize: 600
OS2SupXOff: 0
OS2SupYOff: 350
OS2StrikeYSize: 50
OS2StrikeYPos: 324
OS2CapHeight: 700
OS2XHeight: 540
OS2Vendor: '    '
OS2CodePages: 4000009b.00000000
OS2UnicodeRanges: 800000a7.100039f3.00040020.00000000
Lookup: 1 0 0 "'cv01' +W1d7JlPYT1MA-01 +Z+VifgAA 0" { "'cv01' +W1d7JlPYT1MA-01 +Z+VifgAA 0+Zv9O44ho"  } ['cv01' ('DFLT' <'dflt' > ) ]
Lookup: 1 0 0 "'cv02' +W1d7JlPYT1MA-02 +Z+VifgAA 1" { "'cv02' +W1d7JlPYT1MA-02 +Z+VifgAA 1+Zv9O44ho"  } ['cv02' ('DFLT' <'dflt' > ) ]
Lookup: 1 0 0 "'cv03' +W1d7JlPYT1MA-03 +Z+VifgAA 2" { "'cv03' +W1d7JlPYT1MA-03 +Z+VifgAA 2+Zv9O44ho"  } ['cv03' ('DFLT' <'dflt' > ) ]
Lookup: 1 0 0 "'cv04' +W1d7JlPYT1MA-04 +Z+VifgAA 3" { "'cv04' +W1d7JlPYT1MA-04 +Z+VifgAA 3+Zv9O44ho"  } ['cv04' ('DFLT' <'dflt' > ) ]
Lookup: 1 0 0 "'cv05' +W1d7JlPYT1MA-05 +Z+VifgAA 4" { "'cv05' +W1d7JlPYT1MA-05 +Z+VifgAA 4+Zv9O44ho"  } ['cv05' ('DFLT' <'dflt' > ) ]

StartChar: .notdef
Encoding: 65536 -1 0
Width: 600
GlyphClass: 1
Flags: W
LayerCount: 2
Fore
SplineSet
222 38 m 1
 222 74 l 1
 296 203 l 1
 348 203 l 1
 348 71 l 1
 383 71 l 1
 383 38 l 1
 348 38 l 1
 348 -7 l 1
 312 -7 l 1
 312 38 l 1
 222 38 l 1
311 170 m 1
 255 71 l 1
 312 71 l 1
 312 170 l 1
 311 170 l 1
300 242 m 0
 253 242 225 282 225 350 c 0
 225 418 253 458 300 458 c 0
 347 458 375 418 375 350 c 0
 375 282 347 242 300 242 c 0
262 327 m 1
 330 402 l 1
 323 417 314 425 300 425 c 0
 275 425 261 398 261 350 c 0
 261 342 261 334 262 327 c 1
300 275 m 0
 325 275 339 302 339 350 c 0
 339 358 339 366 338 373 c 1
 270 298 l 1
 277 283 287 275 300 275 c 0
222 543 m 1
 222 579 l 1
 296 708 l 1
 348 708 l 1
 348 576 l 1
 383 576 l 1
 383 543 l 1
 348 543 l 1
 348 498 l 1
 312 498 l 1
 312 543 l 1
 222 543 l 1
311 675 m 1
 255 576 l 1
 312 576 l 1
 312 675 l 1
 311 675 l 1
67 -45 m 1
 533 -45 l 1
 533 745 l 1
 67 745 l 1
 67 -45 l 1
30 -80 m 1
 30 780 l 1
 570 780 l 1
 570 -80 l 1
 30 -80 l 1
EndSplineSet
Validated: 1
EndChar

StartChar: A
Encoding: 65 65 4
Width: 600
GlyphClass: 1
Flags: W
LayerCount: 2
Fore
SplineSet
113 0 m 1
 28 0 l 1
 241 700 l 1
 359 700 l 1
 572 0 l 1
 485 0 l 1
 425 197 l 1
 173 197 l 1
 113 0 l 1
196 274 m 1
 402 274 l 1
 301 608 l 1
 297 608 l 1
 196 274 l 1
EndSplineSet
Validated: 1
Substitution2: "+U1VOAGb/Y2IA +Z+VifgAA 72+Zv9O44ho" A.rightS
Substitution2: "+U1VOAGb/Y2IA +Z+VifgAA 71+Zv9O44ho" A.rightM
Substitution2: "+U1VOAGb/Y2IA +Z+VifgAA 70+Zv9O44ho" A.rightL
Substitution2: "+U1VOAGb/Y2IA +Z+VifgAA 69+Zv9O44ho" A.leftS
Substitution2: "+U1VOAGb/Y2IA +Z+VifgAA 68+Zv9O44ho" A.leftM
Substitution2: "+U1VOAGb/Y2IA +Z+VifgAA 67+Zv9O44ho" A.leftL
Substitution2: "+U1VOAGb/Y2IA +Z+VifgAA 66+Zv9O44ho" A.rightS
Substitution2: "+U1VOAGb/Y2IA +Z+VifgAA 65+Zv9O44ho" A.rightM
Substitution2: "+U1VOAGb/Y2IA +Z+VifgAA 64+Zv9O44ho" A.rightS
Substitution2: "+U1VOAGb/Y2IA +Z+VifgAA 63+Zv9O44ho" A.rightM
Substitution2: "+U1VOAGb/Y2IA +Z+VifgAA 62+Zv9O44ho" A.rightL
Substitution2: "+U1VOAGb/Y2IA +Z+VifgAA 61+Zv9O44ho" A.leftS
Substitution2: "+U1VOAGb/Y2IA +Z+VifgAA 60+Zv9O44ho" A.leftM
Substitution2: "+U1VOAGb/Y2IA +Z+VifgAA 59+Zv9O44ho" A.leftL
EndChar

StartChar: A.leftL
Encoding: 65537 -1 5
Width: 600
GlyphClass: 1
Flags: W
LayerCount: 2
Fore
SplineSet
71 0 m 1
 -14 0 l 1
 199 700 l 1
 317 700 l 1
 530 0 l 1
 443 0 l 1
 383 197 l 1
 131 197 l 1
 71 0 l 1
154 274 m 1
 360 274 l 1
 259 608 l 1
 255 608 l 1
 154 274 l 1
EndSplineSet
Validated: 1
EndChar

StartChar: A.leftM
Encoding: 65538 -1 6
Width: 600
GlyphClass: 1
Flags: W
LayerCount: 2
Fore
SplineSet
86 0 m 1
 1 0 l 1
 214 700 l 1
 332 700 l 1
 545 0 l 1
 458 0 l 1
 398 197 l 1
 146 197 l 1
 86 0 l 1
169 274 m 1
 375 274 l 1
 274 608 l 1
 270 608 l 1
 169 274 l 1
EndSplineSet
Validated: 1
EndChar

StartChar: A.leftS
Encoding: 65539 -1 7
Width: 600
GlyphClass: 1
Flags: W
LayerCount: 2
Fore
SplineSet
101 0 m 1
 16 0 l 1
 229 700 l 1
 347 700 l 1
 560 0 l 1
 473 0 l 1
 413 197 l 1
 161 197 l 1
 101 0 l 1
184 274 m 1
 390 274 l 1
 289 608 l 1
 285 608 l 1
 184 274 l 1
EndSplineSet
Validated: 1
EndChar

StartChar: A.rightL
Encoding: 65540 -1 8
Width: 600
GlyphClass: 1
Flags: W
LayerCount: 2
Fore
SplineSet
155 0 m 1
 70 0 l 1
 283 700 l 1
 401 700 l 1
 614 0 l 1
 527 0 l 1
 467 197 l 1
 215 197 l 1
 155 0 l 1
238 274 m 1
 444 274 l 1
 343 608 l 1
 339 608 l 1
 238 274 l 1
EndSplineSet
Validated: 1
EndChar

StartChar: A.rightM
Encoding: 65541 -1 9
Width: 600
GlyphClass: 1
Flags: W
LayerCount: 2
Fore
SplineSet
140 0 m 1
 55 0 l 1
 268 700 l 1
 386 700 l 1
 599 0 l 1
 512 0 l 1
 452 197 l 1
 200 197 l 1
 140 0 l 1
223 274 m 1
 429 274 l 1
 328 608 l 1
 324 608 l 1
 223 274 l 1
EndSplineSet
Validated: 1
EndChar

StartChar: A.rightS
Encoding: 65542 -1 10
Width: 600
GlyphClass: 1
Flags: W
LayerCount: 2
Fore
SplineSet
125 0 m 1
 40 0 l 1
 253 700 l 1
 371 700 l 1
 584 0 l 1
 497 0 l 1
 437 197 l 1
 185 197 l 1
 125 0 l 1
208 274 m 1
 414 274 l 1
 313 608 l 1
 309 608 l 1
 208 274 l 1
EndSplineSet
Validated: 1
EndChar

StartChar: AE
Encoding: 198 198 11
Width: 600
GlyphClass: 1
Flags: W
LayerCount: 2
Fore
SplineSet
0 0 m 1
 217 700 l 1
 574 700 l 1
 574 622 l 1
 369 622 l 1
 369 402 l 1
 540 402 l 1
 540 324 l 1
 369 324 l 1
 369 78 l 1
 574 78 l 1
 574 0 l 1
 284 0 l 1
 284 211 l 1
 150 211 l 1
 84 0 l 1
 0 0 l 1
173 288 m 1
 284 288 l 1
 284 623 l 1
 279 623 l 1
 173 288 l 1
EndSplineSet
Validated: 1
EndChar

StartChar: AEacute
Encoding: 508 508 12
Width: 600
GlyphClass: 1
Flags: W
LayerCount: 2
Fore
SplineSet
0 0 m 1
 217 700 l 1
 574 700 l 1
 574 622 l 1
 369 622 l 1
 369 402 l 1
 540 402 l 1
 540 324 l 1
 369 324 l 1
 369 78 l 1
 574 78 l 1
 574 0 l 1
 284 0 l 1
 284 211 l 1
 150 211 l 1
 84 0 l 1
 0 0 l 1
173 288 m 1
 284 288 l 1
 284 623 l 1
 279 623 l 1
 173 288 l 1
527 977 m 1
 411 792 l 1
 338 792 l 1
 416 977 l 1
 527 977 l 1
EndSplineSet
Validated: 1
EndChar

StartChar: Aacute
Encoding: 193 193 13
Width: 600
GlyphClass: 1
Flags: W
LayerCount: 2
Fore
SplineSet
113 0 m 1
 28 0 l 1
 241 700 l 1
 359 700 l 1
 572 0 l 1
 485 0 l 1
 425 197 l 1
 173 197 l 1
 113 0 l 1
196 274 m 1
 402 274 l 1
 301 608 l 1
 297 608 l 1
 196 274 l 1
434 977 m 1
 318 792 l 1
 245 792 l 1
 323 977 l 1
 434 977 l 1
EndSplineSet
Validated: 1
EndChar

StartChar: Abreve
Encoding: 258 258 14
Width: 600
GlyphClass: 1
Flags: W
LayerCount: 2
Fore
SplineSet
113 0 m 1
 28 0 l 1
 241 700 l 1
 359 700 l 1
 572 0 l 1
 485 0 l 1
 425 197 l 1
 173 197 l 1
 113 0 l 1
196 274 m 1
 402 274 l 1
 301 608 l 1
 297 608 l 1
 196 274 l 1
235 923 m 1
 239 879 265 850 300 850 c 0
 335 850 361 879 365 923 c 1
 434 923 l 1
 434 843 378 786 300 786 c 0
 222 786 166 843 166 923 c 1
 235 923 l 1
EndSplineSet
Validated: 1
EndChar

StartChar: Acircumflex
Encoding: 194 194 15
Width: 600
GlyphClass: 1
Flags: W
LayerCount: 2
Fore
SplineSet
113 0 m 1
 28 0 l 1
 241 700 l 1
 359 700 l 1
 572 0 l 1
 485 0 l 1
 425 197 l 1
 173 197 l 1
 113 0 l 1
196 274 m 1
 402 274 l 1
 301 608 l 1
 297 608 l 1
 196 274 l 1
145 785 m 1
 256 961 l 1
 344 961 l 1
 455 785 l 1
 382 785 l 1
 300 889 l 1
 218 785 l 1
 145 785 l 1
EndSplineSet
Validated: 1
EndChar

StartChar: Adieresis
Encoding: 196 196 16
Width: 600
GlyphClass: 1
Flags: W
LayerCount: 2
Fore
SplineSet
113 0 m 1
 28 0 l 1
 241 700 l 1
 359 700 l 1
 572 0 l 1
 485 0 l 1
 425 197 l 1
 173 197 l 1
 113 0 l 1
196 274 m 1
 402 274 l 1
 301 608 l 1
 297 608 l 1
 196 274 l 1
128 875 m 0
 128 913 158 943 196 943 c 0
 235 943 264 913 264 875 c 0
 264 837 235 806 196 806 c 0
 158 806 128 837 128 875 c 0
336 875 m 0
 336 913 366 943 404 943 c 0
 443 943 472 913 472 875 c 0
 472 837 443 806 404 806 c 0
 366 806 336 837 336 875 c 0
EndSplineSet
Validated: 1
Substitution2: "'cv03' +W1d7JlPYT1MA-03 +Z+VifgAA 2+Zv9O44ho" Adieresis.square
EndChar

StartChar: Adieresis.square
Encoding: 65543 -1 17
Width: 600
GlyphClass: 1
Flags: W
LayerCount: 2
Fore
SplineSet
113 0 m 1
 28 0 l 1
 241 700 l 1
 359 700 l 1
 572 0 l 1
 485 0 l 1
 425 197 l 1
 173 197 l 1
 113 0 l 1
196 274 m 1
 402 274 l 1
 301 608 l 1
 297 608 l 1
 196 274 l 1
135 810 m 1
 135 931 l 1
 257 931 l 1
 257 810 l 1
 135 810 l 1
343 810 m 1
 343 931 l 1
 465 931 l 1
 465 810 l 1
 343 810 l 1
EndSplineSet
Validated: 1
EndChar

StartChar: Agrave
Encoding: 192 192 18
Width: 600
GlyphClass: 1
Flags: W
LayerCount: 2
Fore
SplineSet
113 0 m 1
 28 0 l 1
 241 700 l 1
 359 700 l 1
 572 0 l 1
 485 0 l 1
 425 197 l 1
 173 197 l 1
 113 0 l 1
196 274 m 1
 402 274 l 1
 301 608 l 1
 297 608 l 1
 196 274 l 1
355 792 m 1
 282 792 l 1
 166 977 l 1
 277 977 l 1
 355 792 l 1
EndSplineSet
Validated: 1
EndChar

StartChar: Alpha
Encoding: 913 913 19
Width: 600
GlyphClass: 1
Flags: W
LayerCount: 2
Fore
SplineSet
113 0 m 1
 28 0 l 1
 241 700 l 1
 359 700 l 1
 572 0 l 1
 485 0 l 1
 425 197 l 1
 173 197 l 1
 113 0 l 1
196 274 m 1
 402 274 l 1
 301 608 l 1
 297 608 l 1
 196 274 l 1
EndSplineSet
Validated: 1
EndChar

StartChar: Alphatonos
Encoding: 902 902 20
Width: 600
GlyphClass: 1
Flags: W
LayerCount: 2
Fore
SplineSet
113 0 m 1
 28 0 l 1
 241 700 l 1
 359 700 l 1
 572 0 l 1
 485 0 l 1
 425 197 l 1
 173 197 l 1
 113 0 l 1
196 274 m 1
 402 274 l 1
 301 608 l 1
 297 608 l 1
 196 274 l 1
201 774 m 1
 135 572 l 1
 68 572 l 1
 102 774 l 1
 201 774 l 1
EndSplineSet
Validated: 1
EndChar

StartChar: Amacron
Encoding: 256 256 21
Width: 600
GlyphClass: 1
Flags: W
LayerCount: 2
Fore
SplineSet
113 0 m 1
 28 0 l 1
 241 700 l 1
 359 700 l 1
 572 0 l 1
 485 0 l 1
 425 197 l 1
 173 197 l 1
 113 0 l 1
196 274 m 1
 402 274 l 1
 301 608 l 1
 297 608 l 1
 196 274 l 1
146 830 m 1
 146 900 l 1
 454 900 l 1
 454 830 l 1
 146 830 l 1
EndSplineSet
Validated: 1
EndChar

StartChar: Aogonek
Encoding: 260 260 22
Width: 600
GlyphClass: 1
Flags: W
LayerCount: 2
Fore
SplineSet
113 0 m 1
 28 0 l 1
 241 700 l 1
 359 700 l 1
 572 0 l 1
 528 0 l 1
 468 -23 438 -52 438 -87 c 0
 438 -120 464 -142 499 -142 c 0
 506 -142 516 -141 525 -139 c 1
 525 -200 l 1
 514 -203 500 -205 484 -205 c 0
 413 -205 365 -162 365 -101 c 0
 365 -47 402 -2 476 28 c 1
 425 197 l 1
 173 197 l 1
 113 0 l 1
196 274 m 1
 402 274 l 1
 301 608 l 1
 297 608 l 1
 196 274 l 1
EndSplineSet
Validated: 1
EndChar

StartChar: Aring
Encoding: 197 197 23
Width: 600
GlyphClass: 1
Flags: W
LayerCount: 2
Fore
SplineSet
113 0 m 1
 28 0 l 1
 241 700 l 1
 359 700 l 1
 572 0 l 1
 485 0 l 1
 425 197 l 1
 173 197 l 1
 113 0 l 1
196 274 m 1
 402 274 l 1
 301 608 l 1
 297 608 l 1
 196 274 l 1
184 889 m 0
 184 953 234 1003 300 1003 c 0
 366 1003 416 953 416 889 c 0
 416 824 365 773 300 773 c 0
 235 773 184 824 184 889 c 0
300 830 m 0
 332 830 356 854 356 888 c 0
 356 922 332 946 300 946 c 0
 268 946 244 922 244 888 c 0
 244 854 268 830 300 830 c 0
EndSplineSet
Validated: 1
EndChar

StartChar: Aringacute
Encoding: 506 506 24
Width: 600
GlyphClass: 1
Flags: W
LayerCount: 2
Fore
SplineSet
113 0 m 1
 28 0 l 1
 231 668 l 1
 202 689 184 723 184 762 c 0
 184 814 217 857 265 871 c 1
 322 1007 l 1
 433 1007 l 1
 345 867 l 1
 388 850 416 810 416 762 c 0
 416 723 398 689 369 668 c 1
 572 0 l 1
 485 0 l 1
 425 197 l 1
 173 197 l 1
 113 0 l 1
196 274 m 1
 402 274 l 1
 301 608 l 1
 297 608 l 1
 196 274 l 1
300 703 m 0
 332 703 356 727 356 761 c 0
 356 795 332 819 300 819 c 0
 268 819 244 795 244 761 c 0
 244 727 268 703 300 703 c 0
EndSplineSet
Validated: 1
EndChar

StartChar: Atilde
Encoding: 195 195 25
Width: 600
GlyphClass: 1
Flags: W
LayerCount: 2
Fore
SplineSet
113 0 m 1
 28 0 l 1
 241 700 l 1
 359 700 l 1
 572 0 l 1
 485 0 l 1
 425 197 l 1
 173 197 l 1
 113 0 l 1
196 274 m 1
 402 274 l 1
 301 608 l 1
 297 608 l 1
 196 274 l 1
124 824 m 1
 124 851 l 2
 124 923 164 968 228 968 c 0
 320 968 330 877 373 877 c 0
 392 877 402 895 403 933 c 2
 404 954 l 1
 476 954 l 1
 476 927 l 2
 476 855 436 810 372 810 c 0
 280 810 270 901 228 901 c 0
 209 901 198 883 197 845 c 2
 196 824 l 1
 124 824 l 1
EndSplineSet
Validated: 1
EndChar

StartChar: B
Encoding: 66 66 26
Width: 600
GlyphClass: 1
Flags: W
LayerCount: 2
Fore
SplineSet
90 0 m 1
 90 700 l 1
 326 700 l 2
 438 700 519 625 519 521 c 0
 519 452 483 396 426 368 c 1
 426 364 l 1
 497 338 541 275 541 193 c 0
 541 81 456 0 339 0 c 2
 90 0 l 1
177 402 m 1
 330 402 l 2
 391 402 433 449 433 514 c 0
 433 579 392 622 330 622 c 2
 177 622 l 1
 177 402 l 1
177 78 m 1
 342 78 l 2
 408 78 453 128 453 201 c 0
 453 274 408 324 342 324 c 2
 177 324 l 1
 177 78 l 1
EndSplineSet
Validated: 1
Substitution2: "+U1VOAGb/Y2IA +Z+VifgAA 72+Zv9O44ho" B.rightS
Substitution2: "+U1VOAGb/Y2IA +Z+VifgAA 71+Zv9O44ho" B.rightM
Substitution2: "+U1VOAGb/Y2IA +Z+VifgAA 70+Zv9O44ho" B.rightL
Substitution2: "+U1VOAGb/Y2IA +Z+VifgAA 69+Zv9O44ho" B.leftS
Substitution2: "+U1VOAGb/Y2IA +Z+VifgAA 68+Zv9O44ho" B.leftM
Substitution2: "+U1VOAGb/Y2IA +Z+VifgAA 67+Zv9O44ho" B.leftL
Substitution2: "+U1VOAGb/Y2IA +Z+VifgAA 66+Zv9O44ho" B.rightS
Substitution2: "+U1VOAGb/Y2IA +Z+VifgAA 65+Zv9O44ho" B.rightM
Substitution2: "+U1VOAGb/Y2IA +Z+VifgAA 64+Zv9O44ho" B.rightS
Substitution2: "+U1VOAGb/Y2IA +Z+VifgAA 63+Zv9O44ho" B.rightM
Substitution2: "+U1VOAGb/Y2IA +Z+VifgAA 62+Zv9O44ho" B.rightL
Substitution2: "+U1VOAGb/Y2IA +Z+VifgAA 61+Zv9O44ho" B.leftS
Substitution2: "+U1VOAGb/Y2IA +Z+VifgAA 60+Zv9O44ho" B.leftM
Substitution2: "+U1VOAGb/Y2IA +Z+VifgAA 59+Zv9O44ho" B.leftL
EndChar

StartChar: B.leftL
Encoding: 65544 -1 27
Width: 600
GlyphClass: 1
Flags: W
LayerCount: 2
Fore
SplineSet
46 0 m 1
 46 700 l 1
 282 700 l 2
 394 700 475 625 475 521 c 0
 475 452 439 396 382 368 c 1
 382 364 l 1
 453 338 497 275 497 193 c 0
 497 81 412 0 295 0 c 2
 46 0 l 1
133 402 m 1
 286 402 l 2
 347 402 389 449 389 514 c 0
 389 579 348 622 286 622 c 2
 133 622 l 1
 133 402 l 1
133 78 m 1
 298 78 l 2
 364 78 409 128 409 201 c 0
 409 274 364 324 298 324 c 2
 133 324 l 1
 133 78 l 1
EndSplineSet
Validated: 1
EndChar

StartChar: B.leftM
Encoding: 65545 -1 28
Width: 600
GlyphClass: 1
Flags: W
LayerCount: 2
Fore
SplineSet
60 0 m 1
 60 700 l 1
 296 700 l 2
 408 700 489 625 489 521 c 0
 489 452 453 396 396 368 c 1
 396 364 l 1
 467 338 511 275 511 193 c 0
 511 81 426 0 309 0 c 2
 60 0 l 1
147 402 m 1
 300 402 l 2
 361 402 403 449 403 514 c 0
 403 579 362 622 300 622 c 2
 147 622 l 1
 147 402 l 1
147 78 m 1
 312 78 l 2
 378 78 423 128 423 201 c 0
 423 274 378 324 312 324 c 2
 147 324 l 1
 147 78 l 1
EndSplineSet
Validated: 1
EndChar

StartChar: B.leftS
Encoding: 65546 -1 29
Width: 600
GlyphClass: 1
Flags: W
LayerCount: 2
Fore
SplineSet
72 0 m 1
 72 700 l 1
 308 700 l 2
 420 700 501 625 501 521 c 0
 501 452 465 396 408 368 c 1
 408 364 l 1
 479 338 523 275 523 193 c 0
 523 81 438 0 321 0 c 2
 72 0 l 1
159 402 m 1
 312 402 l 2
 373 402 415 449 415 514 c 0
 415 579 374 622 312 622 c 2
 159 622 l 1
 159 402 l 1
159 78 m 1
 324 78 l 2
 390 78 435 128 435 201 c 0
 435 274 390 324 324 324 c 2
 159 324 l 1
 159 78 l 1
EndSplineSet
Validated: 1
EndChar

StartChar: B.rightL
Encoding: 65547 -1 30
Width: 600
GlyphClass: 1
Flags: W
LayerCount: 2
Fore
SplineSet
134 0 m 1
 134 700 l 1
 370 700 l 2
 482 700 563 625 563 521 c 0
 563 452 527 396 470 368 c 1
 470 364 l 1
 541 338 585 275 585 193 c 0
 585 81 500 0 383 0 c 2
 134 0 l 1
221 402 m 1
 374 402 l 2
 435 402 477 449 477 514 c 0
 477 579 436 622 374 622 c 2
 221 622 l 1
 221 402 l 1
221 78 m 1
 386 78 l 2
 452 78 497 128 497 201 c 0
 497 274 452 324 386 324 c 2
 221 324 l 1
 221 78 l 1
EndSplineSet
Validated: 1
EndChar

StartChar: B.rightM
Encoding: 65548 -1 31
Width: 600
GlyphClass: 1
Flags: W
LayerCount: 2
Fore
SplineSet
120 0 m 1
 120 700 l 1
 356 700 l 2
 468 700 549 625 549 521 c 0
 549 452 513 396 456 368 c 1
 456 364 l 1
 527 338 571 275 571 193 c 0
 571 81 486 0 369 0 c 2
 120 0 l 1
207 402 m 1
 360 402 l 2
 421 402 463 449 463 514 c 0
 463 579 422 622 360 622 c 2
 207 622 l 1
 207 402 l 1
207 78 m 1
 372 78 l 2
 438 78 483 128 483 201 c 0
 483 274 438 324 372 324 c 2
 207 324 l 1
 207 78 l 1
EndSplineSet
Validated: 1
EndChar

StartChar: B.rightS
Encoding: 65549 -1 32
Width: 600
GlyphClass: 1
Flags: W
LayerCount: 2
Fore
SplineSet
102 0 m 1
 102 700 l 1
 338 700 l 2
 450 700 531 625 531 521 c 0
 531 452 495 396 438 368 c 1
 438 364 l 1
 509 338 553 275 553 193 c 0
 553 81 468 0 351 0 c 2
 102 0 l 1
189 402 m 1
 342 402 l 2
 403 402 445 449 445 514 c 0
 445 579 404 622 342 622 c 2
 189 622 l 1
 189 402 l 1
189 78 m 1
 354 78 l 2
 420 78 465 128 465 201 c 0
 465 274 420 324 354 324 c 2
 189 324 l 1
 189 78 l 1
EndSplineSet
Validated: 1
EndChar

StartChar: Beta
Encoding: 914 914 33
Width: 600
GlyphClass: 1
Flags: W
LayerCount: 2
Fore
SplineSet
90 0 m 1
 90 700 l 1
 326 700 l 2
 438 700 519 625 519 521 c 0
 519 452 483 396 426 368 c 1
 426 364 l 1
 497 338 541 275 541 193 c 0
 541 81 456 0 339 0 c 2
 90 0 l 1
177 402 m 1
 330 402 l 2
 391 402 433 449 433 514 c 0
 433 579 392 622 330 622 c 2
 177 622 l 1
 177 402 l 1
177 78 m 1
 342 78 l 2
 408 78 453 128 453 201 c 0
 453 274 408 324 342 324 c 2
 177 324 l 1
 177 78 l 1
EndSplineSet
Validated: 1
EndChar

StartChar: C
Encoding: 67 67 34
Width: 600
GlyphClass: 1
Flags: W
LayerCount: 2
Fore
SplineSet
466 178 m 1
 549 178 l 1
 534 68 441 -10 326 -10 c 0
 167 -10 58 137 58 350 c 0
 58 564 167 710 324 710 c 0
 436 710 526 636 543 532 c 1
 459 532 l 1
 445 591 392 630 327 630 c 0
 217 630 146 519 146 349 c 0
 146 179 217 70 328 70 c 0
 397 70 452 113 466 178 c 1
EndSplineSet
Validated: 1
Substitution2: "+U1VOAGb/Y2IA +Z+VifgAA 72+Zv9O44ho" C.rightS
Substitution2: "+U1VOAGb/Y2IA +Z+VifgAA 71+Zv9O44ho" C.rightM
Substitution2: "+U1VOAGb/Y2IA +Z+VifgAA 70+Zv9O44ho" C.rightL
Substitution2: "+U1VOAGb/Y2IA +Z+VifgAA 69+Zv9O44ho" C.leftS
Substitution2: "+U1VOAGb/Y2IA +Z+VifgAA 68+Zv9O44ho" C.leftM
Substitution2: "+U1VOAGb/Y2IA +Z+VifgAA 67+Zv9O44ho" C.leftL
Substitution2: "+U1VOAGb/Y2IA +Z+VifgAA 66+Zv9O44ho" C.rightS
Substitution2: "+U1VOAGb/Y2IA +Z+VifgAA 65+Zv9O44ho" C.rightM
Substitution2: "+U1VOAGb/Y2IA +Z+VifgAA 64+Zv9O44ho" C.rightS
Substitution2: "+U1VOAGb/Y2IA +Z+VifgAA 63+Zv9O44ho" C.rightM
Substitution2: "+U1VOAGb/Y2IA +Z+VifgAA 62+Zv9O44ho" C.rightL
Substitution2: "+U1VOAGb/Y2IA +Z+VifgAA 61+Zv9O44ho" C.leftS
Substitution2: "+U1VOAGb/Y2IA +Z+VifgAA 60+Zv9O44ho" C.leftM
Substitution2: "+U1VOAGb/Y2IA +Z+VifgAA 59+Zv9O44ho" C.leftL
EndChar

StartChar: C.leftL
Encoding: 65550 -1 35
Width: 600
GlyphClass: 1
Flags: W
LayerCount: 2
Fore
SplineSet
422 178 m 1
 505 178 l 1
 490 68 397 -10 282 -10 c 0
 123 -10 14 137 14 350 c 0
 14 564 123 710 280 710 c 0
 392 710 482 636 499 532 c 1
 415 532 l 1
 401 591 348 630 283 630 c 0
 173 630 102 519 102 349 c 0
 102 179 173 70 284 70 c 0
 353 70 408 113 422 178 c 1
EndSplineSet
Validated: 1
EndChar

StartChar: C.leftM
Encoding: 65551 -1 36
Width: 600
GlyphClass: 1
Flags: W
LayerCount: 2
Fore
SplineSet
436 178 m 1
 519 178 l 1
 504 68 411 -10 296 -10 c 0
 137 -10 28 137 28 350 c 0
 28 564 137 710 294 710 c 0
 406 710 496 636 513 532 c 1
 429 532 l 1
 415 591 362 630 297 630 c 0
 187 630 116 519 116 349 c 0
 116 179 187 70 298 70 c 0
 367 70 422 113 436 178 c 1
EndSplineSet
Validated: 1
EndChar

StartChar: C.leftS
Encoding: 65552 -1 37
Width: 600
GlyphClass: 1
Flags: W
LayerCount: 2
Fore
SplineSet
454 178 m 1
 537 178 l 1
 522 68 429 -10 314 -10 c 0
 155 -10 46 137 46 350 c 0
 46 564 155 710 312 710 c 0
 424 710 514 636 531 532 c 1
 447 532 l 1
 433 591 380 630 315 630 c 0
 205 630 134 519 134 349 c 0
 134 179 205 70 316 70 c 0
 385 70 440 113 454 178 c 1
EndSplineSet
Validated: 1
EndChar

StartChar: C.rightL
Encoding: 65553 -1 38
Width: 600
GlyphClass: 1
Flags: W
LayerCount: 2
Fore
SplineSet
510 178 m 1
 593 178 l 1
 578 68 485 -10 370 -10 c 0
 211 -10 102 137 102 350 c 0
 102 564 211 710 368 710 c 0
 480 710 570 636 587 532 c 1
 503 532 l 1
 489 591 436 630 371 630 c 0
 261 630 190 519 190 349 c 0
 190 179 261 70 372 70 c 0
 441 70 496 113 510 178 c 1
EndSplineSet
Validated: 1
EndChar

StartChar: C.rightM
Encoding: 65554 -1 39
Width: 600
GlyphClass: 1
Flags: W
LayerCount: 2
Fore
SplineSet
496 178 m 1
 579 178 l 1
 564 68 471 -10 356 -10 c 0
 197 -10 88 137 88 350 c 0
 88 564 197 710 354 710 c 0
 466 710 556 636 573 532 c 1
 489 532 l 1
 475 591 422 630 357 630 c 0
 247 630 176 519 176 349 c 0
 176 179 247 70 358 70 c 0
 427 70 482 113 496 178 c 1
EndSplineSet
Validated: 1
EndChar

StartChar: C.rightS
Encoding: 65555 -1 40
Width: 600
GlyphClass: 1
Flags: W
LayerCount: 2
Fore
SplineSet
484 178 m 1
 567 178 l 1
 552 68 459 -10 344 -10 c 0
 185 -10 76 137 76 350 c 0
 76 564 185 710 342 710 c 0
 454 710 544 636 561 532 c 1
 477 532 l 1
 463 591 410 630 345 630 c 0
 235 630 164 519 164 349 c 0
 164 179 235 70 346 70 c 0
 415 70 470 113 484 178 c 1
EndSplineSet
Validated: 1
EndChar

StartChar: Cacute
Encoding: 262 262 41
Width: 600
GlyphClass: 1
Flags: W
LayerCount: 2
Fore
SplineSet
466 178 m 1
 549 178 l 1
 534 68 441 -10 326 -10 c 0
 167 -10 58 137 58 350 c 0
 58 564 167 710 324 710 c 0
 436 710 526 636 543 532 c 1
 459 532 l 1
 445 591 392 630 327 630 c 0
 217 630 146 519 146 349 c 0
 146 179 217 70 328 70 c 0
 397 70 452 113 466 178 c 1
453 977 m 1
 337 792 l 1
 264 792 l 1
 342 977 l 1
 453 977 l 1
EndSplineSet
Validated: 1
EndChar

StartChar: Ccaron
Encoding: 268 268 42
Width: 600
GlyphClass: 1
Flags: W
LayerCount: 2
Fore
SplineSet
466 178 m 1
 549 178 l 1
 534 68 441 -10 326 -10 c 0
 167 -10 58 137 58 350 c 0
 58 564 167 710 324 710 c 0
 436 710 526 636 543 532 c 1
 459 532 l 1
 445 591 392 630 327 630 c 0
 217 630 146 519 146 349 c 0
 146 179 217 70 328 70 c 0
 397 70 452 113 466 178 c 1
275 785 m 1
 164 961 l 1
 237 961 l 1
 319 858 l 1
 401 961 l 1
 474 961 l 1
 363 785 l 1
 275 785 l 1
EndSplineSet
Validated: 1
EndChar

StartChar: Ccedilla
Encoding: 199 199 43
Width: 600
GlyphClass: 1
Flags: W
LayerCount: 2
Fore
SplineSet
284 -159 m 1
 288 -185 310 -203 340 -203 c 0
 371 -203 393 -183 393 -154 c 0
 393 -124 370 -104 339 -104 c 0
 324 -104 311 -109 302 -116 c 1
 259 -101 l 1
 276 -5 l 1
 145 22 58 160 58 350 c 0
 58 564 167 710 324 710 c 0
 436 710 526 636 543 532 c 1
 459 532 l 1
 445 591 392 630 327 630 c 0
 217 630 146 519 146 349 c 0
 146 179 217 70 328 70 c 0
 397 70 452 113 466 178 c 1
 549 178 l 1
 535 75 453 0 348 -9 c 1
 340 -53 l 1
 408 -44 461 -87 461 -151 c 0
 461 -214 409 -261 338 -261 c 0
 270 -261 219 -218 217 -159 c 1
 284 -159 l 1
EndSplineSet
Validated: 33
EndChar

StartChar: Ccircumflex
Encoding: 264 264 44
Width: 600
GlyphClass: 1
Flags: W
LayerCount: 2
Fore
SplineSet
466 178 m 1
 549 178 l 1
 534 68 441 -10 326 -10 c 0
 167 -10 58 137 58 350 c 0
 58 564 167 710 324 710 c 0
 436 710 526 636 543 532 c 1
 459 532 l 1
 445 591 392 630 327 630 c 0
 217 630 146 519 146 349 c 0
 146 179 217 70 328 70 c 0
 397 70 452 113 466 178 c 1
164 785 m 1
 275 961 l 1
 363 961 l 1
 474 785 l 1
 401 785 l 1
 319 889 l 1
 237 785 l 1
 164 785 l 1
EndSplineSet
Validated: 1
EndChar

StartChar: Cdotaccent
Encoding: 266 266 45
Width: 600
GlyphClass: 1
Flags: W
LayerCount: 2
Fore
SplineSet
466 178 m 1
 549 178 l 1
 534 68 441 -10 326 -10 c 0
 167 -10 58 137 58 350 c 0
 58 564 167 710 324 710 c 0
 436 710 526 636 543 532 c 1
 459 532 l 1
 445 591 392 630 327 630 c 0
 217 630 146 519 146 349 c 0
 146 179 217 70 328 70 c 0
 397 70 452 113 466 178 c 1
245 874 m 0
 245 915 279 947 319 947 c 0
 360 947 393 915 393 874 c 0
 393 833 360 800 319 800 c 0
 279 800 245 833 245 874 c 0
EndSplineSet
Validated: 1
Substitution2: "'cv03' +W1d7JlPYT1MA-03 +Z+VifgAA 2+Zv9O44ho" Cdotaccent.square
EndChar

StartChar: Cdotaccent.square
Encoding: 65556 -1 46
Width: 600
GlyphClass: 1
Flags: W
LayerCount: 2
Fore
SplineSet
466 178 m 1
 549 178 l 1
 534 68 441 -10 326 -10 c 0
 167 -10 58 137 58 350 c 0
 58 564 167 710 324 710 c 0
 436 710 526 636 543 532 c 1
 459 532 l 1
 445 591 392 630 327 630 c 0
 217 630 146 519 146 349 c 0
 146 179 217 70 328 70 c 0
 397 70 452 113 466 178 c 1
256 814 m 1
 256 941 l 1
 382 941 l 1
 382 814 l 1
 256 814 l 1
EndSplineSet
Validated: 1
EndChar

StartChar: Chi
Encoding: 935 935 47
Width: 600
GlyphClass: 1
Flags: W
LayerCount: 2
Fore
SplineSet
11 0 m 1
 246 364 l 1
 27 700 l 1
 126 700 l 1
 300 435 l 1
 474 700 l 1
 571 700 l 1
 353 365 l 1
 589 0 l 1
 490 0 l 1
 299 293 l 1
 108 0 l 1
 11 0 l 1
EndSplineSet
Validated: 1
EndChar

StartChar: D
Encoding: 68 68 48
Width: 600
GlyphClass: 1
Flags: W
LayerCount: 2
Fore
SplineSet
80 0 m 1
 80 700 l 1
 279 700 l 2
 448 700 563 558 563 350 c 0
 563 142 448 0 279 0 c 2
 80 0 l 1
167 78 m 1
 279 78 l 2
 398 78 475 184 475 350 c 0
 475 516 398 622 279 622 c 2
 167 622 l 1
 167 78 l 1
EndSplineSet
Validated: 1
Substitution2: "+U1VOAGb/Y2IA +Z+VifgAA 72+Zv9O44ho" D.rightS
Substitution2: "+U1VOAGb/Y2IA +Z+VifgAA 71+Zv9O44ho" D.rightM
Substitution2: "+U1VOAGb/Y2IA +Z+VifgAA 70+Zv9O44ho" D.rightL
Substitution2: "+U1VOAGb/Y2IA +Z+VifgAA 69+Zv9O44ho" D.leftS
Substitution2: "+U1VOAGb/Y2IA +Z+VifgAA 68+Zv9O44ho" D.leftM
Substitution2: "+U1VOAGb/Y2IA +Z+VifgAA 67+Zv9O44ho" D.leftL
Substitution2: "+U1VOAGb/Y2IA +Z+VifgAA 66+Zv9O44ho" D.rightS
Substitution2: "+U1VOAGb/Y2IA +Z+VifgAA 65+Zv9O44ho" D.rightM
Substitution2: "+U1VOAGb/Y2IA +Z+VifgAA 64+Zv9O44ho" D.rightS
Substitution2: "+U1VOAGb/Y2IA +Z+VifgAA 63+Zv9O44ho" D.rightM
Substitution2: "+U1VOAGb/Y2IA +Z+VifgAA 62+Zv9O44ho" D.rightL
Substitution2: "+U1VOAGb/Y2IA +Z+VifgAA 61+Zv9O44ho" D.leftS
Substitution2: "+U1VOAGb/Y2IA +Z+VifgAA 60+Zv9O44ho" D.leftM
Substitution2: "+U1VOAGb/Y2IA +Z+VifgAA 59+Zv9O44ho" D.leftL
EndChar

StartChar: D.leftL
Encoding: 65557 -1 49
Width: 600
GlyphClass: 1
Flags: W
LayerCount: 2
Fore
SplineSet
36 0 m 1
 36 700 l 1
 235 700 l 2
 404 700 519 558 519 350 c 0
 519 142 404 0 235 0 c 2
 36 0 l 1
123 78 m 1
 235 78 l 2
 354 78 431 184 431 350 c 0
 431 516 354 622 235 622 c 2
 123 622 l 1
 123 78 l 1
EndSplineSet
Validated: 1
EndChar

StartChar: D.leftM
Encoding: 65558 -1 50
Width: 600
GlyphClass: 1
Flags: W
LayerCount: 2
Fore
SplineSet
50 0 m 1
 50 700 l 1
 249 700 l 2
 418 700 533 558 533 350 c 0
 533 142 418 0 249 0 c 2
 50 0 l 1
137 78 m 1
 249 78 l 2
 368 78 445 184 445 350 c 0
 445 516 368 622 249 622 c 2
 137 622 l 1
 137 78 l 1
EndSplineSet
Validated: 1
EndChar

StartChar: D.leftS
Encoding: 65559 -1 51
Width: 600
GlyphClass: 1
Flags: W
LayerCount: 2
Fore
SplineSet
68 0 m 1
 68 700 l 1
 267 700 l 2
 436 700 551 558 551 350 c 0
 551 142 436 0 267 0 c 2
 68 0 l 1
155 78 m 1
 267 78 l 2
 386 78 463 184 463 350 c 0
 463 516 386 622 267 622 c 2
 155 622 l 1
 155 78 l 1
EndSplineSet
Validated: 1
EndChar

StartChar: D.rightL
Encoding: 65560 -1 52
Width: 600
GlyphClass: 1
Flags: W
LayerCount: 2
Fore
SplineSet
124 0 m 1
 124 700 l 1
 323 700 l 2
 492 700 607 558 607 350 c 0
 607 142 492 0 323 0 c 2
 124 0 l 1
211 78 m 1
 323 78 l 2
 442 78 519 184 519 350 c 0
 519 516 442 622 323 622 c 2
 211 622 l 1
 211 78 l 1
EndSplineSet
Validated: 1
EndChar

StartChar: D.rightM
Encoding: 65561 -1 53
Width: 600
GlyphClass: 1
Flags: W
LayerCount: 2
Fore
SplineSet
110 0 m 1
 110 700 l 1
 309 700 l 2
 478 700 593 558 593 350 c 0
 593 142 478 0 309 0 c 2
 110 0 l 1
197 78 m 1
 309 78 l 2
 428 78 505 184 505 350 c 0
 505 516 428 622 309 622 c 2
 197 622 l 1
 197 78 l 1
EndSplineSet
Validated: 1
EndChar

StartChar: D.rightS
Encoding: 65562 -1 54
Width: 600
GlyphClass: 1
Flags: W
LayerCount: 2
Fore
SplineSet
98 0 m 1
 98 700 l 1
 297 700 l 2
 466 700 581 558 581 350 c 0
 581 142 466 0 297 0 c 2
 98 0 l 1
185 78 m 1
 297 78 l 2
 416 78 493 184 493 350 c 0
 493 516 416 622 297 622 c 2
 185 622 l 1
 185 78 l 1
EndSplineSet
Validated: 1
EndChar

StartChar: Dcaron
Encoding: 270 270 55
Width: 600
GlyphClass: 1
Flags: W
LayerCount: 2
Fore
SplineSet
80 0 m 1
 80 700 l 1
 279 700 l 2
 448 700 563 558 563 350 c 0
 563 142 448 0 279 0 c 2
 80 0 l 1
167 78 m 1
 279 78 l 2
 398 78 475 184 475 350 c 0
 475 516 398 622 279 622 c 2
 167 622 l 1
 167 78 l 1
256 785 m 1
 145 961 l 1
 218 961 l 1
 300 858 l 1
 382 961 l 1
 455 961 l 1
 344 785 l 1
 256 785 l 1
EndSplineSet
Validated: 1
EndChar

StartChar: Dcroat
Encoding: 272 272 56
Width: 600
GlyphClass: 1
Flags: W
LayerCount: 2
Fore
SplineSet
80 0 m 1
 80 314 l 1
 20 314 l 1
 20 387 l 1
 80 387 l 1
 80 700 l 1
 279 700 l 2
 448 700 563 558 563 350 c 0
 563 142 448 0 279 0 c 2
 80 0 l 1
167 78 m 1
 279 78 l 2
 398 78 475 184 475 350 c 0
 475 516 398 622 279 622 c 2
 167 622 l 1
 167 387 l 1
 320 387 l 1
 320 314 l 1
 167 314 l 1
 167 78 l 1
EndSplineSet
Validated: 1
EndChar

StartChar: uni0394
Encoding: 916 916 57
Width: 600
GlyphClass: 1
Flags: W
LayerCount: 2
Fore
SplineSet
28 0 m 1
 241 700 l 1
 359 700 l 1
 572 0 l 1
 28 0 l 1
136 78 m 1
 462 78 l 1
 301 608 l 1
 297 608 l 1
 136 78 l 1
EndSplineSet
Validated: 1
EndChar

StartChar: E
Encoding: 69 69 58
Width: 600
GlyphClass: 1
Flags: W
LayerCount: 2
Fore
SplineSet
113 0 m 1
 113 700 l 1
 529 700 l 1
 529 622 l 1
 200 622 l 1
 200 402 l 1
 485 402 l 1
 485 324 l 1
 200 324 l 1
 200 78 l 1
 529 78 l 1
 529 0 l 1
 113 0 l 1
EndSplineSet
Validated: 1
Substitution2: "+U1VOAGb/Y2IA +Z+VifgAA 72+Zv9O44ho" E.rightS
Substitution2: "+U1VOAGb/Y2IA +Z+VifgAA 71+Zv9O44ho" E.rightM
Substitution2: "+U1VOAGb/Y2IA +Z+VifgAA 70+Zv9O44ho" E.rightL
Substitution2: "+U1VOAGb/Y2IA +Z+VifgAA 69+Zv9O44ho" E.leftS
Substitution2: "+U1VOAGb/Y2IA +Z+VifgAA 68+Zv9O44ho" E.leftM
Substitution2: "+U1VOAGb/Y2IA +Z+VifgAA 67+Zv9O44ho" E.leftL
Substitution2: "+U1VOAGb/Y2IA +Z+VifgAA 66+Zv9O44ho" E.rightS
Substitution2: "+U1VOAGb/Y2IA +Z+VifgAA 65+Zv9O44ho" E.rightM
Substitution2: "+U1VOAGb/Y2IA +Z+VifgAA 64+Zv9O44ho" E.rightS
Substitution2: "+U1VOAGb/Y2IA +Z+VifgAA 63+Zv9O44ho" E.rightM
Substitution2: "+U1VOAGb/Y2IA +Z+VifgAA 62+Zv9O44ho" E.rightL
Substitution2: "+U1VOAGb/Y2IA +Z+VifgAA 61+Zv9O44ho" E.leftS
Substitution2: "+U1VOAGb/Y2IA +Z+VifgAA 60+Zv9O44ho" E.leftM
Substitution2: "+U1VOAGb/Y2IA +Z+VifgAA 59+Zv9O44ho" E.leftL
EndChar

StartChar: E.leftL
Encoding: 65563 -1 59
Width: 600
GlyphClass: 1
Flags: W
LayerCount: 2
Fore
SplineSet
69 0 m 1
 69 700 l 1
 485 700 l 1
 485 622 l 1
 156 622 l 1
 156 402 l 1
 441 402 l 1
 441 324 l 1
 156 324 l 1
 156 78 l 1
 485 78 l 1
 485 0 l 1
 69 0 l 1
EndSplineSet
Validated: 1
EndChar

StartChar: E.leftM
Encoding: 65564 -1 60
Width: 600
GlyphClass: 1
Flags: W
LayerCount: 2
Fore
SplineSet
83 0 m 1
 83 700 l 1
 499 700 l 1
 499 622 l 1
 170 622 l 1
 170 402 l 1
 455 402 l 1
 455 324 l 1
 170 324 l 1
 170 78 l 1
 499 78 l 1
 499 0 l 1
 83 0 l 1
EndSplineSet
Validated: 1
EndChar

StartChar: E.leftS
Encoding: 65565 -1 61
Width: 600
GlyphClass: 1
Flags: W
LayerCount: 2
Fore
SplineSet
95 0 m 1
 95 700 l 1
 511 700 l 1
 511 622 l 1
 182 622 l 1
 182 402 l 1
 467 402 l 1
 467 324 l 1
 182 324 l 1
 182 78 l 1
 511 78 l 1
 511 0 l 1
 95 0 l 1
EndSplineSet
Validated: 1
EndChar

StartChar: E.rightL
Encoding: 65566 -1 62
Width: 600
GlyphClass: 1
Flags: W
LayerCount: 2
Fore
SplineSet
157 0 m 1
 157 700 l 1
 573 700 l 1
 573 622 l 1
 244 622 l 1
 244 402 l 1
 529 402 l 1
 529 324 l 1
 244 324 l 1
 244 78 l 1
 573 78 l 1
 573 0 l 1
 157 0 l 1
EndSplineSet
Validated: 1
EndChar

StartChar: E.rightM
Encoding: 65567 -1 63
Width: 600
GlyphClass: 1
Flags: W
LayerCount: 2
Fore
SplineSet
143 0 m 1
 143 700 l 1
 559 700 l 1
 559 622 l 1
 230 622 l 1
 230 402 l 1
 515 402 l 1
 515 324 l 1
 230 324 l 1
 230 78 l 1
 559 78 l 1
 559 0 l 1
 143 0 l 1
EndSplineSet
Validated: 1
EndChar

StartChar: E.rightS
Encoding: 65568 -1 64
Width: 600
GlyphClass: 1
Flags: W
LayerCount: 2
Fore
SplineSet
131 0 m 1
 131 700 l 1
 547 700 l 1
 547 622 l 1
 218 622 l 1
 218 402 l 1
 503 402 l 1
 503 324 l 1
 218 324 l 1
 218 78 l 1
 547 78 l 1
 547 0 l 1
 131 0 l 1
EndSplineSet
Validated: 1
EndChar

StartChar: Eacute
Encoding: 201 201 65
Width: 600
GlyphClass: 1
Flags: W
LayerCount: 2
Fore
SplineSet
113 0 m 1
 113 700 l 1
 529 700 l 1
 529 622 l 1
 200 622 l 1
 200 402 l 1
 485 402 l 1
 485 324 l 1
 200 324 l 1
 200 78 l 1
 529 78 l 1
 529 0 l 1
 113 0 l 1
453 977 m 1
 337 792 l 1
 264 792 l 1
 342 977 l 1
 453 977 l 1
EndSplineSet
Validated: 1
EndChar

StartChar: Ebreve
Encoding: 276 276 66
Width: 600
GlyphClass: 1
Flags: W
LayerCount: 2
Fore
SplineSet
113 0 m 1
 113 700 l 1
 529 700 l 1
 529 622 l 1
 200 622 l 1
 200 402 l 1
 485 402 l 1
 485 324 l 1
 200 324 l 1
 200 78 l 1
 529 78 l 1
 529 0 l 1
 113 0 l 1
254 923 m 1
 258 879 284 850 319 850 c 0
 354 850 380 879 384 923 c 1
 453 923 l 1
 453 843 397 786 319 786 c 0
 241 786 185 843 185 923 c 1
 254 923 l 1
EndSplineSet
Validated: 1
EndChar

StartChar: Ecaron
Encoding: 282 282 67
Width: 600
GlyphClass: 1
Flags: W
LayerCount: 2
Fore
SplineSet
113 0 m 1
 113 700 l 1
 529 700 l 1
 529 622 l 1
 200 622 l 1
 200 402 l 1
 485 402 l 1
 485 324 l 1
 200 324 l 1
 200 78 l 1
 529 78 l 1
 529 0 l 1
 113 0 l 1
275 785 m 1
 164 961 l 1
 237 961 l 1
 319 858 l 1
 401 961 l 1
 474 961 l 1
 363 785 l 1
 275 785 l 1
EndSplineSet
Validated: 1
EndChar

StartChar: Ecircumflex
Encoding: 202 202 68
Width: 600
GlyphClass: 1
Flags: W
LayerCount: 2
Fore
SplineSet
113 0 m 1
 113 700 l 1
 529 700 l 1
 529 622 l 1
 200 622 l 1
 200 402 l 1
 485 402 l 1
 485 324 l 1
 200 324 l 1
 200 78 l 1
 529 78 l 1
 529 0 l 1
 113 0 l 1
164 785 m 1
 275 961 l 1
 363 961 l 1
 474 785 l 1
 401 785 l 1
 319 889 l 1
 237 785 l 1
 164 785 l 1
EndSplineSet
Validated: 1
EndChar

StartChar: Edieresis
Encoding: 203 203 69
Width: 600
GlyphClass: 1
Flags: W
LayerCount: 2
Fore
SplineSet
113 0 m 1
 113 700 l 1
 529 700 l 1
 529 622 l 1
 200 622 l 1
 200 402 l 1
 485 402 l 1
 485 324 l 1
 200 324 l 1
 200 78 l 1
 529 78 l 1
 529 0 l 1
 113 0 l 1
147 875 m 0
 147 913 177 943 215 943 c 0
 254 943 283 913 283 875 c 0
 283 837 254 806 215 806 c 0
 177 806 147 837 147 875 c 0
355 875 m 0
 355 913 385 943 423 943 c 0
 462 943 491 913 491 875 c 0
 491 837 462 806 423 806 c 0
 385 806 355 837 355 875 c 0
EndSplineSet
Validated: 1
Substitution2: "'cv03' +W1d7JlPYT1MA-03 +Z+VifgAA 2+Zv9O44ho" Edieresis.square
EndChar

StartChar: Edieresis.square
Encoding: 65569 -1 70
Width: 600
GlyphClass: 1
Flags: W
LayerCount: 2
Fore
SplineSet
113 0 m 1
 113 700 l 1
 529 700 l 1
 529 622 l 1
 200 622 l 1
 200 402 l 1
 485 402 l 1
 485 324 l 1
 200 324 l 1
 200 78 l 1
 529 78 l 1
 529 0 l 1
 113 0 l 1
154 810 m 1
 154 931 l 1
 276 931 l 1
 276 810 l 1
 154 810 l 1
362 810 m 1
 362 931 l 1
 484 931 l 1
 484 810 l 1
 362 810 l 1
EndSplineSet
Validated: 1
EndChar

StartChar: Edotaccent
Encoding: 278 278 71
Width: 600
GlyphClass: 1
Flags: W
LayerCount: 2
Fore
SplineSet
113 0 m 1
 113 700 l 1
 529 700 l 1
 529 622 l 1
 200 622 l 1
 200 402 l 1
 485 402 l 1
 485 324 l 1
 200 324 l 1
 200 78 l 1
 529 78 l 1
 529 0 l 1
 113 0 l 1
245 874 m 0
 245 915 279 947 319 947 c 0
 360 947 393 915 393 874 c 0
 393 833 360 800 319 800 c 0
 279 800 245 833 245 874 c 0
EndSplineSet
Validated: 1
Substitution2: "'cv03' +W1d7JlPYT1MA-03 +Z+VifgAA 2+Zv9O44ho" Edotaccent.square
EndChar

StartChar: Edotaccent.square
Encoding: 65570 -1 72
Width: 600
GlyphClass: 1
Flags: W
LayerCount: 2
Fore
SplineSet
113 0 m 1
 113 700 l 1
 529 700 l 1
 529 622 l 1
 200 622 l 1
 200 402 l 1
 485 402 l 1
 485 324 l 1
 200 324 l 1
 200 78 l 1
 529 78 l 1
 529 0 l 1
 113 0 l 1
256 814 m 1
 256 941 l 1
 382 941 l 1
 382 814 l 1
 256 814 l 1
EndSplineSet
Validated: 1
EndChar

StartChar: Egrave
Encoding: 200 200 73
Width: 600
GlyphClass: 1
Flags: W
LayerCount: 2
Fore
SplineSet
113 0 m 1
 113 700 l 1
 529 700 l 1
 529 622 l 1
 200 622 l 1
 200 402 l 1
 485 402 l 1
 485 324 l 1
 200 324 l 1
 200 78 l 1
 529 78 l 1
 529 0 l 1
 113 0 l 1
374 792 m 1
 301 792 l 1
 185 977 l 1
 296 977 l 1
 374 792 l 1
EndSplineSet
Validated: 1
EndChar

StartChar: Emacron
Encoding: 274 274 74
Width: 600
GlyphClass: 1
Flags: W
LayerCount: 2
Fore
SplineSet
113 0 m 1
 113 700 l 1
 529 700 l 1
 529 622 l 1
 200 622 l 1
 200 402 l 1
 485 402 l 1
 485 324 l 1
 200 324 l 1
 200 78 l 1
 529 78 l 1
 529 0 l 1
 113 0 l 1
165 830 m 1
 165 900 l 1
 473 900 l 1
 473 830 l 1
 165 830 l 1
EndSplineSet
Validated: 1
EndChar

StartChar: Eng
Encoding: 330 330 75
Width: 600
GlyphClass: 1
Flags: W
LayerCount: 2
Fore
SplineSet
457 127 m 1
 457 700 l 1
 538 700 l 1
 538 -19 l 2
 538 -111 508 -210 361 -210 c 0
 314 -210 280 -200 257 -187 c 1
 257 -117 l 1
 283 -130 314 -139 348 -139 c 0
 439 -139 454 -77 454 -19 c 2
 454 0 l 1
 426 0 l 1
 147 610 l 1
 143 610 l 1
 143 0 l 1
 62 0 l 1
 62 700 l 1
 190 700 l 1
 453 127 l 1
 457 127 l 1
EndSplineSet
Validated: 1
EndChar

StartChar: Eogonek
Encoding: 280 280 76
Width: 600
GlyphClass: 1
Flags: W
LayerCount: 2
Fore
SplineSet
113 0 m 1
 113 700 l 1
 529 700 l 1
 529 622 l 1
 200 622 l 1
 200 402 l 1
 485 402 l 1
 485 324 l 1
 200 324 l 1
 200 78 l 1
 529 78 l 1
 529 1 l 1
 531 0 l 1
 471 -23 441 -52 441 -87 c 0
 441 -120 467 -142 502 -142 c 0
 509 -142 519 -141 528 -139 c 1
 528 -200 l 1
 517 -203 503 -205 487 -205 c 0
 416 -205 368 -162 368 -101 c 0
 368 -62 387 -28 427 0 c 1
 113 0 l 1
EndSplineSet
Validated: 1
EndChar

StartChar: Epsilon
Encoding: 917 917 77
Width: 600
GlyphClass: 1
Flags: W
LayerCount: 2
Fore
SplineSet
113 0 m 1
 113 700 l 1
 529 700 l 1
 529 622 l 1
 200 622 l 1
 200 402 l 1
 485 402 l 1
 485 324 l 1
 200 324 l 1
 200 78 l 1
 529 78 l 1
 529 0 l 1
 113 0 l 1
EndSplineSet
Validated: 1
EndChar

StartChar: Epsilontonos
Encoding: 904 904 78
Width: 600
GlyphClass: 1
Flags: W
LayerCount: 2
Fore
SplineSet
113 0 m 1
 113 700 l 1
 529 700 l 1
 529 622 l 1
 200 622 l 1
 200 402 l 1
 485 402 l 1
 485 324 l 1
 200 324 l 1
 200 78 l 1
 529 78 l 1
 529 0 l 1
 113 0 l 1
98 774 m 1
 32 572 l 1
 -35 572 l 1
 -1 774 l 1
 98 774 l 1
EndSplineSet
Validated: 1
EndChar

StartChar: Eta
Encoding: 919 919 79
Width: 600
GlyphClass: 1
Flags: W
LayerCount: 2
Fore
SplineSet
66 0 m 1
 66 700 l 1
 153 700 l 1
 153 402 l 1
 447 402 l 1
 447 700 l 1
 534 700 l 1
 534 0 l 1
 447 0 l 1
 447 322 l 1
 153 322 l 1
 153 0 l 1
 66 0 l 1
EndSplineSet
Validated: 1
EndChar

StartChar: Etatonos
Encoding: 905 905 80
Width: 600
GlyphClass: 1
Flags: W
LayerCount: 2
Fore
SplineSet
66 0 m 1
 66 700 l 1
 153 700 l 1
 153 402 l 1
 447 402 l 1
 447 700 l 1
 534 700 l 1
 534 0 l 1
 447 0 l 1
 447 322 l 1
 153 322 l 1
 153 0 l 1
 66 0 l 1
52 774 m 1
 -14 572 l 1
 -81 572 l 1
 -47 774 l 1
 52 774 l 1
EndSplineSet
Validated: 1
EndChar

StartChar: Eth
Encoding: 208 208 81
Width: 600
GlyphClass: 1
Flags: W
LayerCount: 2
Fore
SplineSet
80 0 m 1
 80 314 l 1
 20 314 l 1
 20 387 l 1
 80 387 l 1
 80 700 l 1
 279 700 l 2
 448 700 563 558 563 350 c 0
 563 142 448 0 279 0 c 2
 80 0 l 1
167 78 m 1
 279 78 l 2
 398 78 475 184 475 350 c 0
 475 516 398 622 279 622 c 2
 167 622 l 1
 167 387 l 1
 320 387 l 1
 320 314 l 1
 167 314 l 1
 167 78 l 1
EndSplineSet
Validated: 1
EndChar

StartChar: Euro
Encoding: 8364 8364 82
Width: 600
GlyphClass: 1
Flags: W
LayerCount: 2
Fore
SplineSet
14 389 m 1
 14 457 l 1
 68 457 l 1
 98 611 195 710 324 710 c 0
 436 710 526 636 543 532 c 1
 459 532 l 1
 445 591 392 630 326 630 c 0
 242 630 181 565 157 457 c 1
 425 457 l 1
 407 389 l 1
 148 389 l 1
 147 376 146 363 146 349 c 0
 146 339 146 330 147 321 c 1
 394 321 l 1
 376 253 l 1
 155 253 l 1
 177 139 240 70 327 70 c 0
 397 70 452 113 466 178 c 1
 549 178 l 1
 534 68 441 -10 325 -10 c 0
 193 -10 95 94 67 253 c 1
 14 253 l 1
 14 321 l 1
 59 321 l 1
 59 331 58 340 58 350 c 0
 58 363 59 376 60 389 c 1
 14 389 l 1
EndSplineSet
Validated: 1
EndChar

StartChar: F
Encoding: 70 70 83
Width: 600
GlyphClass: 1
Flags: W
LayerCount: 2
Fore
SplineSet
116 0 m 1
 116 700 l 1
 532 700 l 1
 532 622 l 1
 204 622 l 1
 204 389 l 1
 488 389 l 1
 488 311 l 1
 204 311 l 1
 204 0 l 1
 116 0 l 1
EndSplineSet
Validated: 1
Substitution2: "+U1VOAGb/Y2IA +Z+VifgAA 72+Zv9O44ho" F.rightS
Substitution2: "+U1VOAGb/Y2IA +Z+VifgAA 71+Zv9O44ho" F.rightM
Substitution2: "+U1VOAGb/Y2IA +Z+VifgAA 70+Zv9O44ho" F.rightL
Substitution2: "+U1VOAGb/Y2IA +Z+VifgAA 69+Zv9O44ho" F.leftS
Substitution2: "+U1VOAGb/Y2IA +Z+VifgAA 68+Zv9O44ho" F.leftM
Substitution2: "+U1VOAGb/Y2IA +Z+VifgAA 67+Zv9O44ho" F.leftL
Substitution2: "+U1VOAGb/Y2IA +Z+VifgAA 66+Zv9O44ho" F.rightS
Substitution2: "+U1VOAGb/Y2IA +Z+VifgAA 65+Zv9O44ho" F.rightM
Substitution2: "+U1VOAGb/Y2IA +Z+VifgAA 64+Zv9O44ho" F.rightS
Substitution2: "+U1VOAGb/Y2IA +Z+VifgAA 63+Zv9O44ho" F.rightM
Substitution2: "+U1VOAGb/Y2IA +Z+VifgAA 62+Zv9O44ho" F.rightL
Substitution2: "+U1VOAGb/Y2IA +Z+VifgAA 61+Zv9O44ho" F.leftS
Substitution2: "+U1VOAGb/Y2IA +Z+VifgAA 60+Zv9O44ho" F.leftM
Substitution2: "+U1VOAGb/Y2IA +Z+VifgAA 59+Zv9O44ho" F.leftL
EndChar

StartChar: F.leftL
Encoding: 65571 -1 84
Width: 600
GlyphClass: 1
Flags: W
LayerCount: 2
Fore
SplineSet
72 0 m 1
 72 700 l 1
 488 700 l 1
 488 622 l 1
 160 622 l 1
 160 389 l 1
 444 389 l 1
 444 311 l 1
 160 311 l 1
 160 0 l 1
 72 0 l 1
EndSplineSet
Validated: 1
EndChar

StartChar: F.leftM
Encoding: 65572 -1 85
Width: 600
GlyphClass: 1
Flags: W
LayerCount: 2
Fore
SplineSet
86 0 m 1
 86 700 l 1
 502 700 l 1
 502 622 l 1
 174 622 l 1
 174 389 l 1
 458 389 l 1
 458 311 l 1
 174 311 l 1
 174 0 l 1
 86 0 l 1
EndSplineSet
Validated: 1
EndChar

StartChar: F.leftS
Encoding: 65573 -1 86
Width: 600
GlyphClass: 1
Flags: W
LayerCount: 2
Fore
SplineSet
98 0 m 1
 98 700 l 1
 514 700 l 1
 514 622 l 1
 186 622 l 1
 186 389 l 1
 470 389 l 1
 470 311 l 1
 186 311 l 1
 186 0 l 1
 98 0 l 1
EndSplineSet
Validated: 1
EndChar

StartChar: F.rightL
Encoding: 65574 -1 87
Width: 600
GlyphClass: 1
Flags: W
LayerCount: 2
Fore
SplineSet
160 0 m 1
 160 700 l 1
 576 700 l 1
 576 622 l 1
 248 622 l 1
 248 389 l 1
 532 389 l 1
 532 311 l 1
 248 311 l 1
 248 0 l 1
 160 0 l 1
EndSplineSet
Validated: 1
EndChar

StartChar: F.rightM
Encoding: 65575 -1 88
Width: 600
GlyphClass: 1
Flags: W
LayerCount: 2
Fore
SplineSet
146 0 m 1
 146 700 l 1
 562 700 l 1
 562 622 l 1
 234 622 l 1
 234 389 l 1
 518 389 l 1
 518 311 l 1
 234 311 l 1
 234 0 l 1
 146 0 l 1
EndSplineSet
Validated: 1
EndChar

StartChar: F.rightS
Encoding: 65576 -1 89
Width: 600
GlyphClass: 1
Flags: W
LayerCount: 2
Fore
SplineSet
134 0 m 1
 134 700 l 1
 550 700 l 1
 550 622 l 1
 222 622 l 1
 222 389 l 1
 506 389 l 1
 506 311 l 1
 222 311 l 1
 222 0 l 1
 134 0 l 1
EndSplineSet
Validated: 1
EndChar

StartChar: G
Encoding: 71 71 90
Width: 600
GlyphClass: 1
Flags: W
LayerCount: 2
Fore
SplineSet
297 299 m 1
 297 377 l 1
 538 377 l 1
 538 0 l 1
 459 0 l 1
 459 106 l 1
 456 106 l 1
 420 34 358 -10 282 -10 c 0
 143 -10 42 138 42 346 c 0
 42 562 151 710 310 710 c 0
 423 710 515 636 533 532 c 1
 448 532 l 1
 433 591 379 630 313 630 c 0
 201 630 129 520 129 348 c 0
 129 181 197 68 297 68 c 0
 389 68 454 163 454 299 c 1
 297 299 l 1
EndSplineSet
Validated: 1
Substitution2: "+U1VOAGb/Y2IA +Z+VifgAA 72+Zv9O44ho" G.rightS
Substitution2: "+U1VOAGb/Y2IA +Z+VifgAA 71+Zv9O44ho" G.rightM
Substitution2: "+U1VOAGb/Y2IA +Z+VifgAA 70+Zv9O44ho" G.rightL
Substitution2: "+U1VOAGb/Y2IA +Z+VifgAA 69+Zv9O44ho" G.leftS
Substitution2: "+U1VOAGb/Y2IA +Z+VifgAA 68+Zv9O44ho" G.leftM
Substitution2: "+U1VOAGb/Y2IA +Z+VifgAA 67+Zv9O44ho" G.leftL
Substitution2: "+U1VOAGb/Y2IA +Z+VifgAA 66+Zv9O44ho" G.rightS
Substitution2: "+U1VOAGb/Y2IA +Z+VifgAA 65+Zv9O44ho" G.rightM
Substitution2: "+U1VOAGb/Y2IA +Z+VifgAA 64+Zv9O44ho" G.rightS
Substitution2: "+U1VOAGb/Y2IA +Z+VifgAA 63+Zv9O44ho" G.rightM
Substitution2: "+U1VOAGb/Y2IA +Z+VifgAA 62+Zv9O44ho" G.rightL
Substitution2: "+U1VOAGb/Y2IA +Z+VifgAA 61+Zv9O44ho" G.leftS
Substitution2: "+U1VOAGb/Y2IA +Z+VifgAA 60+Zv9O44ho" G.leftM
Substitution2: "+U1VOAGb/Y2IA +Z+VifgAA 59+Zv9O44ho" G.leftL
EndChar

StartChar: G.leftL
Encoding: 65577 -1 91
Width: 600
GlyphClass: 1
Flags: W
LayerCount: 2
Fore
SplineSet
253 299 m 1
 253 377 l 1
 494 377 l 1
 494 0 l 1
 415 0 l 1
 415 106 l 1
 412 106 l 1
 376 34 314 -10 238 -10 c 0
 99 -10 -2 138 -2 346 c 0
 -2 562 107 710 266 710 c 0
 379 710 471 636 489 532 c 1
 404 532 l 1
 389 591 335 630 269 630 c 0
 157 630 85 520 85 348 c 0
 85 181 153 68 253 68 c 0
 345 68 410 163 410 299 c 1
 253 299 l 1
EndSplineSet
Validated: 1
EndChar

StartChar: G.leftM
Encoding: 65578 -1 92
Width: 600
GlyphClass: 1
Flags: W
LayerCount: 2
Fore
SplineSet
267 299 m 1
 267 377 l 1
 508 377 l 1
 508 0 l 1
 429 0 l 1
 429 106 l 1
 426 106 l 1
 390 34 328 -10 252 -10 c 0
 113 -10 12 138 12 346 c 0
 12 562 121 710 280 710 c 0
 393 710 485 636 503 532 c 1
 418 532 l 1
 403 591 349 630 283 630 c 0
 171 630 99 520 99 348 c 0
 99 181 167 68 267 68 c 0
 359 68 424 163 424 299 c 1
 267 299 l 1
EndSplineSet
Validated: 1
EndChar

StartChar: G.leftS
Encoding: 65579 -1 93
Width: 600
GlyphClass: 1
Flags: W
LayerCount: 2
Fore
SplineSet
279 299 m 1
 279 377 l 1
 520 377 l 1
 520 0 l 1
 441 0 l 1
 441 106 l 1
 438 106 l 1
 402 34 340 -10 264 -10 c 0
 125 -10 24 138 24 346 c 0
 24 562 133 710 292 710 c 0
 405 710 497 636 515 532 c 1
 430 532 l 1
 415 591 361 630 295 630 c 0
 183 630 111 520 111 348 c 0
 111 181 179 68 279 68 c 0
 371 68 436 163 436 299 c 1
 279 299 l 1
EndSplineSet
Validated: 1
EndChar

StartChar: G.rightL
Encoding: 65580 -1 94
Width: 600
GlyphClass: 1
Flags: W
LayerCount: 2
Fore
SplineSet
341 299 m 1
 341 377 l 1
 582 377 l 1
 582 0 l 1
 503 0 l 1
 503 106 l 1
 500 106 l 1
 464 34 402 -10 326 -10 c 0
 187 -10 86 138 86 346 c 0
 86 562 195 710 354 710 c 0
 467 710 559 636 577 532 c 1
 492 532 l 1
 477 591 423 630 357 630 c 0
 245 630 173 520 173 348 c 0
 173 181 241 68 341 68 c 0
 433 68 498 163 498 299 c 1
 341 299 l 1
EndSplineSet
Validated: 1
EndChar

StartChar: G.rightM
Encoding: 65581 -1 95
Width: 600
GlyphClass: 1
Flags: W
LayerCount: 2
Fore
SplineSet
327 299 m 1
 327 377 l 1
 568 377 l 1
 568 0 l 1
 489 0 l 1
 489 106 l 1
 486 106 l 1
 450 34 388 -10 312 -10 c 0
 173 -10 72 138 72 346 c 0
 72 562 181 710 340 710 c 0
 453 710 545 636 563 532 c 1
 478 532 l 1
 463 591 409 630 343 630 c 0
 231 630 159 520 159 348 c 0
 159 181 227 68 327 68 c 0
 419 68 484 163 484 299 c 1
 327 299 l 1
EndSplineSet
Validated: 1
EndChar

StartChar: G.rightS
Encoding: 65582 -1 96
Width: 600
GlyphClass: 1
Flags: W
LayerCount: 2
Fore
SplineSet
315 299 m 1
 315 377 l 1
 556 377 l 1
 556 0 l 1
 477 0 l 1
 477 106 l 1
 474 106 l 1
 438 34 376 -10 300 -10 c 0
 161 -10 60 138 60 346 c 0
 60 562 169 710 328 710 c 0
 441 710 533 636 551 532 c 1
 466 532 l 1
 451 591 397 630 331 630 c 0
 219 630 147 520 147 348 c 0
 147 181 215 68 315 68 c 0
 407 68 472 163 472 299 c 1
 315 299 l 1
EndSplineSet
Validated: 1
EndChar

StartChar: Gamma
Encoding: 915 915 97
Width: 600
GlyphClass: 1
Flags: W
LayerCount: 2
Fore
SplineSet
120 0 m 1
 120 700 l 1
 536 700 l 1
 536 622 l 1
 208 622 l 1
 208 0 l 1
 120 0 l 1
EndSplineSet
Validated: 1
EndChar

StartChar: Gbreve
Encoding: 286 286 98
Width: 600
GlyphClass: 1
Flags: W
LayerCount: 2
Fore
SplineSet
297 299 m 1
 297 377 l 1
 538 377 l 1
 538 0 l 1
 459 0 l 1
 459 106 l 1
 456 106 l 1
 420 34 358 -10 282 -10 c 0
 143 -10 42 138 42 346 c 0
 42 562 151 710 310 710 c 0
 423 710 515 636 533 532 c 1
 448 532 l 1
 433 591 379 630 313 630 c 0
 201 630 129 520 129 348 c 0
 129 181 197 68 297 68 c 0
 389 68 454 163 454 299 c 1
 297 299 l 1
239 923 m 1
 243 879 269 850 304 850 c 0
 339 850 365 879 369 923 c 1
 438 923 l 1
 438 843 382 786 304 786 c 0
 226 786 170 843 170 923 c 1
 239 923 l 1
EndSplineSet
Validated: 1
EndChar

StartChar: Gcircumflex
Encoding: 284 284 99
Width: 600
GlyphClass: 1
Flags: W
LayerCount: 2
Fore
SplineSet
297 299 m 1
 297 377 l 1
 538 377 l 1
 538 0 l 1
 459 0 l 1
 459 106 l 1
 456 106 l 1
 420 34 358 -10 282 -10 c 0
 143 -10 42 138 42 346 c 0
 42 562 151 710 310 710 c 0
 423 710 515 636 533 532 c 1
 448 532 l 1
 433 591 379 630 313 630 c 0
 201 630 129 520 129 348 c 0
 129 181 197 68 297 68 c 0
 389 68 454 163 454 299 c 1
 297 299 l 1
149 785 m 1
 260 961 l 1
 348 961 l 1
 459 785 l 1
 386 785 l 1
 304 889 l 1
 222 785 l 1
 149 785 l 1
EndSplineSet
Validated: 1
EndChar

StartChar: uni0122
Encoding: 290 290 100
Width: 600
GlyphClass: 1
Flags: W
LayerCount: 2
Fore
SplineSet
297 299 m 1
 297 377 l 1
 538 377 l 1
 538 0 l 1
 459 0 l 1
 459 106 l 1
 456 106 l 1
 420 34 358 -10 282 -10 c 0
 143 -10 42 138 42 346 c 0
 42 562 151 710 310 710 c 0
 423 710 515 636 533 532 c 1
 448 532 l 1
 433 591 379 630 313 630 c 0
 201 630 129 520 129 348 c 0
 129 181 197 68 297 68 c 0
 389 68 454 163 454 299 c 1
 297 299 l 1
337 -73 m 1
 222 -258 l 1
 149 -258 l 1
 226 -73 l 1
 337 -73 l 1
EndSplineSet
Validated: 1
EndChar

StartChar: Gdotaccent
Encoding: 288 288 101
Width: 600
GlyphClass: 1
Flags: W
LayerCount: 2
Fore
SplineSet
297 299 m 1
 297 377 l 1
 538 377 l 1
 538 0 l 1
 459 0 l 1
 459 106 l 1
 456 106 l 1
 420 34 358 -10 282 -10 c 0
 143 -10 42 138 42 346 c 0
 42 562 151 710 310 710 c 0
 423 710 515 636 533 532 c 1
 448 532 l 1
 433 591 379 630 313 630 c 0
 201 630 129 520 129 348 c 0
 129 181 197 68 297 68 c 0
 389 68 454 163 454 299 c 1
 297 299 l 1
230 874 m 0
 230 915 264 947 304 947 c 0
 345 947 378 915 378 874 c 0
 378 833 345 800 304 800 c 0
 264 800 230 833 230 874 c 0
EndSplineSet
Validated: 1
Substitution2: "'cv03' +W1d7JlPYT1MA-03 +Z+VifgAA 2+Zv9O44ho" Gdotaccent.square
EndChar

StartChar: Gdotaccent.square
Encoding: 65583 -1 102
Width: 600
GlyphClass: 1
Flags: W
LayerCount: 2
Fore
SplineSet
297 299 m 1
 297 377 l 1
 538 377 l 1
 538 0 l 1
 459 0 l 1
 459 106 l 1
 456 106 l 1
 420 34 358 -10 282 -10 c 0
 143 -10 42 138 42 346 c 0
 42 562 151 710 310 710 c 0
 423 710 515 636 533 532 c 1
 448 532 l 1
 433 591 379 630 313 630 c 0
 201 630 129 520 129 348 c 0
 129 181 197 68 297 68 c 0
 389 68 454 163 454 299 c 1
 297 299 l 1
241 814 m 1
 241 941 l 1
 367 941 l 1
 367 814 l 1
 241 814 l 1
EndSplineSet
Validated: 1
EndChar

StartChar: H
Encoding: 72 72 103
Width: 600
GlyphClass: 1
Flags: W
LayerCount: 2
Fore
SplineSet
66 0 m 1
 66 700 l 1
 153 700 l 1
 153 402 l 1
 447 402 l 1
 447 700 l 1
 534 700 l 1
 534 0 l 1
 447 0 l 1
 447 322 l 1
 153 322 l 1
 153 0 l 1
 66 0 l 1
EndSplineSet
Validated: 1
Substitution2: "+U1VOAGb/Y2IA +Z+VifgAA 72+Zv9O44ho" H.rightS
Substitution2: "+U1VOAGb/Y2IA +Z+VifgAA 71+Zv9O44ho" H.rightM
Substitution2: "+U1VOAGb/Y2IA +Z+VifgAA 70+Zv9O44ho" H.rightL
Substitution2: "+U1VOAGb/Y2IA +Z+VifgAA 69+Zv9O44ho" H.leftS
Substitution2: "+U1VOAGb/Y2IA +Z+VifgAA 68+Zv9O44ho" H.leftM
Substitution2: "+U1VOAGb/Y2IA +Z+VifgAA 67+Zv9O44ho" H.leftL
Substitution2: "+U1VOAGb/Y2IA +Z+VifgAA 66+Zv9O44ho" H.rightS
Substitution2: "+U1VOAGb/Y2IA +Z+VifgAA 65+Zv9O44ho" H.rightM
Substitution2: "+U1VOAGb/Y2IA +Z+VifgAA 64+Zv9O44ho" H.rightS
Substitution2: "+U1VOAGb/Y2IA +Z+VifgAA 63+Zv9O44ho" H.rightM
Substitution2: "+U1VOAGb/Y2IA +Z+VifgAA 62+Zv9O44ho" H.rightL
Substitution2: "+U1VOAGb/Y2IA +Z+VifgAA 61+Zv9O44ho" H.leftS
Substitution2: "+U1VOAGb/Y2IA +Z+VifgAA 60+Zv9O44ho" H.leftM
Substitution2: "+U1VOAGb/Y2IA +Z+VifgAA 59+Zv9O44ho" H.leftL
EndChar

StartChar: H.leftL
Encoding: 65584 -1 104
Width: 600
GlyphClass: 1
Flags: W
LayerCount: 2
Fore
SplineSet
22 0 m 1
 22 700 l 1
 109 700 l 1
 109 402 l 1
 403 402 l 1
 403 700 l 1
 490 700 l 1
 490 0 l 1
 403 0 l 1
 403 322 l 1
 109 322 l 1
 109 0 l 1
 22 0 l 1
EndSplineSet
Validated: 1
EndChar

StartChar: H.leftM
Encoding: 65585 -1 105
Width: 600
GlyphClass: 1
Flags: W
LayerCount: 2
Fore
SplineSet
36 0 m 1
 36 700 l 1
 123 700 l 1
 123 402 l 1
 417 402 l 1
 417 700 l 1
 504 700 l 1
 504 0 l 1
 417 0 l 1
 417 322 l 1
 123 322 l 1
 123 0 l 1
 36 0 l 1
EndSplineSet
Validated: 1
EndChar

StartChar: H.leftS
Encoding: 65586 -1 106
Width: 600
GlyphClass: 1
Flags: W
LayerCount: 2
Fore
SplineSet
48 0 m 1
 48 700 l 1
 135 700 l 1
 135 402 l 1
 429 402 l 1
 429 700 l 1
 516 700 l 1
 516 0 l 1
 429 0 l 1
 429 322 l 1
 135 322 l 1
 135 0 l 1
 48 0 l 1
EndSplineSet
Validated: 1
EndChar

StartChar: H.rightL
Encoding: 65587 -1 107
Width: 600
GlyphClass: 1
Flags: W
LayerCount: 2
Fore
SplineSet
110 0 m 1
 110 700 l 1
 197 700 l 1
 197 402 l 1
 491 402 l 1
 491 700 l 1
 578 700 l 1
 578 0 l 1
 491 0 l 1
 491 322 l 1
 197 322 l 1
 197 0 l 1
 110 0 l 1
EndSplineSet
Validated: 1
EndChar

StartChar: H.rightM
Encoding: 65588 -1 108
Width: 600
GlyphClass: 1
Flags: W
LayerCount: 2
Fore
SplineSet
96 0 m 1
 96 700 l 1
 183 700 l 1
 183 402 l 1
 477 402 l 1
 477 700 l 1
 564 700 l 1
 564 0 l 1
 477 0 l 1
 477 322 l 1
 183 322 l 1
 183 0 l 1
 96 0 l 1
EndSplineSet
Validated: 1
EndChar

StartChar: H.rightS
Encoding: 65589 -1 109
Width: 600
GlyphClass: 1
Flags: W
LayerCount: 2
Fore
SplineSet
84 0 m 1
 84 700 l 1
 171 700 l 1
 171 402 l 1
 465 402 l 1
 465 700 l 1
 552 700 l 1
 552 0 l 1
 465 0 l 1
 465 322 l 1
 171 322 l 1
 171 0 l 1
 84 0 l 1
EndSplineSet
Validated: 1
EndChar

StartChar: Hbar
Encoding: 294 294 110
Width: 600
GlyphClass: 1
Flags: W
LayerCount: 2
Fore
SplineSet
66 0 m 1
 66 502 l 1
 22 502 l 1
 22 563 l 1
 66 563 l 1
 66 700 l 1
 153 700 l 1
 153 563 l 1
 447 563 l 1
 447 700 l 1
 534 700 l 1
 534 563 l 1
 578 563 l 1
 578 502 l 1
 534 502 l 1
 534 0 l 1
 447 0 l 1
 447 286 l 1
 153 286 l 1
 153 0 l 1
 66 0 l 1
447 366 m 1
 447 502 l 1
 153 502 l 1
 153 366 l 1
 447 366 l 1
EndSplineSet
Validated: 1
EndChar

StartChar: Hcircumflex
Encoding: 292 292 111
Width: 600
GlyphClass: 1
Flags: W
LayerCount: 2
Fore
SplineSet
66 0 m 1
 66 700 l 1
 153 700 l 1
 153 402 l 1
 447 402 l 1
 447 700 l 1
 534 700 l 1
 534 0 l 1
 447 0 l 1
 447 322 l 1
 153 322 l 1
 153 0 l 1
 66 0 l 1
145 785 m 1
 256 961 l 1
 344 961 l 1
 455 785 l 1
 382 785 l 1
 300 889 l 1
 218 785 l 1
 145 785 l 1
EndSplineSet
Validated: 1
EndChar

StartChar: I
Encoding: 73 73 112
Width: 600
GlyphClass: 1
Flags: W
LayerCount: 2
Fore
SplineSet
98 0 m 1
 98 78 l 1
 257 78 l 1
 257 622 l 1
 100 622 l 1
 100 700 l 1
 500 700 l 1
 500 622 l 1
 344 622 l 1
 344 78 l 1
 502 78 l 1
 502 0 l 1
 98 0 l 1
EndSplineSet
Validated: 1
Substitution2: "+U1VOAGb/Y2IA +Z+VifgAA 72+Zv9O44ho" I.rightS
Substitution2: "+U1VOAGb/Y2IA +Z+VifgAA 71+Zv9O44ho" I.rightM
Substitution2: "+U1VOAGb/Y2IA +Z+VifgAA 70+Zv9O44ho" I.rightL
Substitution2: "+U1VOAGb/Y2IA +Z+VifgAA 69+Zv9O44ho" I.leftS
Substitution2: "+U1VOAGb/Y2IA +Z+VifgAA 68+Zv9O44ho" I.leftM
Substitution2: "+U1VOAGb/Y2IA +Z+VifgAA 67+Zv9O44ho" I.leftL
Substitution2: "+U1VOAGb/Y2IA +Z+VifgAA 66+Zv9O44ho" I.rightS
Substitution2: "+U1VOAGb/Y2IA +Z+VifgAA 65+Zv9O44ho" I.rightM
Substitution2: "+U1VOAGb/Y2IA +Z+VifgAA 64+Zv9O44ho" I.rightS
Substitution2: "+U1VOAGb/Y2IA +Z+VifgAA 63+Zv9O44ho" I.rightM
Substitution2: "+U1VOAGb/Y2IA +Z+VifgAA 62+Zv9O44ho" I.rightL
Substitution2: "+U1VOAGb/Y2IA +Z+VifgAA 61+Zv9O44ho" I.leftS
Substitution2: "+U1VOAGb/Y2IA +Z+VifgAA 60+Zv9O44ho" I.leftM
Substitution2: "+U1VOAGb/Y2IA +Z+VifgAA 59+Zv9O44ho" I.leftL
EndChar

StartChar: I.leftL
Encoding: 65590 -1 113
Width: 600
GlyphClass: 1
Flags: W
LayerCount: 2
Fore
SplineSet
54 0 m 1
 54 78 l 1
 213 78 l 1
 213 622 l 1
 56 622 l 1
 56 700 l 1
 456 700 l 1
 456 622 l 1
 300 622 l 1
 300 78 l 1
 458 78 l 1
 458 0 l 1
 54 0 l 1
EndSplineSet
Validated: 1
EndChar

StartChar: I.leftM
Encoding: 65591 -1 114
Width: 600
GlyphClass: 1
Flags: W
LayerCount: 2
Fore
SplineSet
68 0 m 1
 68 78 l 1
 227 78 l 1
 227 622 l 1
 70 622 l 1
 70 700 l 1
 470 700 l 1
 470 622 l 1
 314 622 l 1
 314 78 l 1
 472 78 l 1
 472 0 l 1
 68 0 l 1
EndSplineSet
Validated: 1
EndChar

StartChar: I.leftS
Encoding: 65592 -1 115
Width: 600
GlyphClass: 1
Flags: W
LayerCount: 2
Fore
SplineSet
80 0 m 1
 80 78 l 1
 239 78 l 1
 239 622 l 1
 82 622 l 1
 82 700 l 1
 482 700 l 1
 482 622 l 1
 326 622 l 1
 326 78 l 1
 484 78 l 1
 484 0 l 1
 80 0 l 1
EndSplineSet
Validated: 1
EndChar

StartChar: I.rightL
Encoding: 65593 -1 116
Width: 600
GlyphClass: 1
Flags: W
LayerCount: 2
Fore
SplineSet
142 0 m 1
 142 78 l 1
 301 78 l 1
 301 622 l 1
 144 622 l 1
 144 700 l 1
 544 700 l 1
 544 622 l 1
 388 622 l 1
 388 78 l 1
 546 78 l 1
 546 0 l 1
 142 0 l 1
EndSplineSet
Validated: 1
EndChar

StartChar: I.rightM
Encoding: 65594 -1 117
Width: 600
GlyphClass: 1
Flags: W
LayerCount: 2
Fore
SplineSet
128 0 m 1
 128 78 l 1
 287 78 l 1
 287 622 l 1
 130 622 l 1
 130 700 l 1
 530 700 l 1
 530 622 l 1
 374 622 l 1
 374 78 l 1
 532 78 l 1
 532 0 l 1
 128 0 l 1
EndSplineSet
Validated: 1
EndChar

StartChar: I.rightS
Encoding: 65595 -1 118
Width: 600
GlyphClass: 1
Flags: W
LayerCount: 2
Fore
SplineSet
116 0 m 1
 116 78 l 1
 275 78 l 1
 275 622 l 1
 118 622 l 1
 118 700 l 1
 518 700 l 1
 518 622 l 1
 362 622 l 1
 362 78 l 1
 520 78 l 1
 520 0 l 1
 116 0 l 1
EndSplineSet
Validated: 1
EndChar

StartChar: IJ
Encoding: 306 306 119
Width: 600
GlyphClass: 1
Flags: W
LayerCount: 2
Fore
SplineSet
80 278 m 1
 80 700 l 1
 167 700 l 1
 167 278 l 1
 80 278 l 1
81 178 m 1
 162 178 l 1
 166 113 222 68 299 68 c 0
 379 68 433 117 433 188 c 2
 433 622 l 1
 257 622 l 1
 257 700 l 1
 520 700 l 1
 520 187 l 2
 520 73 428 -10 300 -10 c 0
 176 -10 83 69 81 178 c 1
EndSplineSet
Validated: 1
EndChar

StartChar: Iacute
Encoding: 205 205 120
Width: 600
GlyphClass: 1
Flags: W
LayerCount: 2
Fore
SplineSet
98 0 m 1
 98 78 l 1
 257 78 l 1
 257 622 l 1
 100 622 l 1
 100 700 l 1
 500 700 l 1
 500 622 l 1
 344 622 l 1
 344 78 l 1
 502 78 l 1
 502 0 l 1
 98 0 l 1
434 977 m 1
 318 792 l 1
 245 792 l 1
 323 977 l 1
 434 977 l 1
EndSplineSet
Validated: 1
EndChar

StartChar: Ibreve
Encoding: 300 300 121
Width: 600
GlyphClass: 1
Flags: W
LayerCount: 2
Fore
SplineSet
98 0 m 1
 98 78 l 1
 257 78 l 1
 257 622 l 1
 100 622 l 1
 100 700 l 1
 500 700 l 1
 500 622 l 1
 344 622 l 1
 344 78 l 1
 502 78 l 1
 502 0 l 1
 98 0 l 1
235 923 m 1
 239 879 265 850 300 850 c 0
 335 850 361 879 365 923 c 1
 434 923 l 1
 434 843 378 786 300 786 c 0
 222 786 166 843 166 923 c 1
 235 923 l 1
EndSplineSet
Validated: 1
EndChar

StartChar: Icircumflex
Encoding: 206 206 122
Width: 600
GlyphClass: 1
Flags: W
LayerCount: 2
Fore
SplineSet
98 0 m 1
 98 78 l 1
 257 78 l 1
 257 622 l 1
 100 622 l 1
 100 700 l 1
 500 700 l 1
 500 622 l 1
 344 622 l 1
 344 78 l 1
 502 78 l 1
 502 0 l 1
 98 0 l 1
145 785 m 1
 256 961 l 1
 344 961 l 1
 455 785 l 1
 382 785 l 1
 300 889 l 1
 218 785 l 1
 145 785 l 1
EndSplineSet
Validated: 1
EndChar

StartChar: Idieresis
Encoding: 207 207 123
Width: 600
GlyphClass: 1
Flags: W
LayerCount: 2
Fore
SplineSet
98 0 m 1
 98 78 l 1
 257 78 l 1
 257 622 l 1
 100 622 l 1
 100 700 l 1
 500 700 l 1
 500 622 l 1
 344 622 l 1
 344 78 l 1
 502 78 l 1
 502 0 l 1
 98 0 l 1
128 875 m 0
 128 913 158 943 196 943 c 0
 235 943 264 913 264 875 c 0
 264 837 235 806 196 806 c 0
 158 806 128 837 128 875 c 0
336 875 m 0
 336 913 366 943 404 943 c 0
 443 943 472 913 472 875 c 0
 472 837 443 806 404 806 c 0
 366 806 336 837 336 875 c 0
EndSplineSet
Validated: 1
Substitution2: "'cv03' +W1d7JlPYT1MA-03 +Z+VifgAA 2+Zv9O44ho" Idieresis.square
EndChar

StartChar: Idieresis.square
Encoding: 65596 -1 124
Width: 600
GlyphClass: 1
Flags: W
LayerCount: 2
Fore
SplineSet
98 0 m 1
 98 78 l 1
 257 78 l 1
 257 622 l 1
 100 622 l 1
 100 700 l 1
 500 700 l 1
 500 622 l 1
 344 622 l 1
 344 78 l 1
 502 78 l 1
 502 0 l 1
 98 0 l 1
135 810 m 1
 135 931 l 1
 257 931 l 1
 257 810 l 1
 135 810 l 1
343 810 m 1
 343 931 l 1
 465 931 l 1
 465 810 l 1
 343 810 l 1
EndSplineSet
Validated: 1
EndChar

StartChar: Idotaccent
Encoding: 304 304 125
Width: 600
GlyphClass: 1
Flags: W
LayerCount: 2
Fore
SplineSet
98 0 m 1
 98 78 l 1
 257 78 l 1
 257 622 l 1
 100 622 l 1
 100 700 l 1
 500 700 l 1
 500 622 l 1
 344 622 l 1
 344 78 l 1
 502 78 l 1
 502 0 l 1
 98 0 l 1
226 874 m 0
 226 915 260 947 300 947 c 0
 341 947 374 915 374 874 c 0
 374 833 341 800 300 800 c 0
 260 800 226 833 226 874 c 0
EndSplineSet
Validated: 1
Substitution2: "'cv03' +W1d7JlPYT1MA-03 +Z+VifgAA 2+Zv9O44ho" Idotaccent.square
EndChar

StartChar: Idotaccent.square
Encoding: 65597 -1 126
Width: 600
GlyphClass: 1
Flags: W
LayerCount: 2
Fore
SplineSet
98 0 m 1
 98 78 l 1
 257 78 l 1
 257 622 l 1
 100 622 l 1
 100 700 l 1
 500 700 l 1
 500 622 l 1
 344 622 l 1
 344 78 l 1
 502 78 l 1
 502 0 l 1
 98 0 l 1
237 814 m 1
 237 941 l 1
 363 941 l 1
 363 814 l 1
 237 814 l 1
EndSplineSet
Validated: 1
EndChar

StartChar: Igrave
Encoding: 204 204 127
Width: 600
GlyphClass: 1
Flags: W
LayerCount: 2
Fore
SplineSet
98 0 m 1
 98 78 l 1
 257 78 l 1
 257 622 l 1
 100 622 l 1
 100 700 l 1
 500 700 l 1
 500 622 l 1
 344 622 l 1
 344 78 l 1
 502 78 l 1
 502 0 l 1
 98 0 l 1
355 792 m 1
 282 792 l 1
 166 977 l 1
 277 977 l 1
 355 792 l 1
EndSplineSet
Validated: 1
EndChar

StartChar: Imacron
Encoding: 298 298 128
Width: 600
GlyphClass: 1
Flags: W
LayerCount: 2
Fore
SplineSet
98 0 m 1
 98 78 l 1
 257 78 l 1
 257 622 l 1
 100 622 l 1
 100 700 l 1
 500 700 l 1
 500 622 l 1
 344 622 l 1
 344 78 l 1
 502 78 l 1
 502 0 l 1
 98 0 l 1
146 830 m 1
 146 900 l 1
 454 900 l 1
 454 830 l 1
 146 830 l 1
EndSplineSet
Validated: 1
EndChar

StartChar: Iogonek
Encoding: 302 302 129
Width: 600
GlyphClass: 1
Flags: W
LayerCount: 2
Fore
SplineSet
98 0 m 1
 98 78 l 1
 257 78 l 1
 257 622 l 1
 100 622 l 1
 100 700 l 1
 500 700 l 1
 500 622 l 1
 344 622 l 1
 344 78 l 1
 502 78 l 1
 502 0 l 1
 442 -23 412 -52 412 -87 c 0
 412 -120 438 -142 473 -142 c 0
 480 -142 490 -141 499 -139 c 1
 499 -200 l 1
 488 -203 474 -205 458 -205 c 0
 387 -205 339 -162 339 -101 c 0
 339 -62 358 -28 398 0 c 1
 98 0 l 1
EndSplineSet
Validated: 1
EndChar

StartChar: Iota
Encoding: 921 921 130
Width: 600
GlyphClass: 1
Flags: W
LayerCount: 2
Fore
SplineSet
98 0 m 1
 98 78 l 1
 257 78 l 1
 257 622 l 1
 100 622 l 1
 100 700 l 1
 500 700 l 1
 500 622 l 1
 344 622 l 1
 344 78 l 1
 502 78 l 1
 502 0 l 1
 98 0 l 1
EndSplineSet
Validated: 1
EndChar

StartChar: Iotadieresis
Encoding: 938 938 131
Width: 600
GlyphClass: 1
Flags: W
LayerCount: 2
Fore
SplineSet
98 0 m 1
 98 78 l 1
 257 78 l 1
 257 622 l 1
 100 622 l 1
 100 700 l 1
 500 700 l 1
 500 622 l 1
 344 622 l 1
 344 78 l 1
 502 78 l 1
 502 0 l 1
 98 0 l 1
128 875 m 0
 128 913 158 943 196 943 c 0
 235 943 264 913 264 875 c 0
 264 837 235 806 196 806 c 0
 158 806 128 837 128 875 c 0
336 875 m 0
 336 913 366 943 404 943 c 0
 443 943 472 913 472 875 c 0
 472 837 443 806 404 806 c 0
 366 806 336 837 336 875 c 0
EndSplineSet
Validated: 1
EndChar

StartChar: Iotatonos
Encoding: 906 906 132
Width: 600
GlyphClass: 1
Flags: W
LayerCount: 2
Fore
SplineSet
98 0 m 1
 98 78 l 1
 257 78 l 1
 257 622 l 1
 100 622 l 1
 100 700 l 1
 500 700 l 1
 500 622 l 1
 344 622 l 1
 344 78 l 1
 502 78 l 1
 502 0 l 1
 98 0 l 1
86 774 m 1
 20 572 l 1
 -47 572 l 1
 -13 774 l 1
 86 774 l 1
EndSplineSet
Validated: 1
EndChar

StartChar: Itilde
Encoding: 296 296 133
Width: 600
GlyphClass: 1
Flags: W
LayerCount: 2
Fore
SplineSet
98 0 m 1
 98 78 l 1
 257 78 l 1
 257 622 l 1
 100 622 l 1
 100 700 l 1
 500 700 l 1
 500 622 l 1
 344 622 l 1
 344 78 l 1
 502 78 l 1
 502 0 l 1
 98 0 l 1
124 824 m 1
 124 851 l 2
 124 923 164 968 228 968 c 0
 320 968 330 877 373 877 c 0
 392 877 402 895 403 933 c 2
 404 954 l 1
 476 954 l 1
 476 927 l 2
 476 855 436 810 372 810 c 0
 280 810 270 901 228 901 c 0
 209 901 198 883 197 845 c 2
 196 824 l 1
 124 824 l 1
EndSplineSet
Validated: 1
EndChar

StartChar: J
Encoding: 74 74 134
Width: 600
GlyphClass: 1
Flags: W
LayerCount: 2
Fore
SplineSet
58 178 m 1
 139 178 l 1
 143 113 199 68 276 68 c 0
 356 68 410 117 410 188 c 2
 410 622 l 1
 137 622 l 1
 137 700 l 1
 497 700 l 1
 497 187 l 2
 497 73 405 -10 277 -10 c 0
 153 -10 60 69 58 178 c 1
EndSplineSet
Validated: 1
Substitution2: "+U1VOAGb/Y2IA +Z+VifgAA 72+Zv9O44ho" J.rightS
Substitution2: "+U1VOAGb/Y2IA +Z+VifgAA 71+Zv9O44ho" J.rightM
Substitution2: "+U1VOAGb/Y2IA +Z+VifgAA 70+Zv9O44ho" J.rightL
Substitution2: "+U1VOAGb/Y2IA +Z+VifgAA 69+Zv9O44ho" J.leftS
Substitution2: "+U1VOAGb/Y2IA +Z+VifgAA 68+Zv9O44ho" J.leftM
Substitution2: "+U1VOAGb/Y2IA +Z+VifgAA 67+Zv9O44ho" J.leftL
Substitution2: "+U1VOAGb/Y2IA +Z+VifgAA 66+Zv9O44ho" J.rightS
Substitution2: "+U1VOAGb/Y2IA +Z+VifgAA 65+Zv9O44ho" J.rightM
Substitution2: "+U1VOAGb/Y2IA +Z+VifgAA 64+Zv9O44ho" J.rightS
Substitution2: "+U1VOAGb/Y2IA +Z+VifgAA 63+Zv9O44ho" J.rightM
Substitution2: "+U1VOAGb/Y2IA +Z+VifgAA 62+Zv9O44ho" J.rightL
Substitution2: "+U1VOAGb/Y2IA +Z+VifgAA 61+Zv9O44ho" J.leftS
Substitution2: "+U1VOAGb/Y2IA +Z+VifgAA 60+Zv9O44ho" J.leftM
Substitution2: "+U1VOAGb/Y2IA +Z+VifgAA 59+Zv9O44ho" J.leftL
EndChar

StartChar: J.leftL
Encoding: 65598 -1 135
Width: 600
GlyphClass: 1
Flags: W
LayerCount: 2
Fore
SplineSet
14 178 m 1
 95 178 l 1
 99 113 155 68 232 68 c 0
 312 68 366 117 366 188 c 2
 366 622 l 1
 93 622 l 1
 93 700 l 1
 453 700 l 1
 453 187 l 2
 453 73 361 -10 233 -10 c 0
 109 -10 16 69 14 178 c 1
EndSplineSet
Validated: 1
EndChar

StartChar: J.leftM
Encoding: 65599 -1 136
Width: 600
GlyphClass: 1
Flags: W
LayerCount: 2
Fore
SplineSet
28 178 m 1
 109 178 l 1
 113 113 169 68 246 68 c 0
 326 68 380 117 380 188 c 2
 380 622 l 1
 107 622 l 1
 107 700 l 1
 467 700 l 1
 467 187 l 2
 467 73 375 -10 247 -10 c 0
 123 -10 30 69 28 178 c 1
EndSplineSet
Validated: 1
EndChar

StartChar: J.leftS
Encoding: 65600 -1 137
Width: 600
GlyphClass: 1
Flags: W
LayerCount: 2
Fore
SplineSet
40 178 m 1
 121 178 l 1
 125 113 181 68 258 68 c 0
 338 68 392 117 392 188 c 2
 392 622 l 1
 119 622 l 1
 119 700 l 1
 479 700 l 1
 479 187 l 2
 479 73 387 -10 259 -10 c 0
 135 -10 42 69 40 178 c 1
EndSplineSet
Validated: 1
EndChar

StartChar: J.rightL
Encoding: 65601 -1 138
Width: 600
GlyphClass: 1
Flags: W
LayerCount: 2
Fore
SplineSet
102 178 m 1
 183 178 l 1
 187 113 243 68 320 68 c 0
 400 68 454 117 454 188 c 2
 454 622 l 1
 181 622 l 1
 181 700 l 1
 541 700 l 1
 541 187 l 2
 541 73 449 -10 321 -10 c 0
 197 -10 104 69 102 178 c 1
EndSplineSet
Validated: 1
EndChar

StartChar: J.rightM
Encoding: 65602 -1 139
Width: 600
GlyphClass: 1
Flags: W
LayerCount: 2
Fore
SplineSet
88 178 m 1
 169 178 l 1
 173 113 229 68 306 68 c 0
 386 68 440 117 440 188 c 2
 440 622 l 1
 167 622 l 1
 167 700 l 1
 527 700 l 1
 527 187 l 2
 527 73 435 -10 307 -10 c 0
 183 -10 90 69 88 178 c 1
EndSplineSet
Validated: 1
EndChar

StartChar: J.rightS
Encoding: 65603 -1 140
Width: 600
GlyphClass: 1
Flags: W
LayerCount: 2
Fore
SplineSet
76 178 m 1
 157 178 l 1
 161 113 217 68 294 68 c 0
 374 68 428 117 428 188 c 2
 428 622 l 1
 155 622 l 1
 155 700 l 1
 515 700 l 1
 515 187 l 2
 515 73 423 -10 295 -10 c 0
 171 -10 78 69 76 178 c 1
EndSplineSet
Validated: 1
EndChar

StartChar: Jcircumflex
Encoding: 308 308 141
Width: 600
GlyphClass: 1
Flags: W
LayerCount: 2
Fore
SplineSet
58 178 m 1
 139 178 l 1
 143 113 199 68 276 68 c 0
 356 68 410 117 410 188 c 2
 410 622 l 1
 137 622 l 1
 137 700 l 1
 497 700 l 1
 497 187 l 2
 497 73 405 -10 277 -10 c 0
 153 -10 60 69 58 178 c 1
178 785 m 1
 289 961 l 1
 377 961 l 1
 488 785 l 1
 415 785 l 1
 333 889 l 1
 251 785 l 1
 178 785 l 1
EndSplineSet
Validated: 1
EndChar

StartChar: K
Encoding: 75 75 142
Width: 600
GlyphClass: 1
Flags: W
LayerCount: 2
Fore
SplineSet
159 700 m 1
 159 345 l 1
 474 700 l 1
 581 700 l 1
 322 406 l 1
 594 0 l 1
 493 0 l 1
 264 340 l 1
 159 222 l 1
 159 0 l 1
 72 0 l 1
 72 700 l 1
 159 700 l 1
EndSplineSet
Validated: 1
Substitution2: "+U1VOAGb/Y2IA +Z+VifgAA 72+Zv9O44ho" K.rightS
Substitution2: "+U1VOAGb/Y2IA +Z+VifgAA 71+Zv9O44ho" K.rightM
Substitution2: "+U1VOAGb/Y2IA +Z+VifgAA 70+Zv9O44ho" K.rightL
Substitution2: "+U1VOAGb/Y2IA +Z+VifgAA 69+Zv9O44ho" K.leftS
Substitution2: "+U1VOAGb/Y2IA +Z+VifgAA 68+Zv9O44ho" K.leftM
Substitution2: "+U1VOAGb/Y2IA +Z+VifgAA 67+Zv9O44ho" K.leftL
Substitution2: "+U1VOAGb/Y2IA +Z+VifgAA 66+Zv9O44ho" K.rightS
Substitution2: "+U1VOAGb/Y2IA +Z+VifgAA 65+Zv9O44ho" K.rightM
Substitution2: "+U1VOAGb/Y2IA +Z+VifgAA 64+Zv9O44ho" K.rightS
Substitution2: "+U1VOAGb/Y2IA +Z+VifgAA 63+Zv9O44ho" K.rightM
Substitution2: "+U1VOAGb/Y2IA +Z+VifgAA 62+Zv9O44ho" K.rightL
Substitution2: "+U1VOAGb/Y2IA +Z+VifgAA 61+Zv9O44ho" K.leftS
Substitution2: "+U1VOAGb/Y2IA +Z+VifgAA 60+Zv9O44ho" K.leftM
Substitution2: "+U1VOAGb/Y2IA +Z+VifgAA 59+Zv9O44ho" K.leftL
EndChar

StartChar: K.leftL
Encoding: 65604 -1 143
Width: 600
GlyphClass: 1
Flags: W
LayerCount: 2
Fore
SplineSet
115 700 m 1
 115 345 l 1
 430 700 l 1
 537 700 l 1
 278 406 l 1
 550 0 l 1
 449 0 l 1
 220 340 l 1
 115 222 l 1
 115 0 l 1
 28 0 l 1
 28 700 l 1
 115 700 l 1
EndSplineSet
Validated: 1
EndChar

StartChar: K.leftM
Encoding: 65605 -1 144
Width: 600
GlyphClass: 1
Flags: W
LayerCount: 2
Fore
SplineSet
129 700 m 1
 129 345 l 1
 444 700 l 1
 551 700 l 1
 292 406 l 1
 564 0 l 1
 463 0 l 1
 234 340 l 1
 129 222 l 1
 129 0 l 1
 42 0 l 1
 42 700 l 1
 129 700 l 1
EndSplineSet
Validated: 1
EndChar

StartChar: K.leftS
Encoding: 65606 -1 145
Width: 600
GlyphClass: 1
Flags: W
LayerCount: 2
Fore
SplineSet
141 700 m 1
 141 345 l 1
 456 700 l 1
 563 700 l 1
 304 406 l 1
 576 0 l 1
 475 0 l 1
 246 340 l 1
 141 222 l 1
 141 0 l 1
 54 0 l 1
 54 700 l 1
 141 700 l 1
EndSplineSet
Validated: 1
EndChar

StartChar: K.rightL
Encoding: 65607 -1 146
Width: 600
GlyphClass: 1
Flags: W
LayerCount: 2
Fore
SplineSet
203 700 m 1
 203 345 l 1
 518 700 l 1
 625 700 l 1
 366 406 l 1
 638 0 l 1
 537 0 l 1
 308 340 l 1
 203 222 l 1
 203 0 l 1
 116 0 l 1
 116 700 l 1
 203 700 l 1
EndSplineSet
Validated: 1
EndChar

StartChar: K.rightM
Encoding: 65608 -1 147
Width: 600
GlyphClass: 1
Flags: W
LayerCount: 2
Fore
SplineSet
189 700 m 1
 189 345 l 1
 504 700 l 1
 611 700 l 1
 352 406 l 1
 624 0 l 1
 523 0 l 1
 294 340 l 1
 189 222 l 1
 189 0 l 1
 102 0 l 1
 102 700 l 1
 189 700 l 1
EndSplineSet
Validated: 1
EndChar

StartChar: K.rightS
Encoding: 65609 -1 148
Width: 600
GlyphClass: 1
Flags: W
LayerCount: 2
Fore
SplineSet
177 700 m 1
 177 345 l 1
 492 700 l 1
 599 700 l 1
 340 406 l 1
 612 0 l 1
 511 0 l 1
 282 340 l 1
 177 222 l 1
 177 0 l 1
 90 0 l 1
 90 700 l 1
 177 700 l 1
EndSplineSet
Validated: 1
EndChar

StartChar: Kappa
Encoding: 922 922 149
Width: 600
GlyphClass: 1
Flags: W
LayerCount: 2
Fore
SplineSet
159 700 m 1
 159 345 l 1
 474 700 l 1
 581 700 l 1
 322 406 l 1
 594 0 l 1
 493 0 l 1
 264 340 l 1
 159 222 l 1
 159 0 l 1
 72 0 l 1
 72 700 l 1
 159 700 l 1
EndSplineSet
Validated: 1
EndChar

StartChar: uni0136
Encoding: 310 310 150
Width: 600
GlyphClass: 1
Flags: W
LayerCount: 2
Fore
SplineSet
159 700 m 1
 159 345 l 1
 474 700 l 1
 581 700 l 1
 322 406 l 1
 594 0 l 1
 493 0 l 1
 264 340 l 1
 159 222 l 1
 159 0 l 1
 72 0 l 1
 72 700 l 1
 159 700 l 1
372 -73 m 1
 257 -258 l 1
 184 -258 l 1
 261 -73 l 1
 372 -73 l 1
EndSplineSet
Validated: 1
EndChar

StartChar: L
Encoding: 76 76 151
Width: 600
GlyphClass: 1
Flags: W
LayerCount: 2
Fore
SplineSet
124 0 m 1
 124 700 l 1
 211 700 l 1
 211 78 l 1
 530 78 l 1
 530 0 l 1
 124 0 l 1
EndSplineSet
Validated: 1
Substitution2: "+U1VOAGb/Y2IA +Z+VifgAA 72+Zv9O44ho" L.rightS
Substitution2: "+U1VOAGb/Y2IA +Z+VifgAA 71+Zv9O44ho" L.rightM
Substitution2: "+U1VOAGb/Y2IA +Z+VifgAA 70+Zv9O44ho" L.rightL
Substitution2: "+U1VOAGb/Y2IA +Z+VifgAA 69+Zv9O44ho" L.leftS
Substitution2: "+U1VOAGb/Y2IA +Z+VifgAA 68+Zv9O44ho" L.leftM
Substitution2: "+U1VOAGb/Y2IA +Z+VifgAA 67+Zv9O44ho" L.leftL
Substitution2: "+U1VOAGb/Y2IA +Z+VifgAA 66+Zv9O44ho" L.rightS
Substitution2: "+U1VOAGb/Y2IA +Z+VifgAA 65+Zv9O44ho" L.rightM
Substitution2: "+U1VOAGb/Y2IA +Z+VifgAA 64+Zv9O44ho" L.rightS
Substitution2: "+U1VOAGb/Y2IA +Z+VifgAA 63+Zv9O44ho" L.rightM
Substitution2: "+U1VOAGb/Y2IA +Z+VifgAA 62+Zv9O44ho" L.rightL
Substitution2: "+U1VOAGb/Y2IA +Z+VifgAA 61+Zv9O44ho" L.leftS
Substitution2: "+U1VOAGb/Y2IA +Z+VifgAA 60+Zv9O44ho" L.leftM
Substitution2: "+U1VOAGb/Y2IA +Z+VifgAA 59+Zv9O44ho" L.leftL
EndChar

StartChar: L.leftL
Encoding: 65610 -1 152
Width: 600
GlyphClass: 1
Flags: W
LayerCount: 2
Fore
SplineSet
80 0 m 1
 80 700 l 1
 167 700 l 1
 167 78 l 1
 486 78 l 1
 486 0 l 1
 80 0 l 1
EndSplineSet
Validated: 1
EndChar

StartChar: L.leftM
Encoding: 65611 -1 153
Width: 600
GlyphClass: 1
Flags: W
LayerCount: 2
Fore
SplineSet
94 0 m 1
 94 700 l 1
 181 700 l 1
 181 78 l 1
 500 78 l 1
 500 0 l 1
 94 0 l 1
EndSplineSet
Validated: 1
EndChar

StartChar: L.leftS
Encoding: 65612 -1 154
Width: 600
GlyphClass: 1
Flags: W
LayerCount: 2
Fore
SplineSet
106 0 m 1
 106 700 l 1
 193 700 l 1
 193 78 l 1
 512 78 l 1
 512 0 l 1
 106 0 l 1
EndSplineSet
Validated: 1
EndChar

StartChar: L.rightL
Encoding: 65613 -1 155
Width: 600
GlyphClass: 1
Flags: W
LayerCount: 2
Fore
SplineSet
168 0 m 1
 168 700 l 1
 255 700 l 1
 255 78 l 1
 574 78 l 1
 574 0 l 1
 168 0 l 1
EndSplineSet
Validated: 1
EndChar

StartChar: L.rightM
Encoding: 65614 -1 156
Width: 600
GlyphClass: 1
Flags: W
LayerCount: 2
Fore
SplineSet
154 0 m 1
 154 700 l 1
 241 700 l 1
 241 78 l 1
 560 78 l 1
 560 0 l 1
 154 0 l 1
EndSplineSet
Validated: 1
EndChar

StartChar: L.rightS
Encoding: 65615 -1 157
Width: 600
GlyphClass: 1
Flags: W
LayerCount: 2
Fore
SplineSet
136 0 m 1
 136 700 l 1
 223 700 l 1
 223 78 l 1
 542 78 l 1
 542 0 l 1
 136 0 l 1
EndSplineSet
Validated: 1
EndChar

StartChar: Lacute
Encoding: 313 313 158
Width: 600
GlyphClass: 1
Flags: W
LayerCount: 2
Fore
SplineSet
124 0 m 1
 124 700 l 1
 211 700 l 1
 211 78 l 1
 530 78 l 1
 530 0 l 1
 124 0 l 1
304 977 m 1
 188 792 l 1
 115 792 l 1
 193 977 l 1
 304 977 l 1
EndSplineSet
Validated: 1
EndChar

StartChar: Lambda
Encoding: 923 923 159
Width: 600
GlyphClass: 1
Flags: W
LayerCount: 2
Fore
SplineSet
358 700 m 1
 574 0 l 1
 485 0 l 1
 301 603 l 1
 297 603 l 1
 113 0 l 1
 26 0 l 1
 242 700 l 1
 358 700 l 1
EndSplineSet
Validated: 1
EndChar

StartChar: Lcaron
Encoding: 317 317 160
Width: 600
GlyphClass: 1
Flags: W
LayerCount: 2
Fore
SplineSet
124 0 m 1
 124 700 l 1
 211 700 l 1
 211 78 l 1
 530 78 l 1
 530 0 l 1
 124 0 l 1
270 528 m 1
 344 529 398 581 398 649 c 0
 398 653 397 657 397 661 c 1
 388 653 375 648 362 648 c 0
 328 648 303 677 303 714 c 0
 303 755 335 785 375 785 c 0
 429 785 466 732 466 659 c 0
 466 548 382 466 270 467 c 1
 270 528 l 1
EndSplineSet
Validated: 33
EndChar

StartChar: uni013B
Encoding: 315 315 161
Width: 600
GlyphClass: 1
Flags: W
LayerCount: 2
Fore
SplineSet
124 0 m 1
 124 700 l 1
 211 700 l 1
 211 78 l 1
 530 78 l 1
 530 0 l 1
 124 0 l 1
379 -73 m 1
 264 -258 l 1
 191 -258 l 1
 268 -73 l 1
 379 -73 l 1
EndSplineSet
Validated: 1
EndChar

StartChar: Ldot
Encoding: 319 319 162
Width: 600
GlyphClass: 1
Flags: W
LayerCount: 2
Fore
SplineSet
124 0 m 1
 124 700 l 1
 211 700 l 1
 211 78 l 1
 530 78 l 1
 530 0 l 1
 124 0 l 1
387 379 m 0
 387 421 422 456 464 456 c 0
 507 456 541 421 541 379 c 0
 541 336 507 302 464 302 c 0
 422 302 387 336 387 379 c 0
EndSplineSet
Validated: 1
Substitution2: "'cv03' +W1d7JlPYT1MA-03 +Z+VifgAA 2+Zv9O44ho" Ldot.square
EndChar

StartChar: Ldot.square
Encoding: 65616 -1 163
Width: 600
GlyphClass: 1
Flags: W
LayerCount: 2
Fore
SplineSet
124 0 m 1
 124 700 l 1
 211 700 l 1
 211 78 l 1
 530 78 l 1
 530 0 l 1
 124 0 l 1
397 285 m 1
 397 419 l 1
 531 419 l 1
 531 285 l 1
 397 285 l 1
EndSplineSet
Validated: 1
EndChar

StartChar: Lslash
Encoding: 321 321 164
Width: 600
GlyphClass: 1
Flags: W
LayerCount: 2
Fore
SplineSet
124 0 m 1
 124 306 l 1
 26 254 l 1
 26 334 l 1
 124 386 l 1
 124 700 l 1
 211 700 l 1
 211 433 l 1
 408 537 l 1
 408 457 l 1
 211 352 l 1
 211 78 l 1
 530 78 l 1
 530 0 l 1
 124 0 l 1
EndSplineSet
Validated: 1
EndChar

StartChar: M
Encoding: 77 77 165
Width: 600
GlyphClass: 1
Flags: W
LayerCount: 2
Fore
SplineSet
124 598 m 1
 124 0 l 1
 42 0 l 1
 42 700 l 1
 167 700 l 1
 298 257 l 1
 302 257 l 1
 433 700 l 1
 558 700 l 1
 558 0 l 1
 476 0 l 1
 476 598 l 1
 472 598 l 1
 339 152 l 1
 261 152 l 1
 128 598 l 1
 124 598 l 1
EndSplineSet
Validated: 1
Substitution2: "+U1VOAGb/Y2IA +Z+VifgAA 72+Zv9O44ho" M.rightS
Substitution2: "+U1VOAGb/Y2IA +Z+VifgAA 71+Zv9O44ho" M.rightM
Substitution2: "+U1VOAGb/Y2IA +Z+VifgAA 70+Zv9O44ho" M.rightL
Substitution2: "+U1VOAGb/Y2IA +Z+VifgAA 69+Zv9O44ho" M.leftS
Substitution2: "+U1VOAGb/Y2IA +Z+VifgAA 68+Zv9O44ho" M.leftM
Substitution2: "+U1VOAGb/Y2IA +Z+VifgAA 67+Zv9O44ho" M.leftL
Substitution2: "+U1VOAGb/Y2IA +Z+VifgAA 66+Zv9O44ho" M.rightS
Substitution2: "+U1VOAGb/Y2IA +Z+VifgAA 65+Zv9O44ho" M.rightM
Substitution2: "+U1VOAGb/Y2IA +Z+VifgAA 64+Zv9O44ho" M.rightS
Substitution2: "+U1VOAGb/Y2IA +Z+VifgAA 63+Zv9O44ho" M.rightM
Substitution2: "+U1VOAGb/Y2IA +Z+VifgAA 62+Zv9O44ho" M.rightL
Substitution2: "+U1VOAGb/Y2IA +Z+VifgAA 61+Zv9O44ho" M.leftS
Substitution2: "+U1VOAGb/Y2IA +Z+VifgAA 60+Zv9O44ho" M.leftM
Substitution2: "+U1VOAGb/Y2IA +Z+VifgAA 59+Zv9O44ho" M.leftL
EndChar

StartChar: M.leftL
Encoding: 65617 -1 166
Width: 600
GlyphClass: 1
Flags: W
LayerCount: 2
Fore
SplineSet
80 598 m 1
 80 0 l 1
 -2 0 l 1
 -2 700 l 1
 123 700 l 1
 254 257 l 1
 258 257 l 1
 389 700 l 1
 514 700 l 1
 514 0 l 1
 432 0 l 1
 432 598 l 1
 428 598 l 1
 295 152 l 1
 217 152 l 1
 84 598 l 1
 80 598 l 1
EndSplineSet
Validated: 1
EndChar

StartChar: M.leftM
Encoding: 65618 -1 167
Width: 600
GlyphClass: 1
Flags: W
LayerCount: 2
Fore
SplineSet
94 598 m 1
 94 0 l 1
 12 0 l 1
 12 700 l 1
 137 700 l 1
 268 257 l 1
 272 257 l 1
 403 700 l 1
 528 700 l 1
 528 0 l 1
 446 0 l 1
 446 598 l 1
 442 598 l 1
 309 152 l 1
 231 152 l 1
 98 598 l 1
 94 598 l 1
EndSplineSet
Validated: 1
EndChar

StartChar: M.leftS
Encoding: 65619 -1 168
Width: 600
GlyphClass: 1
Flags: W
LayerCount: 2
Fore
SplineSet
106 598 m 1
 106 0 l 1
 24 0 l 1
 24 700 l 1
 149 700 l 1
 280 257 l 1
 284 257 l 1
 415 700 l 1
 540 700 l 1
 540 0 l 1
 458 0 l 1
 458 598 l 1
 454 598 l 1
 321 152 l 1
 243 152 l 1
 110 598 l 1
 106 598 l 1
EndSplineSet
Validated: 1
EndChar

StartChar: M.rightL
Encoding: 65620 -1 169
Width: 600
GlyphClass: 1
Flags: W
LayerCount: 2
Fore
SplineSet
168 598 m 1
 168 0 l 1
 86 0 l 1
 86 700 l 1
 211 700 l 1
 342 257 l 1
 346 257 l 1
 477 700 l 1
 602 700 l 1
 602 0 l 1
 520 0 l 1
 520 598 l 1
 516 598 l 1
 383 152 l 1
 305 152 l 1
 172 598 l 1
 168 598 l 1
EndSplineSet
Validated: 1
EndChar

StartChar: M.rightM
Encoding: 65621 -1 170
Width: 600
GlyphClass: 1
Flags: W
LayerCount: 2
Fore
SplineSet
154 598 m 1
 154 0 l 1
 72 0 l 1
 72 700 l 1
 197 700 l 1
 328 257 l 1
 332 257 l 1
 463 700 l 1
 588 700 l 1
 588 0 l 1
 506 0 l 1
 506 598 l 1
 502 598 l 1
 369 152 l 1
 291 152 l 1
 158 598 l 1
 154 598 l 1
EndSplineSet
Validated: 1
EndChar

StartChar: M.rightS
Encoding: 65622 -1 171
Width: 600
GlyphClass: 1
Flags: W
LayerCount: 2
Fore
SplineSet
142 598 m 1
 142 0 l 1
 60 0 l 1
 60 700 l 1
 185 700 l 1
 316 257 l 1
 320 257 l 1
 451 700 l 1
 576 700 l 1
 576 0 l 1
 494 0 l 1
 494 598 l 1
 490 598 l 1
 357 152 l 1
 279 152 l 1
 146 598 l 1
 142 598 l 1
EndSplineSet
Validated: 1
EndChar

StartChar: Mu
Encoding: 924 924 172
Width: 600
GlyphClass: 1
Flags: W
LayerCount: 2
Fore
SplineSet
124 598 m 1
 124 0 l 1
 42 0 l 1
 42 700 l 1
 167 700 l 1
 298 257 l 1
 302 257 l 1
 433 700 l 1
 558 700 l 1
 558 0 l 1
 476 0 l 1
 476 598 l 1
 472 598 l 1
 339 152 l 1
 261 152 l 1
 128 598 l 1
 124 598 l 1
EndSplineSet
Validated: 1
EndChar

StartChar: N
Encoding: 78 78 173
Width: 600
GlyphClass: 1
Flags: W
LayerCount: 2
Fore
SplineSet
457 127 m 1
 457 700 l 1
 538 700 l 1
 538 0 l 1
 426 0 l 1
 147 610 l 1
 143 610 l 1
 143 0 l 1
 62 0 l 1
 62 700 l 1
 190 700 l 1
 453 127 l 1
 457 127 l 1
EndSplineSet
Validated: 1
Substitution2: "+U1VOAGb/Y2IA +Z+VifgAA 72+Zv9O44ho" N.rightS
Substitution2: "+U1VOAGb/Y2IA +Z+VifgAA 71+Zv9O44ho" N.rightM
Substitution2: "+U1VOAGb/Y2IA +Z+VifgAA 70+Zv9O44ho" N.rightL
Substitution2: "+U1VOAGb/Y2IA +Z+VifgAA 69+Zv9O44ho" N.leftS
Substitution2: "+U1VOAGb/Y2IA +Z+VifgAA 68+Zv9O44ho" N.leftM
Substitution2: "+U1VOAGb/Y2IA +Z+VifgAA 67+Zv9O44ho" N.leftL
Substitution2: "+U1VOAGb/Y2IA +Z+VifgAA 66+Zv9O44ho" N.rightS
Substitution2: "+U1VOAGb/Y2IA +Z+VifgAA 65+Zv9O44ho" N.rightM
Substitution2: "+U1VOAGb/Y2IA +Z+VifgAA 64+Zv9O44ho" N.rightS
Substitution2: "+U1VOAGb/Y2IA +Z+VifgAA 63+Zv9O44ho" N.rightM
Substitution2: "+U1VOAGb/Y2IA +Z+VifgAA 62+Zv9O44ho" N.rightL
Substitution2: "+U1VOAGb/Y2IA +Z+VifgAA 61+Zv9O44ho" N.leftS
Substitution2: "+U1VOAGb/Y2IA +Z+VifgAA 60+Zv9O44ho" N.leftM
Substitution2: "+U1VOAGb/Y2IA +Z+VifgAA 59+Zv9O44ho" N.leftL
EndChar

StartChar: N.leftL
Encoding: 65623 -1 174
Width: 600
GlyphClass: 1
Flags: W
LayerCount: 2
Fore
SplineSet
415 127 m 1
 415 700 l 1
 496 700 l 1
 496 0 l 1
 384 0 l 1
 105 610 l 1
 101 610 l 1
 101 0 l 1
 20 0 l 1
 20 700 l 1
 148 700 l 1
 411 127 l 1
 415 127 l 1
EndSplineSet
Validated: 1
EndChar

StartChar: N.leftM
Encoding: 65624 -1 175
Width: 600
GlyphClass: 1
Flags: W
LayerCount: 2
Fore
SplineSet
430 127 m 1
 430 700 l 1
 511 700 l 1
 511 0 l 1
 399 0 l 1
 120 610 l 1
 116 610 l 1
 116 0 l 1
 35 0 l 1
 35 700 l 1
 163 700 l 1
 426 127 l 1
 430 127 l 1
EndSplineSet
Validated: 1
EndChar

StartChar: N.leftS
Encoding: 65625 -1 176
Width: 600
GlyphClass: 1
Flags: W
LayerCount: 2
Fore
SplineSet
445 127 m 1
 445 700 l 1
 526 700 l 1
 526 0 l 1
 414 0 l 1
 135 610 l 1
 131 610 l 1
 131 0 l 1
 50 0 l 1
 50 700 l 1
 178 700 l 1
 441 127 l 1
 445 127 l 1
EndSplineSet
Validated: 1
EndChar

StartChar: N.rightL
Encoding: 65626 -1 177
Width: 600
GlyphClass: 1
Flags: W
LayerCount: 2
Fore
SplineSet
499 127 m 1
 499 700 l 1
 580 700 l 1
 580 0 l 1
 468 0 l 1
 189 610 l 1
 185 610 l 1
 185 0 l 1
 104 0 l 1
 104 700 l 1
 232 700 l 1
 495 127 l 1
 499 127 l 1
EndSplineSet
Validated: 1
EndChar

StartChar: N.rightM
Encoding: 65627 -1 178
Width: 600
GlyphClass: 1
Flags: W
LayerCount: 2
Fore
SplineSet
484 127 m 1
 484 700 l 1
 565 700 l 1
 565 0 l 1
 453 0 l 1
 174 610 l 1
 170 610 l 1
 170 0 l 1
 89 0 l 1
 89 700 l 1
 217 700 l 1
 480 127 l 1
 484 127 l 1
EndSplineSet
Validated: 1
EndChar

StartChar: N.rightS
Encoding: 65628 -1 179
Width: 600
GlyphClass: 1
Flags: W
LayerCount: 2
Fore
SplineSet
469 127 m 1
 469 700 l 1
 550 700 l 1
 550 0 l 1
 438 0 l 1
 159 610 l 1
 155 610 l 1
 155 0 l 1
 74 0 l 1
 74 700 l 1
 202 700 l 1
 465 127 l 1
 469 127 l 1
EndSplineSet
Validated: 1
EndChar

StartChar: Nacute
Encoding: 323 323 180
Width: 600
GlyphClass: 1
Flags: W
LayerCount: 2
Fore
SplineSet
457 127 m 1
 457 700 l 1
 538 700 l 1
 538 0 l 1
 426 0 l 1
 147 610 l 1
 143 610 l 1
 143 0 l 1
 62 0 l 1
 62 700 l 1
 190 700 l 1
 453 127 l 1
 457 127 l 1
434 977 m 1
 318 792 l 1
 245 792 l 1
 323 977 l 1
 434 977 l 1
EndSplineSet
Validated: 1
EndChar

StartChar: Ncaron
Encoding: 327 327 181
Width: 600
GlyphClass: 1
Flags: W
LayerCount: 2
Fore
SplineSet
457 127 m 1
 457 700 l 1
 538 700 l 1
 538 0 l 1
 426 0 l 1
 147 610 l 1
 143 610 l 1
 143 0 l 1
 62 0 l 1
 62 700 l 1
 190 700 l 1
 453 127 l 1
 457 127 l 1
256 785 m 1
 145 961 l 1
 218 961 l 1
 300 858 l 1
 382 961 l 1
 455 961 l 1
 344 785 l 1
 256 785 l 1
EndSplineSet
Validated: 1
EndChar

StartChar: uni0145
Encoding: 325 325 182
Width: 600
GlyphClass: 1
Flags: W
LayerCount: 2
Fore
SplineSet
457 127 m 1
 457 700 l 1
 538 700 l 1
 538 0 l 1
 426 0 l 1
 147 610 l 1
 143 610 l 1
 143 0 l 1
 62 0 l 1
 62 700 l 1
 190 700 l 1
 453 127 l 1
 457 127 l 1
347 -73 m 1
 232 -258 l 1
 159 -258 l 1
 236 -73 l 1
 347 -73 l 1
EndSplineSet
Validated: 1
EndChar

StartChar: Ntilde
Encoding: 209 209 183
Width: 600
GlyphClass: 1
Flags: W
LayerCount: 2
Fore
SplineSet
457 127 m 1
 457 700 l 1
 538 700 l 1
 538 0 l 1
 426 0 l 1
 147 610 l 1
 143 610 l 1
 143 0 l 1
 62 0 l 1
 62 700 l 1
 190 700 l 1
 453 127 l 1
 457 127 l 1
124 824 m 1
 124 851 l 2
 124 923 164 968 228 968 c 0
 320 968 330 877 373 877 c 0
 392 877 402 895 403 933 c 2
 404 954 l 1
 476 954 l 1
 476 927 l 2
 476 855 436 810 372 810 c 0
 280 810 270 901 228 901 c 0
 209 901 198 883 197 845 c 2
 196 824 l 1
 124 824 l 1
EndSplineSet
Validated: 1
EndChar

StartChar: Nu
Encoding: 925 925 184
Width: 600
GlyphClass: 1
Flags: W
LayerCount: 2
Fore
SplineSet
457 127 m 1
 457 700 l 1
 538 700 l 1
 538 0 l 1
 426 0 l 1
 147 610 l 1
 143 610 l 1
 143 0 l 1
 62 0 l 1
 62 700 l 1
 190 700 l 1
 453 127 l 1
 457 127 l 1
EndSplineSet
Validated: 1
EndChar

StartChar: O
Encoding: 79 79 185
Width: 600
GlyphClass: 1
Flags: W
LayerCount: 2
Fore
SplineSet
300 -10 m 0
 145 -10 36 138 36 350 c 0
 36 562 145 710 300 710 c 0
 455 710 564 562 564 350 c 0
 564 138 455 -10 300 -10 c 0
300 70 m 0
 407 70 477 180 477 350 c 0
 477 520 407 630 300 630 c 0
 193 630 123 520 123 350 c 0
 123 180 193 70 300 70 c 0
EndSplineSet
Validated: 1
Substitution2: "+U1VOAGb/Y2IA +Z+VifgAA 72+Zv9O44ho" O.rightS
Substitution2: "+U1VOAGb/Y2IA +Z+VifgAA 71+Zv9O44ho" O.rightM
Substitution2: "+U1VOAGb/Y2IA +Z+VifgAA 70+Zv9O44ho" O.rightL
Substitution2: "+U1VOAGb/Y2IA +Z+VifgAA 69+Zv9O44ho" O.leftS
Substitution2: "+U1VOAGb/Y2IA +Z+VifgAA 68+Zv9O44ho" O.leftM
Substitution2: "+U1VOAGb/Y2IA +Z+VifgAA 67+Zv9O44ho" O.leftL
Substitution2: "+U1VOAGb/Y2IA +Z+VifgAA 66+Zv9O44ho" O.rightS
Substitution2: "+U1VOAGb/Y2IA +Z+VifgAA 65+Zv9O44ho" O.rightM
Substitution2: "+U1VOAGb/Y2IA +Z+VifgAA 64+Zv9O44ho" O.rightS
Substitution2: "+U1VOAGb/Y2IA +Z+VifgAA 63+Zv9O44ho" O.rightM
Substitution2: "+U1VOAGb/Y2IA +Z+VifgAA 62+Zv9O44ho" O.rightL
Substitution2: "+U1VOAGb/Y2IA +Z+VifgAA 61+Zv9O44ho" O.leftS
Substitution2: "+U1VOAGb/Y2IA +Z+VifgAA 60+Zv9O44ho" O.leftM
Substitution2: "+U1VOAGb/Y2IA +Z+VifgAA 59+Zv9O44ho" O.leftL
EndChar

StartChar: O.leftL
Encoding: 65629 -1 186
Width: 600
GlyphClass: 1
Flags: W
LayerCount: 2
Fore
SplineSet
256 -10 m 0
 101 -10 -8 138 -8 350 c 0
 -8 562 101 710 256 710 c 0
 411 710 520 562 520 350 c 0
 520 138 411 -10 256 -10 c 0
256 70 m 0
 363 70 433 180 433 350 c 0
 433 520 363 630 256 630 c 0
 149 630 79 520 79 350 c 0
 79 180 149 70 256 70 c 0
EndSplineSet
Validated: 1
EndChar

StartChar: O.leftM
Encoding: 65630 -1 187
Width: 600
GlyphClass: 1
Flags: W
LayerCount: 2
Fore
SplineSet
270 -10 m 0
 115 -10 6 138 6 350 c 0
 6 562 115 710 270 710 c 0
 425 710 534 562 534 350 c 0
 534 138 425 -10 270 -10 c 0
270 70 m 0
 377 70 447 180 447 350 c 0
 447 520 377 630 270 630 c 0
 163 630 93 520 93 350 c 0
 93 180 163 70 270 70 c 0
EndSplineSet
Validated: 1
EndChar

StartChar: O.leftS
Encoding: 65631 -1 188
Width: 600
GlyphClass: 1
Flags: W
LayerCount: 2
Fore
SplineSet
282 -10 m 0
 127 -10 18 138 18 350 c 0
 18 562 127 710 282 710 c 0
 437 710 546 562 546 350 c 0
 546 138 437 -10 282 -10 c 0
282 70 m 0
 389 70 459 180 459 350 c 0
 459 520 389 630 282 630 c 0
 175 630 105 520 105 350 c 0
 105 180 175 70 282 70 c 0
EndSplineSet
Validated: 1
EndChar

StartChar: O.rightL
Encoding: 65632 -1 189
Width: 600
GlyphClass: 1
Flags: W
LayerCount: 2
Fore
SplineSet
344 -10 m 0
 189 -10 80 138 80 350 c 0
 80 562 189 710 344 710 c 0
 499 710 608 562 608 350 c 0
 608 138 499 -10 344 -10 c 0
344 70 m 0
 451 70 521 180 521 350 c 0
 521 520 451 630 344 630 c 0
 237 630 167 520 167 350 c 0
 167 180 237 70 344 70 c 0
EndSplineSet
Validated: 1
EndChar

StartChar: O.rightM
Encoding: 65633 -1 190
Width: 600
GlyphClass: 1
Flags: W
LayerCount: 2
Fore
SplineSet
330 -10 m 0
 175 -10 66 138 66 350 c 0
 66 562 175 710 330 710 c 0
 485 710 594 562 594 350 c 0
 594 138 485 -10 330 -10 c 0
330 70 m 0
 437 70 507 180 507 350 c 0
 507 520 437 630 330 630 c 0
 223 630 153 520 153 350 c 0
 153 180 223 70 330 70 c 0
EndSplineSet
Validated: 1
EndChar

StartChar: O.rightS
Encoding: 65634 -1 191
Width: 600
GlyphClass: 1
Flags: W
LayerCount: 2
Fore
SplineSet
312 -10 m 0
 157 -10 48 138 48 350 c 0
 48 562 157 710 312 710 c 0
 467 710 576 562 576 350 c 0
 576 138 467 -10 312 -10 c 0
312 70 m 0
 419 70 489 180 489 350 c 0
 489 520 419 630 312 630 c 0
 205 630 135 520 135 350 c 0
 135 180 205 70 312 70 c 0
EndSplineSet
Validated: 1
EndChar

StartChar: OE
Encoding: 338 338 192
Width: 600
GlyphClass: 1
Flags: W
LayerCount: 2
Fore
SplineSet
251 0 m 2
 123 0 29 148 29 350 c 0
 29 552 123 700 251 700 c 2
 574 700 l 1
 574 622 l 1
 376 622 l 1
 376 402 l 1
 540 402 l 1
 540 324 l 1
 376 324 l 1
 376 78 l 1
 574 78 l 1
 574 0 l 1
 251 0 l 2
251 622 m 2
 170 622 114 511 114 350 c 0
 114 189 170 78 251 78 c 2
 290 78 l 1
 290 622 l 1
 251 622 l 2
EndSplineSet
Validated: 1
EndChar

StartChar: Oacute
Encoding: 211 211 193
Width: 600
GlyphClass: 1
Flags: W
LayerCount: 2
Fore
SplineSet
300 -10 m 0
 145 -10 36 138 36 350 c 0
 36 562 145 710 300 710 c 0
 455 710 564 562 564 350 c 0
 564 138 455 -10 300 -10 c 0
300 70 m 0
 407 70 477 180 477 350 c 0
 477 520 407 630 300 630 c 0
 193 630 123 520 123 350 c 0
 123 180 193 70 300 70 c 0
434 977 m 1
 318 792 l 1
 245 792 l 1
 323 977 l 1
 434 977 l 1
EndSplineSet
Validated: 1
EndChar

StartChar: Obreve
Encoding: 334 334 194
Width: 600
GlyphClass: 1
Flags: W
LayerCount: 2
Fore
SplineSet
300 -10 m 0
 145 -10 36 138 36 350 c 0
 36 562 145 710 300 710 c 0
 455 710 564 562 564 350 c 0
 564 138 455 -10 300 -10 c 0
300 70 m 0
 407 70 477 180 477 350 c 0
 477 520 407 630 300 630 c 0
 193 630 123 520 123 350 c 0
 123 180 193 70 300 70 c 0
235 923 m 1
 239 879 265 850 300 850 c 0
 335 850 361 879 365 923 c 1
 434 923 l 1
 434 843 378 786 300 786 c 0
 222 786 166 843 166 923 c 1
 235 923 l 1
EndSplineSet
Validated: 1
EndChar

StartChar: Ocircumflex
Encoding: 212 212 195
Width: 600
GlyphClass: 1
Flags: W
LayerCount: 2
Fore
SplineSet
300 -10 m 0
 145 -10 36 138 36 350 c 0
 36 562 145 710 300 710 c 0
 455 710 564 562 564 350 c 0
 564 138 455 -10 300 -10 c 0
300 70 m 0
 407 70 477 180 477 350 c 0
 477 520 407 630 300 630 c 0
 193 630 123 520 123 350 c 0
 123 180 193 70 300 70 c 0
145 785 m 1
 256 961 l 1
 344 961 l 1
 455 785 l 1
 382 785 l 1
 300 889 l 1
 218 785 l 1
 145 785 l 1
EndSplineSet
Validated: 1
EndChar

StartChar: Odieresis
Encoding: 214 214 196
Width: 600
GlyphClass: 1
Flags: W
LayerCount: 2
Fore
SplineSet
300 -10 m 0
 145 -10 36 138 36 350 c 0
 36 562 145 710 300 710 c 0
 455 710 564 562 564 350 c 0
 564 138 455 -10 300 -10 c 0
300 70 m 0
 407 70 477 180 477 350 c 0
 477 520 407 630 300 630 c 0
 193 630 123 520 123 350 c 0
 123 180 193 70 300 70 c 0
128 875 m 0
 128 913 158 943 196 943 c 0
 235 943 264 913 264 875 c 0
 264 837 235 806 196 806 c 0
 158 806 128 837 128 875 c 0
336 875 m 0
 336 913 366 943 404 943 c 0
 443 943 472 913 472 875 c 0
 472 837 443 806 404 806 c 0
 366 806 336 837 336 875 c 0
EndSplineSet
Validated: 1
Substitution2: "'cv03' +W1d7JlPYT1MA-03 +Z+VifgAA 2+Zv9O44ho" Odieresis.square
EndChar

StartChar: Odieresis.square
Encoding: 65635 -1 197
Width: 600
GlyphClass: 1
Flags: W
LayerCount: 2
Fore
SplineSet
300 -10 m 0
 145 -10 36 138 36 350 c 0
 36 562 145 710 300 710 c 0
 455 710 564 562 564 350 c 0
 564 138 455 -10 300 -10 c 0
300 70 m 0
 407 70 477 180 477 350 c 0
 477 520 407 630 300 630 c 0
 193 630 123 520 123 350 c 0
 123 180 193 70 300 70 c 0
135 810 m 1
 135 931 l 1
 257 931 l 1
 257 810 l 1
 135 810 l 1
343 810 m 1
 343 931 l 1
 465 931 l 1
 465 810 l 1
 343 810 l 1
EndSplineSet
Validated: 1
EndChar

StartChar: Ograve
Encoding: 210 210 198
Width: 600
GlyphClass: 1
Flags: W
LayerCount: 2
Fore
SplineSet
300 -10 m 0
 145 -10 36 138 36 350 c 0
 36 562 145 710 300 710 c 0
 455 710 564 562 564 350 c 0
 564 138 455 -10 300 -10 c 0
300 70 m 0
 407 70 477 180 477 350 c 0
 477 520 407 630 300 630 c 0
 193 630 123 520 123 350 c 0
 123 180 193 70 300 70 c 0
355 792 m 1
 282 792 l 1
 166 977 l 1
 277 977 l 1
 355 792 l 1
EndSplineSet
Validated: 1
EndChar

StartChar: uni2126
Encoding: 8486 8486 199
Width: 600
GlyphClass: 1
Flags: W
LayerCount: 2
Fore
SplineSet
300 632 m 0
 200 632 124 521 124 376 c 0
 124 251 180 139 270 85 c 1
 270 0 l 1
 49 0 l 1
 49 78 l 1
 182 78 l 1
 182 82 l 1
 92 140 36 256 36 383 c 0
 36 566 152 710 300 710 c 0
 448 710 564 566 564 383 c 0
 564 256 508 140 418 82 c 1
 418 78 l 1
 551 78 l 1
 551 0 l 1
 330 0 l 1
 330 85 l 1
 420 139 476 251 476 376 c 0
 476 521 400 632 300 632 c 0
EndSplineSet
Validated: 1
EndChar

StartChar: Ohungarumlaut
Encoding: 336 336 200
Width: 600
GlyphClass: 1
Flags: W
LayerCount: 2
Fore
SplineSet
300 -10 m 0
 145 -10 36 138 36 350 c 0
 36 562 145 710 300 710 c 0
 455 710 564 562 564 350 c 0
 564 138 455 -10 300 -10 c 0
300 70 m 0
 407 70 477 180 477 350 c 0
 477 520 407 630 300 630 c 0
 193 630 123 520 123 350 c 0
 123 180 193 70 300 70 c 0
361 977 m 1
 245 792 l 1
 172 792 l 1
 250 977 l 1
 361 977 l 1
529 977 m 1
 413 792 l 1
 340 792 l 1
 418 977 l 1
 529 977 l 1
EndSplineSet
Validated: 1
EndChar

StartChar: Omacron
Encoding: 332 332 201
Width: 600
GlyphClass: 1
Flags: W
LayerCount: 2
Fore
SplineSet
300 -10 m 0
 145 -10 36 138 36 350 c 0
 36 562 145 710 300 710 c 0
 455 710 564 562 564 350 c 0
 564 138 455 -10 300 -10 c 0
300 70 m 0
 407 70 477 180 477 350 c 0
 477 520 407 630 300 630 c 0
 193 630 123 520 123 350 c 0
 123 180 193 70 300 70 c 0
146 830 m 1
 146 900 l 1
 454 900 l 1
 454 830 l 1
 146 830 l 1
EndSplineSet
Validated: 1
EndChar

StartChar: uni03A9
Encoding: 937 937 202
Width: 600
GlyphClass: 1
Flags: W
LayerCount: 2
Fore
SplineSet
300 632 m 0
 200 632 124 521 124 376 c 0
 124 251 180 139 270 85 c 1
 270 0 l 1
 49 0 l 1
 49 78 l 1
 182 78 l 1
 182 82 l 1
 92 140 36 256 36 383 c 0
 36 566 152 710 300 710 c 0
 448 710 564 566 564 383 c 0
 564 256 508 140 418 82 c 1
 418 78 l 1
 551 78 l 1
 551 0 l 1
 330 0 l 1
 330 85 l 1
 420 139 476 251 476 376 c 0
 476 521 400 632 300 632 c 0
EndSplineSet
Validated: 1
EndChar

StartChar: Omegatonos
Encoding: 911 911 203
Width: 600
GlyphClass: 1
Flags: W
LayerCount: 2
Fore
SplineSet
300 632 m 0
 200 632 124 521 124 376 c 0
 124 251 180 139 270 85 c 1
 270 0 l 1
 49 0 l 1
 49 78 l 1
 182 78 l 1
 182 82 l 1
 92 140 36 256 36 383 c 0
 36 566 152 710 300 710 c 0
 448 710 564 566 564 383 c 0
 564 256 508 140 418 82 c 1
 418 78 l 1
 551 78 l 1
 551 0 l 1
 330 0 l 1
 330 85 l 1
 420 139 476 251 476 376 c 0
 476 521 400 632 300 632 c 0
99 774 m 1
 33 572 l 1
 -34 572 l 1
 0 774 l 1
 99 774 l 1
EndSplineSet
Validated: 1
EndChar

StartChar: Omicron
Encoding: 927 927 204
Width: 600
GlyphClass: 1
Flags: W
LayerCount: 2
Fore
SplineSet
300 -10 m 0
 145 -10 36 138 36 350 c 0
 36 562 145 710 300 710 c 0
 455 710 564 562 564 350 c 0
 564 138 455 -10 300 -10 c 0
300 70 m 0
 407 70 477 180 477 350 c 0
 477 520 407 630 300 630 c 0
 193 630 123 520 123 350 c 0
 123 180 193 70 300 70 c 0
EndSplineSet
Validated: 1
EndChar

StartChar: Omicrontonos
Encoding: 908 908 205
Width: 600
GlyphClass: 1
Flags: W
LayerCount: 2
Fore
SplineSet
300 -10 m 0
 145 -10 36 138 36 350 c 0
 36 562 145 710 300 710 c 0
 455 710 564 562 564 350 c 0
 564 138 455 -10 300 -10 c 0
300 70 m 0
 407 70 477 180 477 350 c 0
 477 520 407 630 300 630 c 0
 193 630 123 520 123 350 c 0
 123 180 193 70 300 70 c 0
99 774 m 1
 33 572 l 1
 -34 572 l 1
 0 774 l 1
 99 774 l 1
EndSplineSet
Validated: 1
EndChar

StartChar: Oslash
Encoding: 216 216 206
Width: 600
GlyphClass: 1
Flags: W
LayerCount: 2
Fore
SplineSet
45 -36 m 1
 114 85 l 1
 65 149 36 241 36 350 c 0
 36 562 145 710 300 710 c 0
 353 710 400 693 440 662 c 1
 499 768 l 1
 555 736 l 1
 487 614 l 1
 535 551 564 459 564 350 c 0
 564 138 455 -10 300 -10 c 0
 247 -10 200 7 161 38 c 1
 101 -68 l 1
 45 -36 l 1
123 350 m 0
 123 277 136 214 160 167 c 1
 399 590 l 1
 372 616 338 630 300 630 c 0
 193 630 123 520 123 350 c 0
300 70 m 0
 407 70 477 180 477 350 c 0
 477 423 464 486 440 533 c 1
 201 109 l 1
 229 84 262 70 300 70 c 0
EndSplineSet
Validated: 1
EndChar

StartChar: Oslashacute
Encoding: 510 510 207
Width: 600
GlyphClass: 1
Flags: W
LayerCount: 2
Fore
SplineSet
45 -36 m 1
 114 85 l 1
 65 149 36 241 36 350 c 0
 36 562 145 710 300 710 c 0
 353 710 400 693 440 662 c 1
 499 768 l 1
 555 736 l 1
 487 614 l 1
 535 551 564 459 564 350 c 0
 564 138 455 -10 300 -10 c 0
 247 -10 200 7 161 38 c 1
 101 -68 l 1
 45 -36 l 1
123 350 m 0
 123 277 136 214 160 167 c 1
 399 590 l 1
 372 616 338 630 300 630 c 0
 193 630 123 520 123 350 c 0
300 70 m 0
 407 70 477 180 477 350 c 0
 477 423 464 486 440 533 c 1
 201 109 l 1
 229 84 262 70 300 70 c 0
432 977 m 1
 316 792 l 1
 243 792 l 1
 321 977 l 1
 432 977 l 1
EndSplineSet
Validated: 1
EndChar

StartChar: Otilde
Encoding: 213 213 208
Width: 600
GlyphClass: 1
Flags: W
LayerCount: 2
Fore
SplineSet
300 -10 m 0
 145 -10 36 138 36 350 c 0
 36 562 145 710 300 710 c 0
 455 710 564 562 564 350 c 0
 564 138 455 -10 300 -10 c 0
300 70 m 0
 407 70 477 180 477 350 c 0
 477 520 407 630 300 630 c 0
 193 630 123 520 123 350 c 0
 123 180 193 70 300 70 c 0
124 824 m 1
 124 851 l 2
 124 923 164 968 228 968 c 0
 320 968 330 877 373 877 c 0
 392 877 402 895 403 933 c 2
 404 954 l 1
 476 954 l 1
 476 927 l 2
 476 855 436 810 372 810 c 0
 280 810 270 901 228 901 c 0
 209 901 198 883 197 845 c 2
 196 824 l 1
 124 824 l 1
EndSplineSet
Validated: 1
EndChar

StartChar: P
Encoding: 80 80 209
Width: 600
GlyphClass: 1
Flags: W
LayerCount: 2
Fore
SplineSet
95 0 m 1
 95 700 l 1
 351 700 l 2
 471 700 555 616 555 498 c 0
 555 380 471 296 351 296 c 2
 182 296 l 1
 182 0 l 1
 95 0 l 1
182 374 m 1
 356 374 l 2
 425 374 471 424 471 498 c 0
 471 573 425 622 356 622 c 2
 182 622 l 1
 182 374 l 1
EndSplineSet
Validated: 1
Substitution2: "+U1VOAGb/Y2IA +Z+VifgAA 72+Zv9O44ho" P.rightS
Substitution2: "+U1VOAGb/Y2IA +Z+VifgAA 71+Zv9O44ho" P.rightM
Substitution2: "+U1VOAGb/Y2IA +Z+VifgAA 70+Zv9O44ho" P.rightL
Substitution2: "+U1VOAGb/Y2IA +Z+VifgAA 69+Zv9O44ho" P.leftS
Substitution2: "+U1VOAGb/Y2IA +Z+VifgAA 68+Zv9O44ho" P.leftM
Substitution2: "+U1VOAGb/Y2IA +Z+VifgAA 67+Zv9O44ho" P.leftL
Substitution2: "+U1VOAGb/Y2IA +Z+VifgAA 66+Zv9O44ho" P.rightS
Substitution2: "+U1VOAGb/Y2IA +Z+VifgAA 65+Zv9O44ho" P.rightM
Substitution2: "+U1VOAGb/Y2IA +Z+VifgAA 64+Zv9O44ho" P.rightS
Substitution2: "+U1VOAGb/Y2IA +Z+VifgAA 63+Zv9O44ho" P.rightM
Substitution2: "+U1VOAGb/Y2IA +Z+VifgAA 62+Zv9O44ho" P.rightL
Substitution2: "+U1VOAGb/Y2IA +Z+VifgAA 61+Zv9O44ho" P.leftS
Substitution2: "+U1VOAGb/Y2IA +Z+VifgAA 60+Zv9O44ho" P.leftM
Substitution2: "+U1VOAGb/Y2IA +Z+VifgAA 59+Zv9O44ho" P.leftL
EndChar

StartChar: P.leftL
Encoding: 65636 -1 210
Width: 600
GlyphClass: 1
Flags: W
LayerCount: 2
Fore
SplineSet
51 0 m 1
 51 700 l 1
 307 700 l 2
 427 700 511 616 511 498 c 0
 511 380 427 296 307 296 c 2
 138 296 l 1
 138 0 l 1
 51 0 l 1
138 374 m 1
 312 374 l 2
 381 374 427 424 427 498 c 0
 427 573 381 622 312 622 c 2
 138 622 l 1
 138 374 l 1
EndSplineSet
Validated: 1
EndChar

StartChar: P.leftM
Encoding: 65637 -1 211
Width: 600
GlyphClass: 1
Flags: W
LayerCount: 2
Fore
SplineSet
65 0 m 1
 65 700 l 1
 321 700 l 2
 441 700 525 616 525 498 c 0
 525 380 441 296 321 296 c 2
 152 296 l 1
 152 0 l 1
 65 0 l 1
152 374 m 1
 326 374 l 2
 395 374 441 424 441 498 c 0
 441 573 395 622 326 622 c 2
 152 622 l 1
 152 374 l 1
EndSplineSet
Validated: 1
EndChar

StartChar: P.leftS
Encoding: 65638 -1 212
Width: 600
GlyphClass: 1
Flags: W
LayerCount: 2
Fore
SplineSet
77 0 m 1
 77 700 l 1
 333 700 l 2
 453 700 537 616 537 498 c 0
 537 380 453 296 333 296 c 2
 164 296 l 1
 164 0 l 1
 77 0 l 1
164 374 m 1
 338 374 l 2
 407 374 453 424 453 498 c 0
 453 573 407 622 338 622 c 2
 164 622 l 1
 164 374 l 1
EndSplineSet
Validated: 1
EndChar

StartChar: P.rightL
Encoding: 65639 -1 213
Width: 600
GlyphClass: 1
Flags: W
LayerCount: 2
Fore
SplineSet
139 0 m 1
 139 700 l 1
 395 700 l 2
 515 700 599 616 599 498 c 0
 599 380 515 296 395 296 c 2
 226 296 l 1
 226 0 l 1
 139 0 l 1
226 374 m 1
 400 374 l 2
 469 374 515 424 515 498 c 0
 515 573 469 622 400 622 c 2
 226 622 l 1
 226 374 l 1
EndSplineSet
Validated: 1
EndChar

StartChar: P.rightM
Encoding: 65640 -1 214
Width: 600
GlyphClass: 1
Flags: W
LayerCount: 2
Fore
SplineSet
125 0 m 1
 125 700 l 1
 381 700 l 2
 501 700 585 616 585 498 c 0
 585 380 501 296 381 296 c 2
 212 296 l 1
 212 0 l 1
 125 0 l 1
212 374 m 1
 386 374 l 2
 455 374 501 424 501 498 c 0
 501 573 455 622 386 622 c 2
 212 622 l 1
 212 374 l 1
EndSplineSet
Validated: 1
EndChar

StartChar: P.rightS
Encoding: 65641 -1 215
Width: 600
GlyphClass: 1
Flags: W
LayerCount: 2
Fore
SplineSet
113 0 m 1
 113 700 l 1
 369 700 l 2
 489 700 573 616 573 498 c 0
 573 380 489 296 369 296 c 2
 200 296 l 1
 200 0 l 1
 113 0 l 1
200 374 m 1
 374 374 l 2
 443 374 489 424 489 498 c 0
 489 573 443 622 374 622 c 2
 200 622 l 1
 200 374 l 1
EndSplineSet
Validated: 1
EndChar

StartChar: Phi
Encoding: 934 934 216
Width: 600
GlyphClass: 1
Flags: W
LayerCount: 2
Fore
SplineSet
343 0 m 1
 257 0 l 1
 257 79 l 1
 125 98 36 204 36 350 c 0
 36 496 125 602 257 621 c 1
 257 700 l 1
 343 700 l 1
 343 621 l 1
 475 602 564 496 564 350 c 0
 564 204 475 98 343 79 c 1
 343 0 l 1
121 350 m 0
 121 249 174 178 257 160 c 1
 257 540 l 1
 174 522 121 451 121 350 c 0
479 350 m 0
 479 451 426 522 343 540 c 1
 343 160 l 1
 426 178 479 249 479 350 c 0
EndSplineSet
Validated: 1
EndChar

StartChar: Pi
Encoding: 928 928 217
Width: 600
GlyphClass: 1
Flags: W
LayerCount: 2
Fore
SplineSet
66 0 m 1
 66 700 l 1
 534 700 l 1
 534 0 l 1
 447 0 l 1
 447 620 l 1
 153 620 l 1
 153 0 l 1
 66 0 l 1
EndSplineSet
Validated: 1
EndChar

StartChar: Psi
Encoding: 936 936 218
Width: 600
GlyphClass: 1
Flags: W
LayerCount: 2
Fore
SplineSet
556 700 m 1
 556 456 l 2
 556 319 472 222 343 205 c 1
 343 0 l 1
 257 0 l 1
 257 205 l 1
 128 222 44 319 44 456 c 2
 44 700 l 1
 129 700 l 1
 129 456 l 2
 129 365 178 302 257 286 c 1
 257 700 l 1
 343 700 l 1
 343 286 l 1
 422 302 471 365 471 456 c 2
 471 700 l 1
 556 700 l 1
EndSplineSet
Validated: 1
EndChar

StartChar: Q
Encoding: 81 81 219
Width: 600
GlyphClass: 1
Flags: W
LayerCount: 2
Fore
SplineSet
558 -64 m 1
 448 45 l 1
 407 10 357 -10 300 -10 c 0
 145 -10 36 138 36 350 c 0
 36 562 145 710 300 710 c 0
 455 710 564 562 564 350 c 0
 564 246 538 157 492 93 c 1
 604 -18 l 1
 558 -64 l 1
300 70 m 0
 335 70 365 81 391 103 c 1
 263 231 l 1
 309 277 l 1
 433 153 l 1
 461 201 477 269 477 350 c 0
 477 520 407 630 300 630 c 0
 193 630 123 520 123 350 c 0
 123 180 193 70 300 70 c 0
EndSplineSet
Validated: 1
Substitution2: "+U1VOAGb/Y2IA +Z+VifgAA 72+Zv9O44ho" Q.rightS
Substitution2: "+U1VOAGb/Y2IA +Z+VifgAA 71+Zv9O44ho" Q.rightM
Substitution2: "+U1VOAGb/Y2IA +Z+VifgAA 70+Zv9O44ho" Q.rightL
Substitution2: "+U1VOAGb/Y2IA +Z+VifgAA 69+Zv9O44ho" Q.leftS
Substitution2: "+U1VOAGb/Y2IA +Z+VifgAA 68+Zv9O44ho" Q.leftM
Substitution2: "+U1VOAGb/Y2IA +Z+VifgAA 67+Zv9O44ho" Q.leftL
Substitution2: "+U1VOAGb/Y2IA +Z+VifgAA 66+Zv9O44ho" Q.rightS
Substitution2: "+U1VOAGb/Y2IA +Z+VifgAA 65+Zv9O44ho" Q.rightM
Substitution2: "+U1VOAGb/Y2IA +Z+VifgAA 64+Zv9O44ho" Q.rightS
Substitution2: "+U1VOAGb/Y2IA +Z+VifgAA 63+Zv9O44ho" Q.rightM
Substitution2: "+U1VOAGb/Y2IA +Z+VifgAA 62+Zv9O44ho" Q.rightL
Substitution2: "+U1VOAGb/Y2IA +Z+VifgAA 61+Zv9O44ho" Q.leftS
Substitution2: "+U1VOAGb/Y2IA +Z+VifgAA 60+Zv9O44ho" Q.leftM
Substitution2: "+U1VOAGb/Y2IA +Z+VifgAA 59+Zv9O44ho" Q.leftL
EndChar

StartChar: Q.leftL
Encoding: 65642 -1 220
Width: 600
GlyphClass: 1
Flags: W
LayerCount: 2
Fore
SplineSet
514 -64 m 1
 404 45 l 1
 363 10 313 -10 256 -10 c 0
 101 -10 -8 138 -8 350 c 0
 -8 562 101 710 256 710 c 0
 411 710 520 562 520 350 c 0
 520 246 494 157 448 93 c 1
 560 -18 l 1
 514 -64 l 1
256 70 m 0
 291 70 321 81 347 103 c 1
 219 231 l 1
 265 277 l 1
 389 153 l 1
 417 201 433 269 433 350 c 0
 433 520 363 630 256 630 c 0
 149 630 79 520 79 350 c 0
 79 180 149 70 256 70 c 0
EndSplineSet
Validated: 1
EndChar

StartChar: Q.leftM
Encoding: 65643 -1 221
Width: 600
GlyphClass: 1
Flags: W
LayerCount: 2
Fore
SplineSet
528 -64 m 1
 418 45 l 1
 377 10 327 -10 270 -10 c 0
 115 -10 6 138 6 350 c 0
 6 562 115 710 270 710 c 0
 425 710 534 562 534 350 c 0
 534 246 508 157 462 93 c 1
 574 -18 l 1
 528 -64 l 1
270 70 m 0
 305 70 335 81 361 103 c 1
 233 231 l 1
 279 277 l 1
 403 153 l 1
 431 201 447 269 447 350 c 0
 447 520 377 630 270 630 c 0
 163 630 93 520 93 350 c 0
 93 180 163 70 270 70 c 0
EndSplineSet
Validated: 1
EndChar

StartChar: Q.leftS
Encoding: 65644 -1 222
Width: 600
GlyphClass: 1
Flags: W
LayerCount: 2
Fore
SplineSet
540 -64 m 1
 430 45 l 1
 389 10 339 -10 282 -10 c 0
 127 -10 18 138 18 350 c 0
 18 562 127 710 282 710 c 0
 437 710 546 562 546 350 c 0
 546 246 520 157 474 93 c 1
 586 -18 l 1
 540 -64 l 1
282 70 m 0
 317 70 347 81 373 103 c 1
 245 231 l 1
 291 277 l 1
 415 153 l 1
 443 201 459 269 459 350 c 0
 459 520 389 630 282 630 c 0
 175 630 105 520 105 350 c 0
 105 180 175 70 282 70 c 0
EndSplineSet
Validated: 1
EndChar

StartChar: Q.rightL
Encoding: 65645 -1 223
Width: 600
GlyphClass: 1
Flags: W
LayerCount: 2
Fore
SplineSet
602 -64 m 1
 492 45 l 1
 451 10 401 -10 344 -10 c 0
 189 -10 80 138 80 350 c 0
 80 562 189 710 344 710 c 0
 499 710 608 562 608 350 c 0
 608 246 582 157 536 93 c 1
 648 -18 l 1
 602 -64 l 1
344 70 m 0
 379 70 409 81 435 103 c 1
 307 231 l 1
 353 277 l 1
 477 153 l 1
 505 201 521 269 521 350 c 0
 521 520 451 630 344 630 c 0
 237 630 167 520 167 350 c 0
 167 180 237 70 344 70 c 0
EndSplineSet
Validated: 1
EndChar

StartChar: Q.rightM
Encoding: 65646 -1 224
Width: 600
GlyphClass: 1
Flags: W
LayerCount: 2
Fore
SplineSet
588 -64 m 1
 478 45 l 1
 437 10 387 -10 330 -10 c 0
 175 -10 66 138 66 350 c 0
 66 562 175 710 330 710 c 0
 485 710 594 562 594 350 c 0
 594 246 568 157 522 93 c 1
 634 -18 l 1
 588 -64 l 1
330 70 m 0
 365 70 395 81 421 103 c 1
 293 231 l 1
 339 277 l 1
 463 153 l 1
 491 201 507 269 507 350 c 0
 507 520 437 630 330 630 c 0
 223 630 153 520 153 350 c 0
 153 180 223 70 330 70 c 0
EndSplineSet
Validated: 1
EndChar

StartChar: Q.rightS
Encoding: 65647 -1 225
Width: 600
GlyphClass: 1
Flags: W
LayerCount: 2
Fore
SplineSet
576 -64 m 1
 466 45 l 1
 425 10 375 -10 318 -10 c 0
 163 -10 54 138 54 350 c 0
 54 562 163 710 318 710 c 0
 473 710 582 562 582 350 c 0
 582 246 556 157 510 93 c 1
 622 -18 l 1
 576 -64 l 1
318 70 m 0
 353 70 383 81 409 103 c 1
 281 231 l 1
 327 277 l 1
 451 153 l 1
 479 201 495 269 495 350 c 0
 495 520 425 630 318 630 c 0
 211 630 141 520 141 350 c 0
 141 180 211 70 318 70 c 0
EndSplineSet
Validated: 1
EndChar

StartChar: R
Encoding: 82 82 226
Width: 600
GlyphClass: 1
Flags: W
LayerCount: 2
Fore
SplineSet
180 388 m 1
 351 388 l 2
 417 388 461 435 461 505 c 0
 461 575 417 622 351 622 c 2
 180 622 l 1
 180 388 l 1
93 0 m 1
 93 700 l 1
 346 700 l 2
 463 700 545 620 545 505 c 0
 545 410 489 339 403 317 c 1
 565 0 l 1
 470 0 l 1
 311 310 l 1
 180 310 l 1
 180 0 l 1
 93 0 l 1
EndSplineSet
Validated: 1
Substitution2: "+U1VOAGb/Y2IA +Z+VifgAA 72+Zv9O44ho" R.rightS
Substitution2: "+U1VOAGb/Y2IA +Z+VifgAA 71+Zv9O44ho" R.rightM
Substitution2: "+U1VOAGb/Y2IA +Z+VifgAA 70+Zv9O44ho" R.rightL
Substitution2: "+U1VOAGb/Y2IA +Z+VifgAA 69+Zv9O44ho" R.leftS
Substitution2: "+U1VOAGb/Y2IA +Z+VifgAA 68+Zv9O44ho" R.leftM
Substitution2: "+U1VOAGb/Y2IA +Z+VifgAA 67+Zv9O44ho" R.leftL
Substitution2: "+U1VOAGb/Y2IA +Z+VifgAA 66+Zv9O44ho" R.rightS
Substitution2: "+U1VOAGb/Y2IA +Z+VifgAA 65+Zv9O44ho" R.rightM
Substitution2: "+U1VOAGb/Y2IA +Z+VifgAA 64+Zv9O44ho" R.rightS
Substitution2: "+U1VOAGb/Y2IA +Z+VifgAA 63+Zv9O44ho" R.rightM
Substitution2: "+U1VOAGb/Y2IA +Z+VifgAA 62+Zv9O44ho" R.rightL
Substitution2: "+U1VOAGb/Y2IA +Z+VifgAA 61+Zv9O44ho" R.leftS
Substitution2: "+U1VOAGb/Y2IA +Z+VifgAA 60+Zv9O44ho" R.leftM
Substitution2: "+U1VOAGb/Y2IA +Z+VifgAA 59+Zv9O44ho" R.leftL
EndChar

StartChar: R.leftL
Encoding: 65648 -1 227
Width: 600
GlyphClass: 1
Flags: W
LayerCount: 2
Fore
SplineSet
136 388 m 1
 307 388 l 2
 373 388 417 435 417 505 c 0
 417 575 373 622 307 622 c 2
 136 622 l 1
 136 388 l 1
49 0 m 1
 49 700 l 1
 302 700 l 2
 419 700 501 620 501 505 c 0
 501 410 445 339 359 317 c 1
 521 0 l 1
 426 0 l 1
 267 310 l 1
 136 310 l 1
 136 0 l 1
 49 0 l 1
EndSplineSet
Validated: 1
EndChar

StartChar: R.leftM
Encoding: 65649 -1 228
Width: 600
GlyphClass: 1
Flags: W
LayerCount: 2
Fore
SplineSet
150 388 m 1
 321 388 l 2
 387 388 431 435 431 505 c 0
 431 575 387 622 321 622 c 2
 150 622 l 1
 150 388 l 1
63 0 m 1
 63 700 l 1
 316 700 l 2
 433 700 515 620 515 505 c 0
 515 410 459 339 373 317 c 1
 535 0 l 1
 440 0 l 1
 281 310 l 1
 150 310 l 1
 150 0 l 1
 63 0 l 1
EndSplineSet
Validated: 1
EndChar

StartChar: R.leftS
Encoding: 65650 -1 229
Width: 600
GlyphClass: 1
Flags: W
LayerCount: 2
Fore
SplineSet
162 388 m 1
 333 388 l 2
 399 388 443 435 443 505 c 0
 443 575 399 622 333 622 c 2
 162 622 l 1
 162 388 l 1
75 0 m 1
 75 700 l 1
 328 700 l 2
 445 700 527 620 527 505 c 0
 527 410 471 339 385 317 c 1
 547 0 l 1
 452 0 l 1
 293 310 l 1
 162 310 l 1
 162 0 l 1
 75 0 l 1
EndSplineSet
Validated: 1
EndChar

StartChar: R.rightL
Encoding: 65651 -1 230
Width: 600
GlyphClass: 1
Flags: W
LayerCount: 2
Fore
SplineSet
224 388 m 1
 395 388 l 2
 461 388 505 435 505 505 c 0
 505 575 461 622 395 622 c 2
 224 622 l 1
 224 388 l 1
137 0 m 1
 137 700 l 1
 390 700 l 2
 507 700 589 620 589 505 c 0
 589 410 533 339 447 317 c 1
 609 0 l 1
 514 0 l 1
 355 310 l 1
 224 310 l 1
 224 0 l 1
 137 0 l 1
EndSplineSet
Validated: 1
EndChar

StartChar: R.rightM
Encoding: 65652 -1 231
Width: 600
GlyphClass: 1
Flags: W
LayerCount: 2
Fore
SplineSet
210 388 m 1
 381 388 l 2
 447 388 491 435 491 505 c 0
 491 575 447 622 381 622 c 2
 210 622 l 1
 210 388 l 1
123 0 m 1
 123 700 l 1
 376 700 l 2
 493 700 575 620 575 505 c 0
 575 410 519 339 433 317 c 1
 595 0 l 1
 500 0 l 1
 341 310 l 1
 210 310 l 1
 210 0 l 1
 123 0 l 1
EndSplineSet
Validated: 1
EndChar

StartChar: R.rightS
Encoding: 65653 -1 232
Width: 600
GlyphClass: 1
Flags: W
LayerCount: 2
Fore
SplineSet
198 388 m 1
 369 388 l 2
 435 388 479 435 479 505 c 0
 479 575 435 622 369 622 c 2
 198 622 l 1
 198 388 l 1
111 0 m 1
 111 700 l 1
 364 700 l 2
 481 700 563 620 563 505 c 0
 563 410 507 339 421 317 c 1
 583 0 l 1
 488 0 l 1
 329 310 l 1
 198 310 l 1
 198 0 l 1
 111 0 l 1
EndSplineSet
Validated: 1
EndChar

StartChar: Racute
Encoding: 340 340 233
Width: 600
GlyphClass: 1
Flags: W
LayerCount: 2
Fore
SplineSet
180 388 m 1
 351 388 l 2
 417 388 461 435 461 505 c 0
 461 575 417 622 351 622 c 2
 180 622 l 1
 180 388 l 1
93 0 m 1
 93 700 l 1
 346 700 l 2
 463 700 545 620 545 505 c 0
 545 410 489 339 403 317 c 1
 565 0 l 1
 470 0 l 1
 311 310 l 1
 180 310 l 1
 180 0 l 1
 93 0 l 1
446 977 m 1
 330 792 l 1
 257 792 l 1
 335 977 l 1
 446 977 l 1
EndSplineSet
Validated: 1
EndChar

StartChar: Rcaron
Encoding: 344 344 234
Width: 600
GlyphClass: 1
Flags: W
LayerCount: 2
Fore
SplineSet
180 388 m 1
 351 388 l 2
 417 388 461 435 461 505 c 0
 461 575 417 622 351 622 c 2
 180 622 l 1
 180 388 l 1
93 0 m 1
 93 700 l 1
 346 700 l 2
 463 700 545 620 545 505 c 0
 545 410 489 339 403 317 c 1
 565 0 l 1
 470 0 l 1
 311 310 l 1
 180 310 l 1
 180 0 l 1
 93 0 l 1
268 785 m 1
 157 961 l 1
 230 961 l 1
 312 858 l 1
 394 961 l 1
 467 961 l 1
 356 785 l 1
 268 785 l 1
EndSplineSet
Validated: 1
EndChar

StartChar: uni0156
Encoding: 342 342 235
Width: 600
GlyphClass: 1
Flags: W
LayerCount: 2
Fore
SplineSet
180 388 m 1
 351 388 l 2
 417 388 461 435 461 505 c 0
 461 575 417 622 351 622 c 2
 180 622 l 1
 180 388 l 1
93 0 m 1
 93 700 l 1
 346 700 l 2
 463 700 545 620 545 505 c 0
 545 410 489 339 403 317 c 1
 565 0 l 1
 470 0 l 1
 311 310 l 1
 180 310 l 1
 180 0 l 1
 93 0 l 1
371 -73 m 1
 256 -258 l 1
 183 -258 l 1
 260 -73 l 1
 371 -73 l 1
EndSplineSet
Validated: 1
EndChar

StartChar: Rho
Encoding: 929 929 236
Width: 600
GlyphClass: 1
Flags: W
LayerCount: 2
Fore
SplineSet
95 0 m 1
 95 700 l 1
 351 700 l 2
 471 700 555 616 555 498 c 0
 555 380 471 296 351 296 c 2
 182 296 l 1
 182 0 l 1
 95 0 l 1
182 374 m 1
 356 374 l 2
 425 374 471 424 471 498 c 0
 471 573 425 622 356 622 c 2
 182 622 l 1
 182 374 l 1
EndSplineSet
Validated: 1
EndChar

StartChar: S
Encoding: 83 83 237
Width: 600
GlyphClass: 1
Flags: W
LayerCount: 2
Fore
SplineSet
65 178 m 1
 147 178 l 1
 154 111 217 64 301 64 c 0
 389 64 449 115 449 190 c 0
 449 254 405 293 316 312 c 2
 275 320 l 2
 149 345 84 409 84 511 c 0
 84 629 172 710 300 710 c 0
 424 710 520 634 526 532 c 1
 444 532 l 1
 436 591 377 633 302 633 c 0
 222 633 169 586 169 516 c 0
 169 456 209 418 287 402 c 2
 328 394 l 2
 465 366 535 300 535 194 c 0
 535 71 440 -14 303 -14 c 0
 169 -14 69 67 65 178 c 1
EndSplineSet
Validated: 1
Substitution2: "+U1VOAGb/Y2IA +Z+VifgAA 72+Zv9O44ho" S.rightS
Substitution2: "+U1VOAGb/Y2IA +Z+VifgAA 71+Zv9O44ho" S.rightM
Substitution2: "+U1VOAGb/Y2IA +Z+VifgAA 70+Zv9O44ho" S.rightL
Substitution2: "+U1VOAGb/Y2IA +Z+VifgAA 69+Zv9O44ho" S.leftS
Substitution2: "+U1VOAGb/Y2IA +Z+VifgAA 68+Zv9O44ho" S.leftM
Substitution2: "+U1VOAGb/Y2IA +Z+VifgAA 67+Zv9O44ho" S.leftL
Substitution2: "+U1VOAGb/Y2IA +Z+VifgAA 66+Zv9O44ho" S.rightS
Substitution2: "+U1VOAGb/Y2IA +Z+VifgAA 65+Zv9O44ho" S.rightM
Substitution2: "+U1VOAGb/Y2IA +Z+VifgAA 64+Zv9O44ho" S.rightS
Substitution2: "+U1VOAGb/Y2IA +Z+VifgAA 63+Zv9O44ho" S.rightM
Substitution2: "+U1VOAGb/Y2IA +Z+VifgAA 62+Zv9O44ho" S.rightL
Substitution2: "+U1VOAGb/Y2IA +Z+VifgAA 61+Zv9O44ho" S.leftS
Substitution2: "+U1VOAGb/Y2IA +Z+VifgAA 60+Zv9O44ho" S.leftM
Substitution2: "+U1VOAGb/Y2IA +Z+VifgAA 59+Zv9O44ho" S.leftL
EndChar

StartChar: S.leftL
Encoding: 65654 -1 238
Width: 600
GlyphClass: 1
Flags: W
LayerCount: 2
Fore
SplineSet
22 178 m 1
 104 178 l 1
 111 111 174 64 258 64 c 0
 346 64 406 115 406 190 c 0
 406 254 362 293 273 312 c 2
 232 320 l 2
 106 345 41 409 41 511 c 0
 41 629 129 710 257 710 c 0
 381 710 477 634 483 532 c 1
 401 532 l 1
 393 591 334 633 259 633 c 0
 179 633 126 586 126 516 c 0
 126 456 166 418 244 402 c 2
 285 394 l 2
 422 366 492 300 492 194 c 0
 492 71 397 -14 260 -14 c 0
 126 -14 26 67 22 178 c 1
EndSplineSet
Validated: 1
EndChar

StartChar: S.leftM
Encoding: 65655 -1 239
Width: 600
GlyphClass: 1
Flags: W
LayerCount: 2
Fore
SplineSet
36 178 m 1
 118 178 l 1
 125 111 188 64 272 64 c 0
 360 64 420 115 420 190 c 0
 420 254 376 293 287 312 c 2
 246 320 l 2
 120 345 55 409 55 511 c 0
 55 629 143 710 271 710 c 0
 395 710 491 634 497 532 c 1
 415 532 l 1
 407 591 348 633 273 633 c 0
 193 633 140 586 140 516 c 0
 140 456 180 418 258 402 c 2
 299 394 l 2
 436 366 506 300 506 194 c 0
 506 71 411 -14 274 -14 c 0
 140 -14 40 67 36 178 c 1
EndSplineSet
Validated: 1
EndChar

StartChar: S.leftS
Encoding: 65656 -1 240
Width: 600
GlyphClass: 1
Flags: W
LayerCount: 2
Fore
SplineSet
53 178 m 1
 135 178 l 1
 142 111 205 64 289 64 c 0
 377 64 437 115 437 190 c 0
 437 254 393 293 304 312 c 2
 263 320 l 2
 137 345 72 409 72 511 c 0
 72 629 160 710 288 710 c 0
 412 710 508 634 514 532 c 1
 432 532 l 1
 424 591 365 633 290 633 c 0
 210 633 157 586 157 516 c 0
 157 456 197 418 275 402 c 2
 316 394 l 2
 453 366 523 300 523 194 c 0
 523 71 428 -14 291 -14 c 0
 157 -14 57 67 53 178 c 1
EndSplineSet
Validated: 1
EndChar

StartChar: S.rightL
Encoding: 65657 -1 241
Width: 600
GlyphClass: 1
Flags: W
LayerCount: 2
Fore
SplineSet
109 178 m 1
 191 178 l 1
 198 111 261 64 345 64 c 0
 433 64 493 115 493 190 c 0
 493 254 449 293 360 312 c 2
 319 320 l 2
 193 345 128 409 128 511 c 0
 128 629 216 710 344 710 c 0
 468 710 564 634 570 532 c 1
 488 532 l 1
 480 591 421 633 346 633 c 0
 266 633 213 586 213 516 c 0
 213 456 253 418 331 402 c 2
 372 394 l 2
 509 366 579 300 579 194 c 0
 579 71 484 -14 347 -14 c 0
 213 -14 113 67 109 178 c 1
EndSplineSet
Validated: 1
EndChar

StartChar: S.rightM
Encoding: 65658 -1 242
Width: 600
GlyphClass: 1
Flags: W
LayerCount: 2
Fore
SplineSet
95 178 m 1
 177 178 l 1
 184 111 247 64 331 64 c 0
 419 64 479 115 479 190 c 0
 479 254 435 293 346 312 c 2
 305 320 l 2
 179 345 114 409 114 511 c 0
 114 629 202 710 330 710 c 0
 454 710 550 634 556 532 c 1
 474 532 l 1
 466 591 407 633 332 633 c 0
 252 633 199 586 199 516 c 0
 199 456 239 418 317 402 c 2
 358 394 l 2
 495 366 565 300 565 194 c 0
 565 71 470 -14 333 -14 c 0
 199 -14 99 67 95 178 c 1
EndSplineSet
Validated: 1
EndChar

StartChar: S.rightS
Encoding: 65659 -1 243
Width: 600
GlyphClass: 1
Flags: W
LayerCount: 2
Fore
SplineSet
77 178 m 1
 159 178 l 1
 166 111 229 64 313 64 c 0
 401 64 461 115 461 190 c 0
 461 254 417 293 328 312 c 2
 287 320 l 2
 161 345 96 409 96 511 c 0
 96 629 184 710 312 710 c 0
 436 710 532 634 538 532 c 1
 456 532 l 1
 448 591 389 633 314 633 c 0
 234 633 181 586 181 516 c 0
 181 456 221 418 299 402 c 2
 340 394 l 2
 477 366 547 300 547 194 c 0
 547 71 452 -14 315 -14 c 0
 181 -14 81 67 77 178 c 1
EndSplineSet
Validated: 1
EndChar

StartChar: Sacute
Encoding: 346 346 244
Width: 600
GlyphClass: 1
Flags: W
LayerCount: 2
Fore
SplineSet
65 178 m 1
 147 178 l 1
 154 111 217 64 301 64 c 0
 389 64 449 115 449 190 c 0
 449 254 405 293 316 312 c 2
 275 320 l 2
 149 345 84 409 84 511 c 0
 84 629 172 710 300 710 c 0
 424 710 520 634 526 532 c 1
 444 532 l 1
 436 591 377 633 302 633 c 0
 222 633 169 586 169 516 c 0
 169 456 209 418 287 402 c 2
 328 394 l 2
 465 366 535 300 535 194 c 0
 535 71 440 -14 303 -14 c 0
 169 -14 69 67 65 178 c 1
434 977 m 1
 318 792 l 1
 245 792 l 1
 323 977 l 1
 434 977 l 1
EndSplineSet
Validated: 1
EndChar

StartChar: Scaron
Encoding: 352 352 245
Width: 600
GlyphClass: 1
Flags: W
LayerCount: 2
Fore
SplineSet
65 178 m 1
 147 178 l 1
 154 111 217 64 301 64 c 0
 389 64 449 115 449 190 c 0
 449 254 405 293 316 312 c 2
 275 320 l 2
 149 345 84 409 84 511 c 0
 84 629 172 710 300 710 c 0
 424 710 520 634 526 532 c 1
 444 532 l 1
 436 591 377 633 302 633 c 0
 222 633 169 586 169 516 c 0
 169 456 209 418 287 402 c 2
 328 394 l 2
 465 366 535 300 535 194 c 0
 535 71 440 -14 303 -14 c 0
 169 -14 69 67 65 178 c 1
256 785 m 1
 145 961 l 1
 218 961 l 1
 300 858 l 1
 382 961 l 1
 455 961 l 1
 344 785 l 1
 256 785 l 1
EndSplineSet
Validated: 1
EndChar

StartChar: Scedilla
Encoding: 350 350 246
Width: 600
GlyphClass: 1
Flags: W
LayerCount: 2
Fore
SplineSet
268 -159 m 1
 272 -185 294 -203 324 -203 c 0
 355 -203 377 -183 377 -154 c 0
 377 -124 354 -104 323 -104 c 0
 308 -104 295 -109 286 -116 c 1
 243 -101 l 1
 259 -11 l 1
 148 5 69 79 65 178 c 1
 147 178 l 1
 154 111 217 64 301 64 c 0
 389 64 449 115 449 190 c 0
 449 254 405 293 316 312 c 2
 275 320 l 2
 149 345 84 409 84 511 c 0
 84 629 172 710 300 710 c 0
 424 710 520 634 526 532 c 1
 444 532 l 1
 436 591 377 633 302 633 c 0
 222 633 169 586 169 516 c 0
 169 456 209 418 287 402 c 2
 328 394 l 2
 465 366 535 300 535 194 c 0
 535 80 453 -2 331 -13 c 1
 324 -53 l 1
 392 -44 445 -87 445 -151 c 0
 445 -214 393 -261 322 -261 c 0
 254 -261 203 -218 201 -159 c 1
 268 -159 l 1
EndSplineSet
Validated: 33
EndChar

StartChar: Scircumflex
Encoding: 348 348 247
Width: 600
GlyphClass: 1
Flags: W
LayerCount: 2
Fore
SplineSet
65 178 m 1
 147 178 l 1
 154 111 217 64 301 64 c 0
 389 64 449 115 449 190 c 0
 449 254 405 293 316 312 c 2
 275 320 l 2
 149 345 84 409 84 511 c 0
 84 629 172 710 300 710 c 0
 424 710 520 634 526 532 c 1
 444 532 l 1
 436 591 377 633 302 633 c 0
 222 633 169 586 169 516 c 0
 169 456 209 418 287 402 c 2
 328 394 l 2
 465 366 535 300 535 194 c 0
 535 71 440 -14 303 -14 c 0
 169 -14 69 67 65 178 c 1
145 785 m 1
 256 961 l 1
 344 961 l 1
 455 785 l 1
 382 785 l 1
 300 889 l 1
 218 785 l 1
 145 785 l 1
EndSplineSet
Validated: 1
EndChar

StartChar: uni0218
Encoding: 536 536 248
Width: 600
GlyphClass: 1
Flags: W
LayerCount: 2
Fore
SplineSet
65 178 m 1
 147 178 l 1
 154 111 217 64 301 64 c 0
 389 64 449 115 449 190 c 0
 449 254 405 293 316 312 c 2
 275 320 l 2
 149 345 84 409 84 511 c 0
 84 629 172 710 300 710 c 0
 424 710 520 634 526 532 c 1
 444 532 l 1
 436 591 377 633 302 633 c 0
 222 633 169 586 169 516 c 0
 169 456 209 418 287 402 c 2
 328 394 l 2
 465 366 535 300 535 194 c 0
 535 71 440 -14 303 -14 c 0
 169 -14 69 67 65 178 c 1
351 -73 m 1
 236 -258 l 1
 163 -258 l 1
 240 -73 l 1
 351 -73 l 1
EndSplineSet
Validated: 1
EndChar

StartChar: Sigma
Encoding: 931 931 249
Width: 600
GlyphClass: 1
Flags: W
LayerCount: 2
Fore
SplineSet
56 0 m 1
 56 71 l 1
 312 356 l 1
 62 626 l 1
 62 697 l 1
 523 697 l 1
 523 620 l 1
 180 620 l 1
 423 357 l 1
 172 77 l 1
 544 77 l 1
 544 0 l 1
 56 0 l 1
EndSplineSet
Validated: 1
EndChar

StartChar: T
Encoding: 84 84 250
Width: 600
GlyphClass: 1
Flags: W
LayerCount: 2
Fore
SplineSet
257 0 m 1
 257 622 l 1
 46 622 l 1
 46 700 l 1
 554 700 l 1
 554 622 l 1
 344 622 l 1
 344 0 l 1
 257 0 l 1
EndSplineSet
Validated: 1
Substitution2: "+U1VOAGb/Y2IA +Z+VifgAA 72+Zv9O44ho" T.rightS
Substitution2: "+U1VOAGb/Y2IA +Z+VifgAA 71+Zv9O44ho" T.rightM
Substitution2: "+U1VOAGb/Y2IA +Z+VifgAA 70+Zv9O44ho" T.rightL
Substitution2: "+U1VOAGb/Y2IA +Z+VifgAA 69+Zv9O44ho" T.leftS
Substitution2: "+U1VOAGb/Y2IA +Z+VifgAA 68+Zv9O44ho" T.leftM
Substitution2: "+U1VOAGb/Y2IA +Z+VifgAA 67+Zv9O44ho" T.leftL
Substitution2: "+U1VOAGb/Y2IA +Z+VifgAA 66+Zv9O44ho" T.rightS
Substitution2: "+U1VOAGb/Y2IA +Z+VifgAA 65+Zv9O44ho" T.rightM
Substitution2: "+U1VOAGb/Y2IA +Z+VifgAA 64+Zv9O44ho" T.rightS
Substitution2: "+U1VOAGb/Y2IA +Z+VifgAA 63+Zv9O44ho" T.rightM
Substitution2: "+U1VOAGb/Y2IA +Z+VifgAA 62+Zv9O44ho" T.rightL
Substitution2: "+U1VOAGb/Y2IA +Z+VifgAA 61+Zv9O44ho" T.leftS
Substitution2: "+U1VOAGb/Y2IA +Z+VifgAA 60+Zv9O44ho" T.leftM
Substitution2: "+U1VOAGb/Y2IA +Z+VifgAA 59+Zv9O44ho" T.leftL
EndChar

StartChar: T.leftL
Encoding: 65660 -1 251
Width: 600
GlyphClass: 1
Flags: W
LayerCount: 2
Fore
SplineSet
213 0 m 1
 213 622 l 1
 2 622 l 1
 2 700 l 1
 510 700 l 1
 510 622 l 1
 300 622 l 1
 300 0 l 1
 213 0 l 1
EndSplineSet
Validated: 1
EndChar

StartChar: T.leftM
Encoding: 65661 -1 252
Width: 600
GlyphClass: 1
Flags: W
LayerCount: 2
Fore
SplineSet
227 0 m 1
 227 622 l 1
 16 622 l 1
 16 700 l 1
 524 700 l 1
 524 622 l 1
 314 622 l 1
 314 0 l 1
 227 0 l 1
EndSplineSet
Validated: 1
EndChar

StartChar: T.leftS
Encoding: 65662 -1 253
Width: 600
GlyphClass: 1
Flags: W
LayerCount: 2
Fore
SplineSet
239 0 m 1
 239 622 l 1
 28 622 l 1
 28 700 l 1
 536 700 l 1
 536 622 l 1
 326 622 l 1
 326 0 l 1
 239 0 l 1
EndSplineSet
Validated: 1
EndChar

StartChar: T.rightL
Encoding: 65663 -1 254
Width: 600
GlyphClass: 1
Flags: W
LayerCount: 2
Fore
SplineSet
301 0 m 1
 301 622 l 1
 90 622 l 1
 90 700 l 1
 598 700 l 1
 598 622 l 1
 388 622 l 1
 388 0 l 1
 301 0 l 1
EndSplineSet
Validated: 1
EndChar

StartChar: T.rightM
Encoding: 65664 -1 255
Width: 600
GlyphClass: 1
Flags: W
LayerCount: 2
Fore
SplineSet
287 0 m 1
 287 622 l 1
 76 622 l 1
 76 700 l 1
 584 700 l 1
 584 622 l 1
 374 622 l 1
 374 0 l 1
 287 0 l 1
EndSplineSet
Validated: 1
EndChar

StartChar: T.rightS
Encoding: 65665 -1 256
Width: 600
GlyphClass: 1
Flags: W
LayerCount: 2
Fore
SplineSet
275 0 m 1
 275 622 l 1
 64 622 l 1
 64 700 l 1
 572 700 l 1
 572 622 l 1
 362 622 l 1
 362 0 l 1
 275 0 l 1
EndSplineSet
Validated: 1
EndChar

StartChar: Tau
Encoding: 932 932 257
Width: 600
GlyphClass: 1
Flags: W
LayerCount: 2
Fore
SplineSet
257 0 m 1
 257 622 l 1
 46 622 l 1
 46 700 l 1
 554 700 l 1
 554 622 l 1
 344 622 l 1
 344 0 l 1
 257 0 l 1
EndSplineSet
Validated: 1
EndChar

StartChar: Tbar
Encoding: 358 358 258
Width: 600
GlyphClass: 1
Flags: W
LayerCount: 2
Fore
SplineSet
257 0 m 1
 257 300 l 1
 147 300 l 1
 147 370 l 1
 257 370 l 1
 257 622 l 1
 46 622 l 1
 46 700 l 1
 554 700 l 1
 554 622 l 1
 344 622 l 1
 344 370 l 1
 455 370 l 1
 455 300 l 1
 344 300 l 1
 344 0 l 1
 257 0 l 1
EndSplineSet
Validated: 1
EndChar

StartChar: Tcaron
Encoding: 356 356 259
Width: 600
GlyphClass: 1
Flags: W
LayerCount: 2
Fore
SplineSet
257 0 m 1
 257 622 l 1
 46 622 l 1
 46 700 l 1
 554 700 l 1
 554 622 l 1
 344 622 l 1
 344 0 l 1
 257 0 l 1
256 785 m 1
 145 961 l 1
 218 961 l 1
 300 858 l 1
 382 961 l 1
 455 961 l 1
 344 785 l 1
 256 785 l 1
EndSplineSet
Validated: 1
EndChar

StartChar: uni0162
Encoding: 354 354 260
Width: 600
GlyphClass: 1
Flags: W
LayerCount: 2
Fore
SplineSet
257 0 m 1
 257 622 l 1
 46 622 l 1
 46 700 l 1
 554 700 l 1
 554 622 l 1
 344 622 l 1
 344 0 l 1
 335 0 l 1
 326 -53 l 1
 394 -44 447 -87 447 -151 c 0
 447 -214 395 -261 324 -261 c 0
 256 -261 205 -218 203 -159 c 1
 270 -159 l 1
 274 -185 296 -203 326 -203 c 0
 357 -203 379 -183 379 -154 c 0
 379 -124 356 -104 325 -104 c 0
 310 -104 297 -109 288 -116 c 1
 245 -101 l 1
 263 0 l 1
 257 0 l 1
EndSplineSet
Validated: 33
EndChar

StartChar: uni021A
Encoding: 538 538 261
Width: 600
GlyphClass: 1
Flags: W
LayerCount: 2
Fore
SplineSet
257 0 m 1
 257 622 l 1
 46 622 l 1
 46 700 l 1
 554 700 l 1
 554 622 l 1
 344 622 l 1
 344 0 l 1
 257 0 l 1
353 -73 m 1
 238 -258 l 1
 165 -258 l 1
 242 -73 l 1
 353 -73 l 1
EndSplineSet
Validated: 1
EndChar

StartChar: Theta
Encoding: 920 920 262
Width: 600
GlyphClass: 1
Flags: W
LayerCount: 2
Fore
SplineSet
300 -10 m 0
 145 -10 36 138 36 350 c 0
 36 562 145 710 300 710 c 0
 455 710 564 562 564 350 c 0
 564 138 455 -10 300 -10 c 0
300 70 m 0
 407 70 477 180 477 350 c 0
 477 520 407 630 300 630 c 0
 193 630 123 520 123 350 c 0
 123 180 193 70 300 70 c 0
186 312 m 1
 186 388 l 1
 414 388 l 1
 414 312 l 1
 186 312 l 1
EndSplineSet
Validated: 1
EndChar

StartChar: Thorn
Encoding: 222 222 263
Width: 600
GlyphClass: 1
Flags: W
LayerCount: 2
Fore
SplineSet
94 0 m 1
 94 700 l 1
 181 700 l 1
 181 557 l 1
 345 557 l 2
 461 557 544 473 544 355 c 0
 544 237 461 153 345 153 c 2
 181 153 l 1
 181 0 l 1
 94 0 l 1
181 231 m 1
 345 231 l 2
 412 231 456 281 456 355 c 0
 456 429 412 479 345 479 c 2
 181 479 l 1
 181 231 l 1
EndSplineSet
Validated: 1
EndChar

StartChar: U
Encoding: 85 85 264
Width: 600
GlyphClass: 1
Flags: W
LayerCount: 2
Fore
SplineSet
534 700 m 1
 534 220 l 2
 534 85 437 -10 300 -10 c 0
 163 -10 66 85 66 220 c 2
 66 700 l 1
 153 700 l 1
 153 220 l 2
 153 130 213 70 300 70 c 0
 388 70 447 130 447 220 c 2
 447 700 l 1
 534 700 l 1
EndSplineSet
Validated: 1
Substitution2: "+U1VOAGb/Y2IA +Z+VifgAA 72+Zv9O44ho" U.rightS
Substitution2: "+U1VOAGb/Y2IA +Z+VifgAA 71+Zv9O44ho" U.rightM
Substitution2: "+U1VOAGb/Y2IA +Z+VifgAA 70+Zv9O44ho" U.rightL
Substitution2: "+U1VOAGb/Y2IA +Z+VifgAA 69+Zv9O44ho" U.leftS
Substitution2: "+U1VOAGb/Y2IA +Z+VifgAA 68+Zv9O44ho" U.leftM
Substitution2: "+U1VOAGb/Y2IA +Z+VifgAA 67+Zv9O44ho" U.leftL
Substitution2: "+U1VOAGb/Y2IA +Z+VifgAA 66+Zv9O44ho" U.rightS
Substitution2: "+U1VOAGb/Y2IA +Z+VifgAA 65+Zv9O44ho" U.rightM
Substitution2: "+U1VOAGb/Y2IA +Z+VifgAA 64+Zv9O44ho" U.rightS
Substitution2: "+U1VOAGb/Y2IA +Z+VifgAA 63+Zv9O44ho" U.rightM
Substitution2: "+U1VOAGb/Y2IA +Z+VifgAA 62+Zv9O44ho" U.rightL
Substitution2: "+U1VOAGb/Y2IA +Z+VifgAA 61+Zv9O44ho" U.leftS
Substitution2: "+U1VOAGb/Y2IA +Z+VifgAA 60+Zv9O44ho" U.leftM
Substitution2: "+U1VOAGb/Y2IA +Z+VifgAA 59+Zv9O44ho" U.leftL
EndChar

StartChar: U.leftL
Encoding: 65666 -1 265
Width: 600
GlyphClass: 1
Flags: W
LayerCount: 2
Fore
SplineSet
490 700 m 1
 490 220 l 2
 490 85 393 -10 256 -10 c 0
 119 -10 22 85 22 220 c 2
 22 700 l 1
 109 700 l 1
 109 220 l 2
 109 130 169 70 256 70 c 0
 344 70 403 130 403 220 c 2
 403 700 l 1
 490 700 l 1
EndSplineSet
Validated: 1
EndChar

StartChar: U.leftM
Encoding: 65667 -1 266
Width: 600
GlyphClass: 1
Flags: W
LayerCount: 2
Fore
SplineSet
504 700 m 1
 504 220 l 2
 504 85 407 -10 270 -10 c 0
 133 -10 36 85 36 220 c 2
 36 700 l 1
 123 700 l 1
 123 220 l 2
 123 130 183 70 270 70 c 0
 358 70 417 130 417 220 c 2
 417 700 l 1
 504 700 l 1
EndSplineSet
Validated: 1
EndChar

StartChar: U.leftS
Encoding: 65668 -1 267
Width: 600
GlyphClass: 1
Flags: W
LayerCount: 2
Fore
SplineSet
516 700 m 1
 516 220 l 2
 516 85 419 -10 282 -10 c 0
 145 -10 48 85 48 220 c 2
 48 700 l 1
 135 700 l 1
 135 220 l 2
 135 130 195 70 282 70 c 0
 370 70 429 130 429 220 c 2
 429 700 l 1
 516 700 l 1
EndSplineSet
Validated: 1
EndChar

StartChar: U.rightL
Encoding: 65669 -1 268
Width: 600
GlyphClass: 1
Flags: W
LayerCount: 2
Fore
SplineSet
578 700 m 1
 578 220 l 2
 578 85 481 -10 344 -10 c 0
 207 -10 110 85 110 220 c 2
 110 700 l 1
 197 700 l 1
 197 220 l 2
 197 130 257 70 344 70 c 0
 432 70 491 130 491 220 c 2
 491 700 l 1
 578 700 l 1
EndSplineSet
Validated: 1
EndChar

StartChar: U.rightM
Encoding: 65670 -1 269
Width: 600
GlyphClass: 1
Flags: W
LayerCount: 2
Fore
SplineSet
564 700 m 1
 564 220 l 2
 564 85 467 -10 330 -10 c 0
 193 -10 96 85 96 220 c 2
 96 700 l 1
 183 700 l 1
 183 220 l 2
 183 130 243 70 330 70 c 0
 418 70 477 130 477 220 c 2
 477 700 l 1
 564 700 l 1
EndSplineSet
Validated: 1
EndChar

StartChar: U.rightS
Encoding: 65671 -1 270
Width: 600
GlyphClass: 1
Flags: W
LayerCount: 2
Fore
SplineSet
552 700 m 1
 552 220 l 2
 552 85 455 -10 318 -10 c 0
 181 -10 84 85 84 220 c 2
 84 700 l 1
 171 700 l 1
 171 220 l 2
 171 130 231 70 318 70 c 0
 406 70 465 130 465 220 c 2
 465 700 l 1
 552 700 l 1
EndSplineSet
Validated: 1
EndChar

StartChar: Uacute
Encoding: 218 218 271
Width: 600
GlyphClass: 1
Flags: W
LayerCount: 2
Fore
SplineSet
534 700 m 1
 534 220 l 2
 534 85 437 -10 300 -10 c 0
 163 -10 66 85 66 220 c 2
 66 700 l 1
 153 700 l 1
 153 220 l 2
 153 130 213 70 300 70 c 0
 388 70 447 130 447 220 c 2
 447 700 l 1
 534 700 l 1
434 977 m 1
 318 792 l 1
 245 792 l 1
 323 977 l 1
 434 977 l 1
EndSplineSet
Validated: 1
EndChar

StartChar: Ubreve
Encoding: 364 364 272
Width: 600
GlyphClass: 1
Flags: W
LayerCount: 2
Fore
SplineSet
534 700 m 1
 534 220 l 2
 534 85 437 -10 300 -10 c 0
 163 -10 66 85 66 220 c 2
 66 700 l 1
 153 700 l 1
 153 220 l 2
 153 130 213 70 300 70 c 0
 388 70 447 130 447 220 c 2
 447 700 l 1
 534 700 l 1
235 923 m 1
 239 879 265 850 300 850 c 0
 335 850 361 879 365 923 c 1
 434 923 l 1
 434 843 378 786 300 786 c 0
 222 786 166 843 166 923 c 1
 235 923 l 1
EndSplineSet
Validated: 1
EndChar

StartChar: Ucircumflex
Encoding: 219 219 273
Width: 600
GlyphClass: 1
Flags: W
LayerCount: 2
Fore
SplineSet
534 700 m 1
 534 220 l 2
 534 85 437 -10 300 -10 c 0
 163 -10 66 85 66 220 c 2
 66 700 l 1
 153 700 l 1
 153 220 l 2
 153 130 213 70 300 70 c 0
 388 70 447 130 447 220 c 2
 447 700 l 1
 534 700 l 1
145 785 m 1
 256 961 l 1
 344 961 l 1
 455 785 l 1
 382 785 l 1
 300 889 l 1
 218 785 l 1
 145 785 l 1
EndSplineSet
Validated: 1
EndChar

StartChar: Udieresis
Encoding: 220 220 274
Width: 600
GlyphClass: 1
Flags: W
LayerCount: 2
Fore
SplineSet
534 700 m 1
 534 220 l 2
 534 85 437 -10 300 -10 c 0
 163 -10 66 85 66 220 c 2
 66 700 l 1
 153 700 l 1
 153 220 l 2
 153 130 213 70 300 70 c 0
 388 70 447 130 447 220 c 2
 447 700 l 1
 534 700 l 1
128 875 m 0
 128 913 158 943 196 943 c 0
 235 943 264 913 264 875 c 0
 264 837 235 806 196 806 c 0
 158 806 128 837 128 875 c 0
336 875 m 0
 336 913 366 943 404 943 c 0
 443 943 472 913 472 875 c 0
 472 837 443 806 404 806 c 0
 366 806 336 837 336 875 c 0
EndSplineSet
Validated: 1
Substitution2: "'cv03' +W1d7JlPYT1MA-03 +Z+VifgAA 2+Zv9O44ho" Udieresis.square
EndChar

StartChar: Udieresis.square
Encoding: 65672 -1 275
Width: 600
GlyphClass: 1
Flags: W
LayerCount: 2
Fore
SplineSet
534 700 m 1
 534 220 l 2
 534 85 437 -10 300 -10 c 0
 163 -10 66 85 66 220 c 2
 66 700 l 1
 153 700 l 1
 153 220 l 2
 153 130 213 70 300 70 c 0
 388 70 447 130 447 220 c 2
 447 700 l 1
 534 700 l 1
135 810 m 1
 135 931 l 1
 257 931 l 1
 257 810 l 1
 135 810 l 1
343 810 m 1
 343 931 l 1
 465 931 l 1
 465 810 l 1
 343 810 l 1
EndSplineSet
Validated: 1
EndChar

StartChar: Ugrave
Encoding: 217 217 276
Width: 600
GlyphClass: 1
Flags: W
LayerCount: 2
Fore
SplineSet
534 700 m 1
 534 220 l 2
 534 85 437 -10 300 -10 c 0
 163 -10 66 85 66 220 c 2
 66 700 l 1
 153 700 l 1
 153 220 l 2
 153 130 213 70 300 70 c 0
 388 70 447 130 447 220 c 2
 447 700 l 1
 534 700 l 1
355 792 m 1
 282 792 l 1
 166 977 l 1
 277 977 l 1
 355 792 l 1
EndSplineSet
Validated: 1
EndChar

StartChar: Uhungarumlaut
Encoding: 368 368 277
Width: 600
GlyphClass: 1
Flags: W
LayerCount: 2
Fore
SplineSet
534 700 m 1
 534 220 l 2
 534 85 437 -10 300 -10 c 0
 163 -10 66 85 66 220 c 2
 66 700 l 1
 153 700 l 1
 153 220 l 2
 153 130 213 70 300 70 c 0
 388 70 447 130 447 220 c 2
 447 700 l 1
 534 700 l 1
361 977 m 1
 245 792 l 1
 172 792 l 1
 250 977 l 1
 361 977 l 1
529 977 m 1
 413 792 l 1
 340 792 l 1
 418 977 l 1
 529 977 l 1
EndSplineSet
Validated: 1
EndChar

StartChar: Umacron
Encoding: 362 362 278
Width: 600
GlyphClass: 1
Flags: W
LayerCount: 2
Fore
SplineSet
534 700 m 1
 534 220 l 2
 534 85 437 -10 300 -10 c 0
 163 -10 66 85 66 220 c 2
 66 700 l 1
 153 700 l 1
 153 220 l 2
 153 130 213 70 300 70 c 0
 388 70 447 130 447 220 c 2
 447 700 l 1
 534 700 l 1
146 830 m 1
 146 900 l 1
 454 900 l 1
 454 830 l 1
 146 830 l 1
EndSplineSet
Validated: 1
EndChar

StartChar: Uogonek
Encoding: 370 370 279
Width: 600
GlyphClass: 1
Flags: W
LayerCount: 2
Fore
SplineSet
534 700 m 1
 534 220 l 2
 534 116 476 35 386 4 c 1
 366 -12 356 -31 356 -51 c 0
 356 -84 382 -106 417 -106 c 0
 424 -106 434 -105 443 -103 c 1
 443 -164 l 1
 432 -167 418 -169 402 -169 c 0
 331 -169 283 -126 283 -65 c 0
 283 -45 288 -27 298 -10 c 1
 162 -9 66 86 66 220 c 2
 66 700 l 1
 153 700 l 1
 153 220 l 2
 153 130 213 70 300 70 c 0
 388 70 447 130 447 220 c 2
 447 700 l 1
 534 700 l 1
EndSplineSet
Validated: 1
EndChar

StartChar: Upsilon
Encoding: 933 933 280
Width: 600
GlyphClass: 1
Flags: W
LayerCount: 2
Fore
SplineSet
257 0 m 1
 257 294 l 1
 21 700 l 1
 118 700 l 1
 301 381 l 1
 485 700 l 1
 579 700 l 1
 343 294 l 1
 343 0 l 1
 257 0 l 1
EndSplineSet
Validated: 1
EndChar

StartChar: Upsilondieresis
Encoding: 939 939 281
Width: 600
GlyphClass: 1
Flags: W
LayerCount: 2
Fore
SplineSet
257 0 m 1
 257 294 l 1
 21 700 l 1
 118 700 l 1
 301 381 l 1
 485 700 l 1
 579 700 l 1
 343 294 l 1
 343 0 l 1
 257 0 l 1
128 875 m 0
 128 913 158 943 196 943 c 0
 235 943 264 913 264 875 c 0
 264 837 235 806 196 806 c 0
 158 806 128 837 128 875 c 0
336 875 m 0
 336 913 366 943 404 943 c 0
 443 943 472 913 472 875 c 0
 472 837 443 806 404 806 c 0
 366 806 336 837 336 875 c 0
EndSplineSet
Validated: 1
EndChar

StartChar: Upsilontonos
Encoding: 910 910 282
Width: 600
GlyphClass: 1
Flags: W
LayerCount: 2
Fore
SplineSet
257 0 m 1
 257 294 l 1
 21 700 l 1
 118 700 l 1
 301 381 l 1
 485 700 l 1
 579 700 l 1
 343 294 l 1
 343 0 l 1
 257 0 l 1
27 774 m 1
 -39 572 l 1
 -106 572 l 1
 -72 774 l 1
 27 774 l 1
EndSplineSet
Validated: 1
EndChar

StartChar: Uring
Encoding: 366 366 283
Width: 600
GlyphClass: 1
Flags: W
LayerCount: 2
Fore
SplineSet
534 700 m 1
 534 220 l 2
 534 85 437 -10 300 -10 c 0
 163 -10 66 85 66 220 c 2
 66 700 l 1
 153 700 l 1
 153 220 l 2
 153 130 213 70 300 70 c 0
 388 70 447 130 447 220 c 2
 447 700 l 1
 534 700 l 1
184 889 m 0
 184 953 234 1003 300 1003 c 0
 366 1003 416 953 416 889 c 0
 416 824 365 773 300 773 c 0
 235 773 184 824 184 889 c 0
300 830 m 0
 332 830 356 854 356 888 c 0
 356 922 332 946 300 946 c 0
 268 946 244 922 244 888 c 0
 244 854 268 830 300 830 c 0
EndSplineSet
Validated: 1
EndChar

StartChar: Utilde
Encoding: 360 360 284
Width: 600
GlyphClass: 1
Flags: W
LayerCount: 2
Fore
SplineSet
534 700 m 1
 534 220 l 2
 534 85 437 -10 300 -10 c 0
 163 -10 66 85 66 220 c 2
 66 700 l 1
 153 700 l 1
 153 220 l 2
 153 130 213 70 300 70 c 0
 388 70 447 130 447 220 c 2
 447 700 l 1
 534 700 l 1
124 824 m 1
 124 851 l 2
 124 923 164 968 228 968 c 0
 320 968 330 877 373 877 c 0
 392 877 402 895 403 933 c 2
 404 954 l 1
 476 954 l 1
 476 927 l 2
 476 855 436 810 372 810 c 0
 280 810 270 901 228 901 c 0
 209 901 198 883 197 845 c 2
 196 824 l 1
 124 824 l 1
EndSplineSet
Validated: 1
EndChar

StartChar: V
Encoding: 86 86 285
Width: 600
GlyphClass: 1
Flags: W
LayerCount: 2
Fore
SplineSet
242 0 m 1
 26 700 l 1
 115 700 l 1
 299 97 l 1
 303 97 l 1
 487 700 l 1
 574 700 l 1
 358 0 l 1
 242 0 l 1
EndSplineSet
Validated: 1
Substitution2: "+U1VOAGb/Y2IA +Z+VifgAA 72+Zv9O44ho" V.rightS
Substitution2: "+U1VOAGb/Y2IA +Z+VifgAA 71+Zv9O44ho" V.rightM
Substitution2: "+U1VOAGb/Y2IA +Z+VifgAA 70+Zv9O44ho" V.rightL
Substitution2: "+U1VOAGb/Y2IA +Z+VifgAA 69+Zv9O44ho" V.leftS
Substitution2: "+U1VOAGb/Y2IA +Z+VifgAA 68+Zv9O44ho" V.leftM
Substitution2: "+U1VOAGb/Y2IA +Z+VifgAA 67+Zv9O44ho" V.leftL
Substitution2: "+U1VOAGb/Y2IA +Z+VifgAA 66+Zv9O44ho" V.rightS
Substitution2: "+U1VOAGb/Y2IA +Z+VifgAA 65+Zv9O44ho" V.rightM
Substitution2: "+U1VOAGb/Y2IA +Z+VifgAA 64+Zv9O44ho" V.rightS
Substitution2: "+U1VOAGb/Y2IA +Z+VifgAA 63+Zv9O44ho" V.rightM
Substitution2: "+U1VOAGb/Y2IA +Z+VifgAA 62+Zv9O44ho" V.rightL
Substitution2: "+U1VOAGb/Y2IA +Z+VifgAA 61+Zv9O44ho" V.leftS
Substitution2: "+U1VOAGb/Y2IA +Z+VifgAA 60+Zv9O44ho" V.leftM
Substitution2: "+U1VOAGb/Y2IA +Z+VifgAA 59+Zv9O44ho" V.leftL
EndChar

StartChar: V.leftL
Encoding: 65673 -1 286
Width: 600
GlyphClass: 1
Flags: W
LayerCount: 2
Fore
SplineSet
200 0 m 1
 -16 700 l 1
 73 700 l 1
 257 97 l 1
 261 97 l 1
 445 700 l 1
 532 700 l 1
 316 0 l 1
 200 0 l 1
EndSplineSet
Validated: 1
EndChar

StartChar: V.leftM
Encoding: 65674 -1 287
Width: 600
GlyphClass: 1
Flags: W
LayerCount: 2
Fore
SplineSet
215 0 m 1
 -1 700 l 1
 88 700 l 1
 272 97 l 1
 276 97 l 1
 460 700 l 1
 547 700 l 1
 331 0 l 1
 215 0 l 1
EndSplineSet
Validated: 1
EndChar

StartChar: V.leftS
Encoding: 65675 -1 288
Width: 600
GlyphClass: 1
Flags: W
LayerCount: 2
Fore
SplineSet
230 0 m 1
 14 700 l 1
 103 700 l 1
 287 97 l 1
 291 97 l 1
 475 700 l 1
 562 700 l 1
 346 0 l 1
 230 0 l 1
EndSplineSet
Validated: 1
EndChar

StartChar: V.rightL
Encoding: 65676 -1 289
Width: 600
GlyphClass: 1
Flags: W
LayerCount: 2
Fore
SplineSet
284 0 m 1
 68 700 l 1
 157 700 l 1
 341 97 l 1
 345 97 l 1
 529 700 l 1
 616 700 l 1
 400 0 l 1
 284 0 l 1
EndSplineSet
Validated: 1
EndChar

StartChar: V.rightM
Encoding: 65677 -1 290
Width: 600
GlyphClass: 1
Flags: W
LayerCount: 2
Fore
SplineSet
269 0 m 1
 53 700 l 1
 142 700 l 1
 326 97 l 1
 330 97 l 1
 514 700 l 1
 601 700 l 1
 385 0 l 1
 269 0 l 1
EndSplineSet
Validated: 1
EndChar

StartChar: V.rightS
Encoding: 65678 -1 291
Width: 600
GlyphClass: 1
Flags: W
LayerCount: 2
Fore
SplineSet
254 0 m 1
 38 700 l 1
 127 700 l 1
 311 97 l 1
 315 97 l 1
 499 700 l 1
 586 700 l 1
 370 0 l 1
 254 0 l 1
EndSplineSet
Validated: 1
EndChar

StartChar: W
Encoding: 87 87 292
Width: 600
GlyphClass: 1
Flags: W
LayerCount: 2
Fore
SplineSet
70 0 m 1
 -4 700 l 1
 76 700 l 1
 133 114 l 1
 137 114 l 1
 263 594 l 1
 337 594 l 1
 463 114 l 1
 467 114 l 1
 525 700 l 1
 604 700 l 1
 530 0 l 1
 423 0 l 1
 302 462 l 1
 298 462 l 1
 177 0 l 1
 70 0 l 1
EndSplineSet
Validated: 1
Substitution2: "+U1VOAGb/Y2IA +Z+VifgAA 72+Zv9O44ho" W.rightS
Substitution2: "+U1VOAGb/Y2IA +Z+VifgAA 71+Zv9O44ho" W.rightM
Substitution2: "+U1VOAGb/Y2IA +Z+VifgAA 70+Zv9O44ho" W.rightL
Substitution2: "+U1VOAGb/Y2IA +Z+VifgAA 69+Zv9O44ho" W.leftS
Substitution2: "+U1VOAGb/Y2IA +Z+VifgAA 68+Zv9O44ho" W.leftM
Substitution2: "+U1VOAGb/Y2IA +Z+VifgAA 67+Zv9O44ho" W.leftL
Substitution2: "+U1VOAGb/Y2IA +Z+VifgAA 66+Zv9O44ho" W.rightS
Substitution2: "+U1VOAGb/Y2IA +Z+VifgAA 65+Zv9O44ho" W.rightM
Substitution2: "+U1VOAGb/Y2IA +Z+VifgAA 64+Zv9O44ho" W.rightS
Substitution2: "+U1VOAGb/Y2IA +Z+VifgAA 63+Zv9O44ho" W.rightM
Substitution2: "+U1VOAGb/Y2IA +Z+VifgAA 62+Zv9O44ho" W.rightL
Substitution2: "+U1VOAGb/Y2IA +Z+VifgAA 61+Zv9O44ho" W.leftS
Substitution2: "+U1VOAGb/Y2IA +Z+VifgAA 60+Zv9O44ho" W.leftM
Substitution2: "+U1VOAGb/Y2IA +Z+VifgAA 59+Zv9O44ho" W.leftL
EndChar

StartChar: W.leftL
Encoding: 65679 -1 293
Width: 600
GlyphClass: 1
Flags: W
LayerCount: 2
Fore
SplineSet
26 0 m 1
 -48 700 l 1
 32 700 l 1
 89 114 l 1
 93 114 l 1
 219 594 l 1
 293 594 l 1
 419 114 l 1
 423 114 l 1
 481 700 l 1
 560 700 l 1
 486 0 l 1
 379 0 l 1
 258 462 l 1
 254 462 l 1
 133 0 l 1
 26 0 l 1
EndSplineSet
Validated: 1
EndChar

StartChar: W.leftM
Encoding: 65680 -1 294
Width: 600
GlyphClass: 1
Flags: W
LayerCount: 2
Fore
SplineSet
40 0 m 1
 -34 700 l 1
 46 700 l 1
 103 114 l 1
 107 114 l 1
 233 594 l 1
 307 594 l 1
 433 114 l 1
 437 114 l 1
 495 700 l 1
 574 700 l 1
 500 0 l 1
 393 0 l 1
 272 462 l 1
 268 462 l 1
 147 0 l 1
 40 0 l 1
EndSplineSet
Validated: 1
EndChar

StartChar: W.leftS
Encoding: 65681 -1 295
Width: 600
GlyphClass: 1
Flags: W
LayerCount: 2
Fore
SplineSet
52 0 m 1
 -22 700 l 1
 58 700 l 1
 115 114 l 1
 119 114 l 1
 245 594 l 1
 319 594 l 1
 445 114 l 1
 449 114 l 1
 507 700 l 1
 586 700 l 1
 512 0 l 1
 405 0 l 1
 284 462 l 1
 280 462 l 1
 159 0 l 1
 52 0 l 1
EndSplineSet
Validated: 1
EndChar

StartChar: W.rightL
Encoding: 65682 -1 296
Width: 600
GlyphClass: 1
Flags: W
LayerCount: 2
Fore
SplineSet
114 0 m 1
 40 700 l 1
 120 700 l 1
 177 114 l 1
 181 114 l 1
 307 594 l 1
 381 594 l 1
 507 114 l 1
 511 114 l 1
 569 700 l 1
 648 700 l 1
 574 0 l 1
 467 0 l 1
 346 462 l 1
 342 462 l 1
 221 0 l 1
 114 0 l 1
EndSplineSet
Validated: 1
EndChar

StartChar: W.rightM
Encoding: 65683 -1 297
Width: 600
GlyphClass: 1
Flags: W
LayerCount: 2
Fore
SplineSet
100 0 m 1
 26 700 l 1
 106 700 l 1
 163 114 l 1
 167 114 l 1
 293 594 l 1
 367 594 l 1
 493 114 l 1
 497 114 l 1
 555 700 l 1
 634 700 l 1
 560 0 l 1
 453 0 l 1
 332 462 l 1
 328 462 l 1
 207 0 l 1
 100 0 l 1
EndSplineSet
Validated: 1
EndChar

StartChar: W.rightS
Encoding: 65684 -1 298
Width: 600
GlyphClass: 1
Flags: W
LayerCount: 2
Fore
SplineSet
88 0 m 1
 14 700 l 1
 94 700 l 1
 151 114 l 1
 155 114 l 1
 281 594 l 1
 355 594 l 1
 481 114 l 1
 485 114 l 1
 543 700 l 1
 622 700 l 1
 548 0 l 1
 441 0 l 1
 320 462 l 1
 316 462 l 1
 195 0 l 1
 88 0 l 1
EndSplineSet
Validated: 1
EndChar

StartChar: Wacute
Encoding: 7810 7810 299
Width: 600
GlyphClass: 1
Flags: W
LayerCount: 2
Fore
SplineSet
70 0 m 1
 -4 700 l 1
 76 700 l 1
 133 114 l 1
 137 114 l 1
 263 594 l 1
 337 594 l 1
 463 114 l 1
 467 114 l 1
 525 700 l 1
 604 700 l 1
 530 0 l 1
 423 0 l 1
 302 462 l 1
 298 462 l 1
 177 0 l 1
 70 0 l 1
434 977 m 1
 318 792 l 1
 245 792 l 1
 323 977 l 1
 434 977 l 1
EndSplineSet
Validated: 1
EndChar

StartChar: Wcircumflex
Encoding: 372 372 300
Width: 600
GlyphClass: 1
Flags: W
LayerCount: 2
Fore
SplineSet
70 0 m 1
 -4 700 l 1
 76 700 l 1
 133 114 l 1
 137 114 l 1
 263 594 l 1
 337 594 l 1
 463 114 l 1
 467 114 l 1
 525 700 l 1
 604 700 l 1
 530 0 l 1
 423 0 l 1
 302 462 l 1
 298 462 l 1
 177 0 l 1
 70 0 l 1
145 785 m 1
 256 961 l 1
 344 961 l 1
 455 785 l 1
 382 785 l 1
 300 889 l 1
 218 785 l 1
 145 785 l 1
EndSplineSet
Validated: 1
EndChar

StartChar: Wdieresis
Encoding: 7812 7812 301
Width: 600
GlyphClass: 1
Flags: W
LayerCount: 2
Fore
SplineSet
70 0 m 1
 -4 700 l 1
 76 700 l 1
 133 114 l 1
 137 114 l 1
 263 594 l 1
 337 594 l 1
 463 114 l 1
 467 114 l 1
 525 700 l 1
 604 700 l 1
 530 0 l 1
 423 0 l 1
 302 462 l 1
 298 462 l 1
 177 0 l 1
 70 0 l 1
128 875 m 0
 128 913 158 943 196 943 c 0
 235 943 264 913 264 875 c 0
 264 837 235 806 196 806 c 0
 158 806 128 837 128 875 c 0
336 875 m 0
 336 913 366 943 404 943 c 0
 443 943 472 913 472 875 c 0
 472 837 443 806 404 806 c 0
 366 806 336 837 336 875 c 0
EndSplineSet
Validated: 1
Substitution2: "'cv03' +W1d7JlPYT1MA-03 +Z+VifgAA 2+Zv9O44ho" Wdieresis.square
EndChar

StartChar: Wdieresis.square
Encoding: 65685 -1 302
Width: 600
GlyphClass: 1
Flags: W
LayerCount: 2
Fore
SplineSet
70 0 m 1
 -4 700 l 1
 76 700 l 1
 133 114 l 1
 137 114 l 1
 263 594 l 1
 337 594 l 1
 463 114 l 1
 467 114 l 1
 525 700 l 1
 604 700 l 1
 530 0 l 1
 423 0 l 1
 302 462 l 1
 298 462 l 1
 177 0 l 1
 70 0 l 1
135 810 m 1
 135 931 l 1
 257 931 l 1
 257 810 l 1
 135 810 l 1
343 810 m 1
 343 931 l 1
 465 931 l 1
 465 810 l 1
 343 810 l 1
EndSplineSet
Validated: 1
EndChar

StartChar: Wgrave
Encoding: 7808 7808 303
Width: 600
GlyphClass: 1
Flags: W
LayerCount: 2
Fore
SplineSet
70 0 m 1
 -4 700 l 1
 76 700 l 1
 133 114 l 1
 137 114 l 1
 263 594 l 1
 337 594 l 1
 463 114 l 1
 467 114 l 1
 525 700 l 1
 604 700 l 1
 530 0 l 1
 423 0 l 1
 302 462 l 1
 298 462 l 1
 177 0 l 1
 70 0 l 1
355 792 m 1
 282 792 l 1
 166 977 l 1
 277 977 l 1
 355 792 l 1
EndSplineSet
Validated: 1
EndChar

StartChar: X
Encoding: 88 88 304
Width: 600
GlyphClass: 1
Flags: W
LayerCount: 2
Fore
SplineSet
11 0 m 1
 246 364 l 1
 27 700 l 1
 126 700 l 1
 300 435 l 1
 474 700 l 1
 571 700 l 1
 353 365 l 1
 589 0 l 1
 490 0 l 1
 299 293 l 1
 108 0 l 1
 11 0 l 1
EndSplineSet
Validated: 1
Substitution2: "+U1VOAGb/Y2IA +Z+VifgAA 72+Zv9O44ho" X.rightS
Substitution2: "+U1VOAGb/Y2IA +Z+VifgAA 71+Zv9O44ho" X.rightM
Substitution2: "+U1VOAGb/Y2IA +Z+VifgAA 70+Zv9O44ho" X.rightL
Substitution2: "+U1VOAGb/Y2IA +Z+VifgAA 69+Zv9O44ho" X.leftS
Substitution2: "+U1VOAGb/Y2IA +Z+VifgAA 68+Zv9O44ho" X.leftM
Substitution2: "+U1VOAGb/Y2IA +Z+VifgAA 67+Zv9O44ho" X.leftL
Substitution2: "+U1VOAGb/Y2IA +Z+VifgAA 66+Zv9O44ho" X.rightS
Substitution2: "+U1VOAGb/Y2IA +Z+VifgAA 65+Zv9O44ho" X.rightM
Substitution2: "+U1VOAGb/Y2IA +Z+VifgAA 64+Zv9O44ho" X.rightS
Substitution2: "+U1VOAGb/Y2IA +Z+VifgAA 63+Zv9O44ho" X.rightM
Substitution2: "+U1VOAGb/Y2IA +Z+VifgAA 62+Zv9O44ho" X.rightL
Substitution2: "+U1VOAGb/Y2IA +Z+VifgAA 61+Zv9O44ho" X.leftS
Substitution2: "+U1VOAGb/Y2IA +Z+VifgAA 60+Zv9O44ho" X.leftM
Substitution2: "+U1VOAGb/Y2IA +Z+VifgAA 59+Zv9O44ho" X.leftL
EndChar

StartChar: X.leftL
Encoding: 65686 -1 305
Width: 600
GlyphClass: 1
Flags: W
LayerCount: 2
Fore
SplineSet
-33 0 m 1
 202 364 l 1
 -17 700 l 1
 82 700 l 1
 256 435 l 1
 430 700 l 1
 527 700 l 1
 309 365 l 1
 545 0 l 1
 446 0 l 1
 255 293 l 1
 64 0 l 1
 -33 0 l 1
EndSplineSet
Validated: 1
EndChar

StartChar: X.leftM
Encoding: 65687 -1 306
Width: 600
GlyphClass: 1
Flags: W
LayerCount: 2
Fore
SplineSet
-19 0 m 1
 216 364 l 1
 -3 700 l 1
 96 700 l 1
 270 435 l 1
 444 700 l 1
 541 700 l 1
 323 365 l 1
 559 0 l 1
 460 0 l 1
 269 293 l 1
 78 0 l 1
 -19 0 l 1
EndSplineSet
Validated: 1
EndChar

StartChar: X.leftS
Encoding: 65688 -1 307
Width: 600
GlyphClass: 1
Flags: W
LayerCount: 2
Fore
SplineSet
-7 0 m 1
 228 364 l 1
 9 700 l 1
 108 700 l 1
 282 435 l 1
 456 700 l 1
 553 700 l 1
 335 365 l 1
 571 0 l 1
 472 0 l 1
 281 293 l 1
 90 0 l 1
 -7 0 l 1
EndSplineSet
Validated: 1
EndChar

StartChar: X.rightL
Encoding: 65689 -1 308
Width: 600
GlyphClass: 1
Flags: W
LayerCount: 2
Fore
SplineSet
55 0 m 1
 290 364 l 1
 71 700 l 1
 170 700 l 1
 344 435 l 1
 518 700 l 1
 615 700 l 1
 397 365 l 1
 633 0 l 1
 534 0 l 1
 343 293 l 1
 152 0 l 1
 55 0 l 1
EndSplineSet
Validated: 1
EndChar

StartChar: X.rightM
Encoding: 65690 -1 309
Width: 600
GlyphClass: 1
Flags: W
LayerCount: 2
Fore
SplineSet
41 0 m 1
 276 364 l 1
 57 700 l 1
 156 700 l 1
 330 435 l 1
 504 700 l 1
 601 700 l 1
 383 365 l 1
 619 0 l 1
 520 0 l 1
 329 293 l 1
 138 0 l 1
 41 0 l 1
EndSplineSet
Validated: 1
EndChar

StartChar: X.rightS
Encoding: 65691 -1 310
Width: 600
GlyphClass: 1
Flags: W
LayerCount: 2
Fore
SplineSet
29 0 m 1
 264 364 l 1
 45 700 l 1
 144 700 l 1
 318 435 l 1
 492 700 l 1
 589 700 l 1
 371 365 l 1
 607 0 l 1
 508 0 l 1
 317 293 l 1
 126 0 l 1
 29 0 l 1
EndSplineSet
Validated: 1
EndChar

StartChar: Xi
Encoding: 926 926 311
Width: 600
GlyphClass: 1
Flags: W
LayerCount: 2
Fore
SplineSet
71 0 m 1
 71 78 l 1
 529 78 l 1
 529 0 l 1
 71 0 l 1
115 324 m 1
 115 402 l 1
 485 402 l 1
 485 324 l 1
 115 324 l 1
71 622 m 1
 71 700 l 1
 529 700 l 1
 529 622 l 1
 71 622 l 1
EndSplineSet
Validated: 1
EndChar

StartChar: Y
Encoding: 89 89 312
Width: 600
GlyphClass: 1
Flags: W
LayerCount: 2
Fore
SplineSet
257 0 m 1
 257 294 l 1
 21 700 l 1
 118 700 l 1
 301 381 l 1
 485 700 l 1
 579 700 l 1
 343 294 l 1
 343 0 l 1
 257 0 l 1
EndSplineSet
Validated: 1
Substitution2: "+U1VOAGb/Y2IA +Z+VifgAA 72+Zv9O44ho" Y.rightS
Substitution2: "+U1VOAGb/Y2IA +Z+VifgAA 71+Zv9O44ho" Y.rightM
Substitution2: "+U1VOAGb/Y2IA +Z+VifgAA 70+Zv9O44ho" Y.rightL
Substitution2: "+U1VOAGb/Y2IA +Z+VifgAA 69+Zv9O44ho" Y.leftS
Substitution2: "+U1VOAGb/Y2IA +Z+VifgAA 68+Zv9O44ho" Y.leftM
Substitution2: "+U1VOAGb/Y2IA +Z+VifgAA 67+Zv9O44ho" Y.leftL
Substitution2: "+U1VOAGb/Y2IA +Z+VifgAA 66+Zv9O44ho" Y.rightS
Substitution2: "+U1VOAGb/Y2IA +Z+VifgAA 65+Zv9O44ho" Y.rightM
Substitution2: "+U1VOAGb/Y2IA +Z+VifgAA 64+Zv9O44ho" Y.rightS
Substitution2: "+U1VOAGb/Y2IA +Z+VifgAA 63+Zv9O44ho" Y.rightM
Substitution2: "+U1VOAGb/Y2IA +Z+VifgAA 62+Zv9O44ho" Y.rightL
Substitution2: "+U1VOAGb/Y2IA +Z+VifgAA 61+Zv9O44ho" Y.leftS
Substitution2: "+U1VOAGb/Y2IA +Z+VifgAA 60+Zv9O44ho" Y.leftM
Substitution2: "+U1VOAGb/Y2IA +Z+VifgAA 59+Zv9O44ho" Y.leftL
EndChar

StartChar: Y.leftL
Encoding: 65692 -1 313
Width: 600
GlyphClass: 1
Flags: W
LayerCount: 2
Fore
SplineSet
213 0 m 1
 213 294 l 1
 -23 700 l 1
 74 700 l 1
 257 381 l 1
 441 700 l 1
 535 700 l 1
 299 294 l 1
 299 0 l 1
 213 0 l 1
EndSplineSet
Validated: 1
EndChar

StartChar: Y.leftM
Encoding: 65693 -1 314
Width: 600
GlyphClass: 1
Flags: W
LayerCount: 2
Fore
SplineSet
227 0 m 1
 227 294 l 1
 -9 700 l 1
 88 700 l 1
 271 381 l 1
 455 700 l 1
 549 700 l 1
 313 294 l 1
 313 0 l 1
 227 0 l 1
EndSplineSet
Validated: 1
EndChar

StartChar: Y.leftS
Encoding: 65694 -1 315
Width: 600
GlyphClass: 1
Flags: W
LayerCount: 2
Fore
SplineSet
239 0 m 1
 239 294 l 1
 3 700 l 1
 100 700 l 1
 283 381 l 1
 467 700 l 1
 561 700 l 1
 325 294 l 1
 325 0 l 1
 239 0 l 1
EndSplineSet
Validated: 1
EndChar

StartChar: Y.rightL
Encoding: 65695 -1 316
Width: 600
GlyphClass: 1
Flags: W
LayerCount: 2
Fore
SplineSet
301 0 m 1
 301 294 l 1
 65 700 l 1
 162 700 l 1
 345 381 l 1
 529 700 l 1
 623 700 l 1
 387 294 l 1
 387 0 l 1
 301 0 l 1
EndSplineSet
Validated: 1
EndChar

StartChar: Y.rightM
Encoding: 65696 -1 317
Width: 600
GlyphClass: 1
Flags: W
LayerCount: 2
Fore
SplineSet
287 0 m 1
 287 294 l 1
 51 700 l 1
 148 700 l 1
 331 381 l 1
 515 700 l 1
 609 700 l 1
 373 294 l 1
 373 0 l 1
 287 0 l 1
EndSplineSet
Validated: 1
EndChar

StartChar: Y.rightS
Encoding: 65697 -1 318
Width: 600
GlyphClass: 1
Flags: W
LayerCount: 2
Fore
SplineSet
275 0 m 1
 275 294 l 1
 39 700 l 1
 136 700 l 1
 319 381 l 1
 503 700 l 1
 597 700 l 1
 361 294 l 1
 361 0 l 1
 275 0 l 1
EndSplineSet
Validated: 1
EndChar

StartChar: Yacute
Encoding: 221 221 319
Width: 600
GlyphClass: 1
Flags: W
LayerCount: 2
Fore
SplineSet
257 0 m 1
 257 294 l 1
 21 700 l 1
 118 700 l 1
 301 381 l 1
 485 700 l 1
 579 700 l 1
 343 294 l 1
 343 0 l 1
 257 0 l 1
434 977 m 1
 318 792 l 1
 245 792 l 1
 323 977 l 1
 434 977 l 1
EndSplineSet
Validated: 1
EndChar

StartChar: Ycircumflex
Encoding: 374 374 320
Width: 600
GlyphClass: 1
Flags: W
LayerCount: 2
Fore
SplineSet
257 0 m 1
 257 294 l 1
 21 700 l 1
 118 700 l 1
 301 381 l 1
 485 700 l 1
 579 700 l 1
 343 294 l 1
 343 0 l 1
 257 0 l 1
145 785 m 1
 256 961 l 1
 344 961 l 1
 455 785 l 1
 382 785 l 1
 300 889 l 1
 218 785 l 1
 145 785 l 1
EndSplineSet
Validated: 1
EndChar

StartChar: Ydieresis
Encoding: 376 376 321
Width: 600
GlyphClass: 1
Flags: W
LayerCount: 2
Fore
SplineSet
257 0 m 1
 257 294 l 1
 21 700 l 1
 118 700 l 1
 301 381 l 1
 485 700 l 1
 579 700 l 1
 343 294 l 1
 343 0 l 1
 257 0 l 1
128 875 m 0
 128 913 158 943 196 943 c 0
 235 943 264 913 264 875 c 0
 264 837 235 806 196 806 c 0
 158 806 128 837 128 875 c 0
336 875 m 0
 336 913 366 943 404 943 c 0
 443 943 472 913 472 875 c 0
 472 837 443 806 404 806 c 0
 366 806 336 837 336 875 c 0
EndSplineSet
Validated: 1
Substitution2: "'cv03' +W1d7JlPYT1MA-03 +Z+VifgAA 2+Zv9O44ho" Ydieresis.square
EndChar

StartChar: Ydieresis.square
Encoding: 65698 -1 322
Width: 600
GlyphClass: 1
Flags: W
LayerCount: 2
Fore
SplineSet
257 0 m 1
 257 294 l 1
 21 700 l 1
 118 700 l 1
 301 381 l 1
 485 700 l 1
 579 700 l 1
 343 294 l 1
 343 0 l 1
 257 0 l 1
135 810 m 1
 135 931 l 1
 257 931 l 1
 257 810 l 1
 135 810 l 1
343 810 m 1
 343 931 l 1
 465 931 l 1
 465 810 l 1
 343 810 l 1
EndSplineSet
Validated: 1
EndChar

StartChar: Ygrave
Encoding: 7922 7922 323
Width: 600
GlyphClass: 1
Flags: W
LayerCount: 2
Fore
SplineSet
257 0 m 1
 257 294 l 1
 21 700 l 1
 118 700 l 1
 301 381 l 1
 485 700 l 1
 579 700 l 1
 343 294 l 1
 343 0 l 1
 257 0 l 1
355 792 m 1
 282 792 l 1
 166 977 l 1
 277 977 l 1
 355 792 l 1
EndSplineSet
Validated: 1
EndChar

StartChar: Z
Encoding: 90 90 324
Width: 600
GlyphClass: 1
Flags: W
LayerCount: 2
Fore
SplineSet
56 0 m 1
 56 72 l 1
 422 622 l 1
 66 622 l 1
 66 700 l 1
 527 700 l 1
 527 628 l 1
 161 78 l 1
 544 78 l 1
 544 0 l 1
 56 0 l 1
EndSplineSet
Validated: 1
Substitution2: "+U1VOAGb/Y2IA +Z+VifgAA 72+Zv9O44ho" Z.rightS
Substitution2: "+U1VOAGb/Y2IA +Z+VifgAA 71+Zv9O44ho" Z.rightM
Substitution2: "+U1VOAGb/Y2IA +Z+VifgAA 70+Zv9O44ho" Z.rightL
Substitution2: "+U1VOAGb/Y2IA +Z+VifgAA 69+Zv9O44ho" Z.leftS
Substitution2: "+U1VOAGb/Y2IA +Z+VifgAA 68+Zv9O44ho" Z.leftM
Substitution2: "+U1VOAGb/Y2IA +Z+VifgAA 67+Zv9O44ho" Z.leftL
Substitution2: "+U1VOAGb/Y2IA +Z+VifgAA 66+Zv9O44ho" Z.rightS
Substitution2: "+U1VOAGb/Y2IA +Z+VifgAA 65+Zv9O44ho" Z.rightM
Substitution2: "+U1VOAGb/Y2IA +Z+VifgAA 64+Zv9O44ho" Z.rightS
Substitution2: "+U1VOAGb/Y2IA +Z+VifgAA 63+Zv9O44ho" Z.rightM
Substitution2: "+U1VOAGb/Y2IA +Z+VifgAA 62+Zv9O44ho" Z.rightL
Substitution2: "+U1VOAGb/Y2IA +Z+VifgAA 61+Zv9O44ho" Z.leftS
Substitution2: "+U1VOAGb/Y2IA +Z+VifgAA 60+Zv9O44ho" Z.leftM
Substitution2: "+U1VOAGb/Y2IA +Z+VifgAA 59+Zv9O44ho" Z.leftL
EndChar

StartChar: Z.leftL
Encoding: 65699 -1 325
Width: 600
GlyphClass: 1
Flags: W
LayerCount: 2
Fore
SplineSet
12 0 m 1
 12 72 l 1
 378 622 l 1
 22 622 l 1
 22 700 l 1
 483 700 l 1
 483 628 l 1
 117 78 l 1
 500 78 l 1
 500 0 l 1
 12 0 l 1
EndSplineSet
Validated: 1
EndChar

StartChar: Z.leftM
Encoding: 65700 -1 326
Width: 600
GlyphClass: 1
Flags: W
LayerCount: 2
Fore
SplineSet
26 0 m 1
 26 72 l 1
 392 622 l 1
 36 622 l 1
 36 700 l 1
 497 700 l 1
 497 628 l 1
 131 78 l 1
 514 78 l 1
 514 0 l 1
 26 0 l 1
EndSplineSet
Validated: 1
EndChar

StartChar: Z.leftS
Encoding: 65701 -1 327
Width: 600
GlyphClass: 1
Flags: W
LayerCount: 2
Fore
SplineSet
38 0 m 1
 38 72 l 1
 404 622 l 1
 48 622 l 1
 48 700 l 1
 509 700 l 1
 509 628 l 1
 143 78 l 1
 526 78 l 1
 526 0 l 1
 38 0 l 1
EndSplineSet
Validated: 1
EndChar

StartChar: Z.rightL
Encoding: 65702 -1 328
Width: 600
GlyphClass: 1
Flags: W
LayerCount: 2
Fore
SplineSet
100 0 m 1
 100 72 l 1
 466 622 l 1
 110 622 l 1
 110 700 l 1
 571 700 l 1
 571 628 l 1
 205 78 l 1
 588 78 l 1
 588 0 l 1
 100 0 l 1
EndSplineSet
Validated: 1
EndChar

StartChar: Z.rightM
Encoding: 65703 -1 329
Width: 600
GlyphClass: 1
Flags: W
LayerCount: 2
Fore
SplineSet
86 0 m 1
 86 72 l 1
 452 622 l 1
 96 622 l 1
 96 700 l 1
 557 700 l 1
 557 628 l 1
 191 78 l 1
 574 78 l 1
 574 0 l 1
 86 0 l 1
EndSplineSet
Validated: 1
EndChar

StartChar: Z.rightS
Encoding: 65704 -1 330
Width: 600
GlyphClass: 1
Flags: W
LayerCount: 2
Fore
SplineSet
74 0 m 1
 74 72 l 1
 440 622 l 1
 84 622 l 1
 84 700 l 1
 545 700 l 1
 545 628 l 1
 179 78 l 1
 562 78 l 1
 562 0 l 1
 74 0 l 1
EndSplineSet
Validated: 1
EndChar

StartChar: Zacute
Encoding: 377 377 331
Width: 600
GlyphClass: 1
Flags: W
LayerCount: 2
Fore
SplineSet
56 0 m 1
 56 72 l 1
 422 622 l 1
 66 622 l 1
 66 700 l 1
 527 700 l 1
 527 628 l 1
 161 78 l 1
 544 78 l 1
 544 0 l 1
 56 0 l 1
434 977 m 1
 318 792 l 1
 245 792 l 1
 323 977 l 1
 434 977 l 1
EndSplineSet
Validated: 1
EndChar

StartChar: Zcaron
Encoding: 381 381 332
Width: 600
GlyphClass: 1
Flags: W
LayerCount: 2
Fore
SplineSet
56 0 m 1
 56 72 l 1
 422 622 l 1
 66 622 l 1
 66 700 l 1
 527 700 l 1
 527 628 l 1
 161 78 l 1
 544 78 l 1
 544 0 l 1
 56 0 l 1
256 785 m 1
 145 961 l 1
 218 961 l 1
 300 858 l 1
 382 961 l 1
 455 961 l 1
 344 785 l 1
 256 785 l 1
EndSplineSet
Validated: 1
EndChar

StartChar: Zdotaccent
Encoding: 379 379 333
Width: 600
GlyphClass: 1
Flags: W
LayerCount: 2
Fore
SplineSet
56 0 m 1
 56 72 l 1
 422 622 l 1
 66 622 l 1
 66 700 l 1
 527 700 l 1
 527 628 l 1
 161 78 l 1
 544 78 l 1
 544 0 l 1
 56 0 l 1
226 874 m 0
 226 915 260 947 300 947 c 0
 341 947 374 915 374 874 c 0
 374 833 341 800 300 800 c 0
 260 800 226 833 226 874 c 0
EndSplineSet
Validated: 1
Substitution2: "'cv03' +W1d7JlPYT1MA-03 +Z+VifgAA 2+Zv9O44ho" Zdotaccent.square
EndChar

StartChar: Zdotaccent.square
Encoding: 65705 -1 334
Width: 600
GlyphClass: 1
Flags: W
LayerCount: 2
Fore
SplineSet
56 0 m 1
 56 72 l 1
 422 622 l 1
 66 622 l 1
 66 700 l 1
 527 700 l 1
 527 628 l 1
 161 78 l 1
 544 78 l 1
 544 0 l 1
 56 0 l 1
237 814 m 1
 237 941 l 1
 363 941 l 1
 363 814 l 1
 237 814 l 1
EndSplineSet
Validated: 1
EndChar

StartChar: Zeta
Encoding: 918 918 335
Width: 600
GlyphClass: 1
Flags: W
LayerCount: 2
Fore
SplineSet
56 0 m 1
 56 72 l 1
 422 622 l 1
 66 622 l 1
 66 700 l 1
 527 700 l 1
 527 628 l 1
 161 78 l 1
 544 78 l 1
 544 0 l 1
 56 0 l 1
EndSplineSet
Validated: 1
EndChar

StartChar: a
Encoding: 97 97 336
Width: 600
GlyphClass: 1
Flags: W
LayerCount: 2
Fore
SplineSet
516 0 m 1
 436 0 l 1
 428 22 422 51 418 86 c 1
 414 86 l 1
 383 25 326 -10 253 -10 c 0
 152 -10 81 57 81 154 c 0
 81 302 244 316 357 326 c 0
 395 330 412 348 412 384 c 0
 412 443 368 479 297 479 c 0
 232 479 182 448 176 402 c 1
 94 402 l 1
 98 488 184 550 298 550 c 0
 416 550 496 484 496 384 c 2
 496 193 l 2
 496 109 502 47 516 0 c 1
412 285 m 1
 400 276 384 271 364 268 c 0
 353 267 324 264 316 263 c 0
 211 250 165 218 165 156 c 0
 165 97 206 59 268 59 c 0
 348 59 412 124 412 210 c 2
 412 285 l 1
EndSplineSet
Validated: 1
Substitution2: "+U1VOAGb/Y2IA +Z+VifgAA 72+Zv9O44ho" a.rightS
Substitution2: "+U1VOAGb/Y2IA +Z+VifgAA 71+Zv9O44ho" a.rightM
Substitution2: "+U1VOAGb/Y2IA +Z+VifgAA 70+Zv9O44ho" a.rightL
Substitution2: "+U1VOAGb/Y2IA +Z+VifgAA 69+Zv9O44ho" a.leftS
Substitution2: "+U1VOAGb/Y2IA +Z+VifgAA 68+Zv9O44ho" a.leftM
Substitution2: "+U1VOAGb/Y2IA +Z+VifgAA 67+Zv9O44ho" a.leftL
Substitution2: "+U1VOAGb/Y2IA +Z+VifgAA 66+Zv9O44ho" a.rightS
Substitution2: "+U1VOAGb/Y2IA +Z+VifgAA 65+Zv9O44ho" a.rightM
Substitution2: "+U1VOAGb/Y2IA +Z+VifgAA 64+Zv9O44ho" a.rightS
Substitution2: "+U1VOAGb/Y2IA +Z+VifgAA 63+Zv9O44ho" a.rightM
Substitution2: "+U1VOAGb/Y2IA +Z+VifgAA 62+Zv9O44ho" a.rightL
Substitution2: "+U1VOAGb/Y2IA +Z+VifgAA 61+Zv9O44ho" a.leftS
Substitution2: "+U1VOAGb/Y2IA +Z+VifgAA 60+Zv9O44ho" a.leftM
Substitution2: "+U1VOAGb/Y2IA +Z+VifgAA 59+Zv9O44ho" a.leftL
Substitution2: "'cv08' +W1d7JlPYT1MA-08 +Z+VifgAA 7+Zv9O44ho" a.cv08
Substitution2: "'cv01' +W1d7JlPYT1MA-01 +Z+VifgAA 0+Zv9O44ho" a.cv01
EndChar

StartChar: a.cv01
Encoding: 65706 -1 337
Width: 600
GlyphClass: 1
Flags: W
LayerCount: 2
Fore
SplineSet
427 97 m 1
 394 29 339 -10 266 -10 c 0
 141 -10 48 108 48 270 c 0
 48 431 141 550 267 550 c 0
 340 550 396 510 429 439 c 1
 434 439 l 1
 434 540 l 1
 513 540 l 1
 513 180 l 2
 513 129 516 63 520 0 c 1
 440 0 l 1
 436 34 433 65 432 97 c 1
 427 97 l 1
431 270 m 0
 431 390 371 474 285 474 c 0
 197 474 133 387 133 270 c 0
 133 153 196 66 284 66 c 0
 370 66 431 150 431 270 c 0
EndSplineSet
Validated: 1
Substitution2: "+U1VOAGb/Y2IA +Z+VifgAA 72+Zv9O44ho" a.cv01.rightS
Substitution2: "+U1VOAGb/Y2IA +Z+VifgAA 71+Zv9O44ho" a.cv01.rightM
Substitution2: "+U1VOAGb/Y2IA +Z+VifgAA 70+Zv9O44ho" a.cv01.rightL
Substitution2: "+U1VOAGb/Y2IA +Z+VifgAA 69+Zv9O44ho" a.cv01.leftS
Substitution2: "+U1VOAGb/Y2IA +Z+VifgAA 68+Zv9O44ho" a.cv01.leftM
Substitution2: "+U1VOAGb/Y2IA +Z+VifgAA 67+Zv9O44ho" a.cv01.leftL
Substitution2: "+U1VOAGb/Y2IA +Z+VifgAA 66+Zv9O44ho" a.cv01.rightS
Substitution2: "+U1VOAGb/Y2IA +Z+VifgAA 65+Zv9O44ho" a.cv01.rightM
Substitution2: "+U1VOAGb/Y2IA +Z+VifgAA 64+Zv9O44ho" a.cv01.rightS
Substitution2: "+U1VOAGb/Y2IA +Z+VifgAA 63+Zv9O44ho" a.cv01.rightM
Substitution2: "+U1VOAGb/Y2IA +Z+VifgAA 62+Zv9O44ho" a.cv01.rightL
Substitution2: "+U1VOAGb/Y2IA +Z+VifgAA 61+Zv9O44ho" a.cv01.leftS
Substitution2: "+U1VOAGb/Y2IA +Z+VifgAA 60+Zv9O44ho" a.cv01.leftM
Substitution2: "+U1VOAGb/Y2IA +Z+VifgAA 59+Zv9O44ho" a.cv01.leftL
EndChar

StartChar: a.cv01.leftL
Encoding: 65707 -1 338
Width: 600
GlyphClass: 1
Flags: W
LayerCount: 2
Fore
SplineSet
383 97 m 1
 350 29 295 -10 222 -10 c 0
 97 -10 4 108 4 270 c 0
 4 431 97 550 223 550 c 0
 296 550 352 510 385 439 c 1
 390 439 l 1
 390 540 l 1
 469 540 l 1
 469 180 l 2
 469 129 472 63 476 0 c 1
 396 0 l 1
 392 34 389 65 388 97 c 1
 383 97 l 1
387 270 m 0
 387 390 327 474 241 474 c 0
 153 474 89 387 89 270 c 0
 89 153 152 66 240 66 c 0
 326 66 387 150 387 270 c 0
EndSplineSet
Validated: 1
EndChar

StartChar: a.cv01.leftM
Encoding: 65708 -1 339
Width: 600
GlyphClass: 1
Flags: W
LayerCount: 2
Fore
SplineSet
397 97 m 1
 364 29 309 -10 236 -10 c 0
 111 -10 18 108 18 270 c 0
 18 431 111 550 237 550 c 0
 310 550 366 510 399 439 c 1
 404 439 l 1
 404 540 l 1
 483 540 l 1
 483 180 l 2
 483 129 486 63 490 0 c 1
 410 0 l 1
 406 34 403 65 402 97 c 1
 397 97 l 1
401 270 m 0
 401 390 341 474 255 474 c 0
 167 474 103 387 103 270 c 0
 103 153 166 66 254 66 c 0
 340 66 401 150 401 270 c 0
EndSplineSet
Validated: 1
EndChar

StartChar: a.cv01.leftS
Encoding: 65709 -1 340
Width: 600
GlyphClass: 1
Flags: W
LayerCount: 2
Fore
SplineSet
409 97 m 1
 376 29 321 -10 248 -10 c 0
 123 -10 30 108 30 270 c 0
 30 431 123 550 249 550 c 0
 322 550 378 510 411 439 c 1
 416 439 l 1
 416 540 l 1
 495 540 l 1
 495 180 l 2
 495 129 498 63 502 0 c 1
 422 0 l 1
 418 34 415 65 414 97 c 1
 409 97 l 1
413 270 m 0
 413 390 353 474 267 474 c 0
 179 474 115 387 115 270 c 0
 115 153 178 66 266 66 c 0
 352 66 413 150 413 270 c 0
EndSplineSet
Validated: 1
EndChar

StartChar: a.cv01.rightL
Encoding: 65710 -1 341
Width: 600
GlyphClass: 1
Flags: W
LayerCount: 2
Fore
SplineSet
471 97 m 1
 438 29 383 -10 310 -10 c 0
 185 -10 92 108 92 270 c 0
 92 431 185 550 311 550 c 0
 384 550 440 510 473 439 c 1
 478 439 l 1
 478 540 l 1
 557 540 l 1
 557 180 l 2
 557 129 560 63 564 0 c 1
 484 0 l 1
 480 34 477 65 476 97 c 1
 471 97 l 1
475 270 m 0
 475 390 415 474 329 474 c 0
 241 474 177 387 177 270 c 0
 177 153 240 66 328 66 c 0
 414 66 475 150 475 270 c 0
EndSplineSet
Validated: 1
EndChar

StartChar: a.cv01.rightM
Encoding: 65711 -1 342
Width: 600
GlyphClass: 1
Flags: W
LayerCount: 2
Fore
SplineSet
457 97 m 1
 424 29 369 -10 296 -10 c 0
 171 -10 78 108 78 270 c 0
 78 431 171 550 297 550 c 0
 370 550 426 510 459 439 c 1
 464 439 l 1
 464 540 l 1
 543 540 l 1
 543 180 l 2
 543 129 546 63 550 0 c 1
 470 0 l 1
 466 34 463 65 462 97 c 1
 457 97 l 1
461 270 m 0
 461 390 401 474 315 474 c 0
 227 474 163 387 163 270 c 0
 163 153 226 66 314 66 c 0
 400 66 461 150 461 270 c 0
EndSplineSet
Validated: 1
EndChar

StartChar: a.cv01.rightS
Encoding: 65712 -1 343
Width: 600
GlyphClass: 1
Flags: W
LayerCount: 2
Fore
SplineSet
445 97 m 1
 412 29 357 -10 284 -10 c 0
 159 -10 66 108 66 270 c 0
 66 431 159 550 285 550 c 0
 358 550 414 510 447 439 c 1
 452 439 l 1
 452 540 l 1
 531 540 l 1
 531 180 l 2
 531 129 534 63 538 0 c 1
 458 0 l 1
 454 34 451 65 450 97 c 1
 445 97 l 1
449 270 m 0
 449 390 389 474 303 474 c 0
 215 474 151 387 151 270 c 0
 151 153 214 66 302 66 c 0
 388 66 449 150 449 270 c 0
EndSplineSet
Validated: 1
EndChar

StartChar: a.cv08
Encoding: 65713 -1 344
Width: 600
GlyphClass: 1
Flags: W
LayerCount: 2
Fore
SplineSet
412 385 m 0
 412 443 370 479 301 479 c 0
 237 479 189 448 183 402 c 1
 101 402 l 1
 105 488 189 550 301 550 c 0
 418 550 496 484 496 384 c 2
 496 193 l 2
 496 109 502 47 516 0 c 1
 436 0 l 1
 428 22 422 51 418 86 c 1
 414 86 l 1
 383 25 326 -10 253 -10 c 0
 152 -10 81 57 81 154 c 0
 81 253 155 307 307 321 c 2
 357 326 l 2
 395 330 412 348 412 385 c 0
412 285 m 1
 400 276 384 271 364 268 c 2
 316 263 l 2
 211 250 165 218 165 156 c 0
 165 97 206 59 268 59 c 0
 348 59 412 124 412 210 c 2
 412 285 l 1
EndSplineSet
Validated: 1
Substitution2: "+U1VOAGb/Y2IA +Z+VifgAA 72+Zv9O44ho" a.cv08.rightS
Substitution2: "+U1VOAGb/Y2IA +Z+VifgAA 71+Zv9O44ho" a.cv08.rightM
Substitution2: "+U1VOAGb/Y2IA +Z+VifgAA 70+Zv9O44ho" a.cv08.rightL
Substitution2: "+U1VOAGb/Y2IA +Z+VifgAA 69+Zv9O44ho" a.cv08.leftS
Substitution2: "+U1VOAGb/Y2IA +Z+VifgAA 68+Zv9O44ho" a.cv08.leftM
Substitution2: "+U1VOAGb/Y2IA +Z+VifgAA 67+Zv9O44ho" a.cv08.leftL
Substitution2: "+U1VOAGb/Y2IA +Z+VifgAA 66+Zv9O44ho" a.cv08.rightS
Substitution2: "+U1VOAGb/Y2IA +Z+VifgAA 65+Zv9O44ho" a.cv08.rightM
Substitution2: "+U1VOAGb/Y2IA +Z+VifgAA 64+Zv9O44ho" a.cv08.rightS
Substitution2: "+U1VOAGb/Y2IA +Z+VifgAA 63+Zv9O44ho" a.cv08.rightM
Substitution2: "+U1VOAGb/Y2IA +Z+VifgAA 62+Zv9O44ho" a.cv08.rightL
Substitution2: "+U1VOAGb/Y2IA +Z+VifgAA 61+Zv9O44ho" a.cv08.leftS
Substitution2: "+U1VOAGb/Y2IA +Z+VifgAA 60+Zv9O44ho" a.cv08.leftM
Substitution2: "+U1VOAGb/Y2IA +Z+VifgAA 59+Zv9O44ho" a.cv08.leftL
EndChar

StartChar: a.cv08.leftL
Encoding: 65714 -1 345
Width: 600
GlyphClass: 1
Flags: W
LayerCount: 2
Fore
SplineSet
368 385 m 0
 368 443 326 479 257 479 c 0
 193 479 145 448 139 402 c 1
 57 402 l 1
 61 488 145 550 257 550 c 0
 374 550 452 484 452 384 c 2
 452 193 l 2
 452 109 458 47 472 0 c 1
 392 0 l 1
 384 22 378 51 374 86 c 1
 370 86 l 1
 339 25 282 -10 209 -10 c 0
 108 -10 37 57 37 154 c 0
 37 253 111 307 263 321 c 2
 313 326 l 2
 351 330 368 348 368 385 c 0
368 285 m 1
 356 276 340 271 320 268 c 2
 272 263 l 2
 167 250 121 218 121 156 c 0
 121 97 162 59 224 59 c 0
 304 59 368 124 368 210 c 2
 368 285 l 1
EndSplineSet
Validated: 1
EndChar

StartChar: a.cv08.leftM
Encoding: 65715 -1 346
Width: 600
GlyphClass: 1
Flags: W
LayerCount: 2
Fore
SplineSet
382 385 m 0
 382 443 340 479 271 479 c 0
 207 479 159 448 153 402 c 1
 71 402 l 1
 75 488 159 550 271 550 c 0
 388 550 466 484 466 384 c 2
 466 193 l 2
 466 109 472 47 486 0 c 1
 406 0 l 1
 398 22 392 51 388 86 c 1
 384 86 l 1
 353 25 296 -10 223 -10 c 0
 122 -10 51 57 51 154 c 0
 51 253 125 307 277 321 c 2
 327 326 l 2
 365 330 382 348 382 385 c 0
382 285 m 1
 370 276 354 271 334 268 c 2
 286 263 l 2
 181 250 135 218 135 156 c 0
 135 97 176 59 238 59 c 0
 318 59 382 124 382 210 c 2
 382 285 l 1
EndSplineSet
Validated: 1
EndChar

StartChar: a.cv08.leftS
Encoding: 65716 -1 347
Width: 600
GlyphClass: 1
Flags: W
LayerCount: 2
Fore
SplineSet
400 385 m 0
 400 443 358 479 289 479 c 0
 225 479 177 448 171 402 c 1
 89 402 l 1
 93 488 177 550 289 550 c 0
 406 550 484 484 484 384 c 2
 484 193 l 2
 484 109 490 47 504 0 c 1
 424 0 l 1
 416 22 410 51 406 86 c 1
 402 86 l 1
 371 25 314 -10 241 -10 c 0
 140 -10 69 57 69 154 c 0
 69 253 143 307 295 321 c 2
 345 326 l 2
 383 330 400 348 400 385 c 0
400 285 m 1
 388 276 372 271 352 268 c 2
 304 263 l 2
 199 250 153 218 153 156 c 0
 153 97 194 59 256 59 c 0
 336 59 400 124 400 210 c 2
 400 285 l 1
EndSplineSet
Validated: 1
EndChar

StartChar: a.cv08.rightL
Encoding: 65717 -1 348
Width: 600
GlyphClass: 1
Flags: W
LayerCount: 2
Fore
SplineSet
456 385 m 0
 456 443 414 479 345 479 c 0
 281 479 233 448 227 402 c 1
 145 402 l 1
 149 488 233 550 345 550 c 0
 462 550 540 484 540 384 c 2
 540 193 l 2
 540 109 546 47 560 0 c 1
 480 0 l 1
 472 22 466 51 462 86 c 1
 458 86 l 1
 427 25 370 -10 297 -10 c 0
 196 -10 125 57 125 154 c 0
 125 253 199 307 351 321 c 2
 401 326 l 2
 439 330 456 348 456 385 c 0
456 285 m 1
 444 276 428 271 408 268 c 2
 360 263 l 2
 255 250 209 218 209 156 c 0
 209 97 250 59 312 59 c 0
 392 59 456 124 456 210 c 2
 456 285 l 1
EndSplineSet
Validated: 1
EndChar

StartChar: a.cv08.rightM
Encoding: 65718 -1 349
Width: 600
GlyphClass: 1
Flags: W
LayerCount: 2
Fore
SplineSet
439 385 m 0
 439 443 397 479 328 479 c 0
 264 479 216 448 210 402 c 1
 128 402 l 1
 132 488 216 550 328 550 c 0
 445 550 523 484 523 384 c 2
 523 193 l 2
 523 109 529 47 543 0 c 1
 463 0 l 1
 455 22 449 51 445 86 c 1
 441 86 l 1
 410 25 353 -10 280 -10 c 0
 179 -10 108 57 108 154 c 0
 108 253 182 307 334 321 c 2
 384 326 l 2
 422 330 439 348 439 385 c 0
439 285 m 1
 427 276 411 271 391 268 c 2
 343 263 l 2
 238 250 192 218 192 156 c 0
 192 97 233 59 295 59 c 0
 375 59 439 124 439 210 c 2
 439 285 l 1
EndSplineSet
Validated: 1
EndChar

StartChar: a.cv08.rightS
Encoding: 65719 -1 350
Width: 600
GlyphClass: 1
Flags: W
LayerCount: 2
Fore
SplineSet
424 385 m 0
 424 443 382 479 313 479 c 0
 249 479 201 448 195 402 c 1
 113 402 l 1
 117 488 201 550 313 550 c 0
 430 550 508 484 508 384 c 2
 508 193 l 2
 508 109 514 47 528 0 c 1
 448 0 l 1
 440 22 434 51 430 86 c 1
 426 86 l 1
 395 25 338 -10 265 -10 c 0
 164 -10 93 57 93 154 c 0
 93 253 167 307 319 321 c 2
 369 326 l 2
 407 330 424 348 424 385 c 0
424 285 m 1
 412 276 396 271 376 268 c 2
 328 263 l 2
 223 250 177 218 177 156 c 0
 177 97 218 59 280 59 c 0
 360 59 424 124 424 210 c 2
 424 285 l 1
EndSplineSet
Validated: 1
EndChar

StartChar: a.leftL
Encoding: 65720 -1 351
Width: 600
GlyphClass: 1
Flags: W
LayerCount: 2
Fore
SplineSet
472 0 m 1
 392 0 l 1
 384 22 378 51 374 86 c 1
 370 86 l 1
 339 25 282 -10 209 -10 c 0
 108 -10 37 57 37 154 c 0
 37 302 200 316 313 326 c 0
 351 330 368 348 368 384 c 0
 368 443 324 479 253 479 c 0
 188 479 138 448 132 402 c 1
 50 402 l 1
 54 488 140 550 254 550 c 0
 372 550 452 484 452 384 c 2
 452 193 l 2
 452 109 458 47 472 0 c 1
368 285 m 1
 356 276 340 271 320 268 c 0
 309 267 280 264 272 263 c 0
 167 250 121 218 121 156 c 0
 121 97 162 59 224 59 c 0
 304 59 368 124 368 210 c 2
 368 285 l 1
EndSplineSet
Validated: 1
Substitution2: "'cv08' +W1d7JlPYT1MA-08 +Z+VifgAA 7+Zv9O44ho" a.cv08.leftL
Substitution2: "'cv01' +W1d7JlPYT1MA-01 +Z+VifgAA 0+Zv9O44ho" a.cv01.leftL
EndChar

StartChar: a.leftM
Encoding: 65721 -1 352
Width: 600
GlyphClass: 1
Flags: W
LayerCount: 2
Fore
SplineSet
486 0 m 1
 406 0 l 1
 398 22 392 51 388 86 c 1
 384 86 l 1
 353 25 296 -10 223 -10 c 0
 122 -10 51 57 51 154 c 0
 51 302 214 316 327 326 c 0
 365 330 382 348 382 384 c 0
 382 443 338 479 267 479 c 0
 202 479 152 448 146 402 c 1
 64 402 l 1
 68 488 154 550 268 550 c 0
 386 550 466 484 466 384 c 2
 466 193 l 2
 466 109 472 47 486 0 c 1
382 285 m 1
 370 276 354 271 334 268 c 0
 323 267 294 264 286 263 c 0
 181 250 135 218 135 156 c 0
 135 97 176 59 238 59 c 0
 318 59 382 124 382 210 c 2
 382 285 l 1
EndSplineSet
Validated: 1
Substitution2: "'cv08' +W1d7JlPYT1MA-08 +Z+VifgAA 7+Zv9O44ho" a.cv08.leftM
Substitution2: "'cv01' +W1d7JlPYT1MA-01 +Z+VifgAA 0+Zv9O44ho" a.cv01.leftM
EndChar

StartChar: a.leftS
Encoding: 65722 -1 353
Width: 600
GlyphClass: 1
Flags: W
LayerCount: 2
Fore
SplineSet
498 0 m 1
 418 0 l 1
 410 22 404 51 400 86 c 1
 396 86 l 1
 365 25 308 -10 235 -10 c 0
 134 -10 63 57 63 154 c 0
 63 302 226 316 339 326 c 0
 377 330 394 348 394 384 c 0
 394 443 350 479 279 479 c 0
 214 479 164 448 158 402 c 1
 76 402 l 1
 80 488 166 550 280 550 c 0
 398 550 478 484 478 384 c 2
 478 193 l 2
 478 109 484 47 498 0 c 1
394 285 m 1
 382 276 366 271 346 268 c 0
 335 267 306 264 298 263 c 0
 193 250 147 218 147 156 c 0
 147 97 188 59 250 59 c 0
 330 59 394 124 394 210 c 2
 394 285 l 1
EndSplineSet
Validated: 1
Substitution2: "'cv08' +W1d7JlPYT1MA-08 +Z+VifgAA 7+Zv9O44ho" a.cv08.leftS
Substitution2: "'cv01' +W1d7JlPYT1MA-01 +Z+VifgAA 0+Zv9O44ho" a.cv01.leftS
EndChar

StartChar: a.rightL
Encoding: 65723 -1 354
Width: 600
GlyphClass: 1
Flags: W
LayerCount: 2
Fore
SplineSet
560 0 m 1
 480 0 l 1
 472 22 466 51 462 86 c 1
 458 86 l 1
 427 25 370 -10 297 -10 c 0
 196 -10 125 57 125 154 c 0
 125 302 288 316 401 326 c 0
 439 330 456 348 456 384 c 0
 456 443 412 479 341 479 c 0
 276 479 226 448 220 402 c 1
 138 402 l 1
 142 488 228 550 342 550 c 0
 460 550 540 484 540 384 c 2
 540 193 l 2
 540 109 546 47 560 0 c 1
456 285 m 1
 444 276 428 271 408 268 c 0
 397 267 368 264 360 263 c 0
 255 250 209 218 209 156 c 0
 209 97 250 59 312 59 c 0
 392 59 456 124 456 210 c 2
 456 285 l 1
EndSplineSet
Validated: 1
Substitution2: "'cv08' +W1d7JlPYT1MA-08 +Z+VifgAA 7+Zv9O44ho" a.cv08.rightL
Substitution2: "'cv01' +W1d7JlPYT1MA-01 +Z+VifgAA 0+Zv9O44ho" a.cv01.rightL
EndChar

StartChar: a.rightM
Encoding: 65724 -1 355
Width: 600
GlyphClass: 1
Flags: W
LayerCount: 2
Fore
SplineSet
546 0 m 1
 466 0 l 1
 458 22 452 51 448 86 c 1
 444 86 l 1
 413 25 356 -10 283 -10 c 0
 182 -10 111 57 111 154 c 0
 111 302 274 316 387 326 c 0
 425 330 442 348 442 384 c 0
 442 443 398 479 327 479 c 0
 262 479 212 448 206 402 c 1
 124 402 l 1
 128 488 214 550 328 550 c 0
 446 550 526 484 526 384 c 2
 526 193 l 2
 526 109 532 47 546 0 c 1
442 285 m 1
 430 276 414 271 394 268 c 0
 383 267 354 264 346 263 c 0
 241 250 195 218 195 156 c 0
 195 97 236 59 298 59 c 0
 378 59 442 124 442 210 c 2
 442 285 l 1
EndSplineSet
Validated: 1
Substitution2: "'cv08' +W1d7JlPYT1MA-08 +Z+VifgAA 7+Zv9O44ho" a.cv08.rightM
Substitution2: "'cv01' +W1d7JlPYT1MA-01 +Z+VifgAA 0+Zv9O44ho" a.cv01.rightM
EndChar

StartChar: a.rightS
Encoding: 65725 -1 356
Width: 600
GlyphClass: 1
Flags: W
LayerCount: 2
Fore
SplineSet
534 0 m 1
 454 0 l 1
 446 22 440 51 436 86 c 1
 432 86 l 1
 401 25 344 -10 271 -10 c 0
 170 -10 99 57 99 154 c 0
 99 302 262 316 375 326 c 0
 413 330 430 348 430 384 c 0
 430 443 386 479 315 479 c 0
 250 479 200 448 194 402 c 1
 112 402 l 1
 116 488 202 550 316 550 c 0
 434 550 514 484 514 384 c 2
 514 193 l 2
 514 109 520 47 534 0 c 1
430 285 m 1
 418 276 402 271 382 268 c 0
 371 267 342 264 334 263 c 0
 229 250 183 218 183 156 c 0
 183 97 224 59 286 59 c 0
 366 59 430 124 430 210 c 2
 430 285 l 1
EndSplineSet
Validated: 1
Substitution2: "'cv08' +W1d7JlPYT1MA-08 +Z+VifgAA 7+Zv9O44ho" a.cv08.rightS
Substitution2: "'cv01' +W1d7JlPYT1MA-01 +Z+VifgAA 0+Zv9O44ho" a.cv01.rightS
EndChar

StartChar: aacute
Encoding: 225 225 357
Width: 600
GlyphClass: 1
Flags: W
LayerCount: 2
Fore
SplineSet
516 0 m 1
 436 0 l 1
 428 22 422 51 418 86 c 1
 414 86 l 1
 383 25 326 -10 253 -10 c 0
 152 -10 81 57 81 154 c 0
 81 302 244 316 357 326 c 0
 395 330 412 348 412 384 c 0
 412 443 368 479 297 479 c 0
 232 479 182 448 176 402 c 1
 94 402 l 1
 98 488 184 550 298 550 c 0
 416 550 496 484 496 384 c 2
 496 193 l 2
 496 109 502 47 516 0 c 1
412 285 m 1
 400 276 384 271 364 268 c 0
 353 267 324 264 316 263 c 0
 211 250 165 218 165 156 c 0
 165 97 206 59 268 59 c 0
 348 59 412 124 412 210 c 2
 412 285 l 1
432 817 m 1
 316 632 l 1
 243 632 l 1
 321 817 l 1
 432 817 l 1
EndSplineSet
Validated: 1
Substitution2: "'cv08' +W1d7JlPYT1MA-08 +Z+VifgAA 7+Zv9O44ho" aacute.cv08
Substitution2: "'cv01' +W1d7JlPYT1MA-01 +Z+VifgAA 0+Zv9O44ho" aacute.cv01
EndChar

StartChar: aacute.cv01
Encoding: 65726 -1 358
Width: 600
GlyphClass: 1
Flags: W
LayerCount: 2
Fore
SplineSet
427 97 m 1
 394 29 339 -10 266 -10 c 0
 141 -10 48 108 48 270 c 0
 48 431 141 550 267 550 c 0
 340 550 396 510 429 439 c 1
 434 439 l 1
 434 540 l 1
 513 540 l 1
 513 180 l 2
 513 129 516 63 520 0 c 1
 440 0 l 1
 436 34 433 65 432 97 c 1
 427 97 l 1
431 270 m 0
 431 390 371 474 285 474 c 0
 197 474 133 387 133 270 c 0
 133 153 196 66 284 66 c 0
 370 66 431 150 431 270 c 0
416 817 m 1
 300 632 l 1
 227 632 l 1
 305 817 l 1
 416 817 l 1
EndSplineSet
Validated: 1
EndChar

StartChar: aacute.cv08
Encoding: 65727 -1 359
Width: 600
GlyphClass: 1
Flags: W
LayerCount: 2
Fore
SplineSet
412 385 m 0
 412 443 370 479 301 479 c 0
 237 479 189 448 183 402 c 1
 101 402 l 1
 105 488 189 550 301 550 c 0
 418 550 496 484 496 384 c 2
 496 193 l 2
 496 109 502 47 516 0 c 1
 436 0 l 1
 428 22 422 51 418 86 c 1
 414 86 l 1
 383 25 326 -10 253 -10 c 0
 152 -10 81 57 81 154 c 0
 81 253 155 307 307 321 c 2
 357 326 l 2
 395 330 412 348 412 385 c 0
412 285 m 1
 400 276 384 271 364 268 c 2
 316 263 l 2
 211 250 165 218 165 156 c 0
 165 97 206 59 268 59 c 0
 348 59 412 124 412 210 c 2
 412 285 l 1
432 817 m 1
 316 632 l 1
 243 632 l 1
 321 817 l 1
 432 817 l 1
EndSplineSet
Validated: 1
EndChar

StartChar: abreve
Encoding: 259 259 360
Width: 600
GlyphClass: 1
Flags: W
LayerCount: 2
Fore
SplineSet
516 0 m 1
 436 0 l 1
 428 22 422 51 418 86 c 1
 414 86 l 1
 383 25 326 -10 253 -10 c 0
 152 -10 81 57 81 154 c 0
 81 302 244 316 357 326 c 0
 395 330 412 348 412 384 c 0
 412 443 368 479 297 479 c 0
 232 479 182 448 176 402 c 1
 94 402 l 1
 98 488 184 550 298 550 c 0
 416 550 496 484 496 384 c 2
 496 193 l 2
 496 109 502 47 516 0 c 1
412 285 m 1
 400 276 384 271 364 268 c 0
 353 267 324 264 316 263 c 0
 211 250 165 218 165 156 c 0
 165 97 206 59 268 59 c 0
 348 59 412 124 412 210 c 2
 412 285 l 1
233 763 m 1
 237 719 263 690 298 690 c 0
 333 690 359 719 363 763 c 1
 432 763 l 1
 432 683 376 626 298 626 c 0
 220 626 164 683 164 763 c 1
 233 763 l 1
EndSplineSet
Validated: 1
Substitution2: "'cv08' +W1d7JlPYT1MA-08 +Z+VifgAA 7+Zv9O44ho" abreve.cv08
Substitution2: "'cv01' +W1d7JlPYT1MA-01 +Z+VifgAA 0+Zv9O44ho" abreve.cv01
EndChar

StartChar: abreve.cv01
Encoding: 65728 -1 361
Width: 600
GlyphClass: 1
Flags: W
LayerCount: 2
Fore
SplineSet
427 97 m 1
 394 29 339 -10 266 -10 c 0
 141 -10 48 108 48 270 c 0
 48 431 141 550 267 550 c 0
 340 550 396 510 429 439 c 1
 434 439 l 1
 434 540 l 1
 513 540 l 1
 513 180 l 2
 513 129 516 63 520 0 c 1
 440 0 l 1
 436 34 433 65 432 97 c 1
 427 97 l 1
431 270 m 0
 431 390 371 474 285 474 c 0
 197 474 133 387 133 270 c 0
 133 153 196 66 284 66 c 0
 370 66 431 150 431 270 c 0
217 763 m 1
 221 719 247 690 282 690 c 0
 317 690 343 719 347 763 c 1
 416 763 l 1
 416 683 360 626 282 626 c 0
 204 626 148 683 148 763 c 1
 217 763 l 1
EndSplineSet
Validated: 1
EndChar

StartChar: abreve.cv08
Encoding: 65729 -1 362
Width: 600
GlyphClass: 1
Flags: W
LayerCount: 2
Fore
SplineSet
412 385 m 0
 412 443 370 479 301 479 c 0
 237 479 189 448 183 402 c 1
 101 402 l 1
 105 488 189 550 301 550 c 0
 418 550 496 484 496 384 c 2
 496 193 l 2
 496 109 502 47 516 0 c 1
 436 0 l 1
 428 22 422 51 418 86 c 1
 414 86 l 1
 383 25 326 -10 253 -10 c 0
 152 -10 81 57 81 154 c 0
 81 253 155 307 307 321 c 2
 357 326 l 2
 395 330 412 348 412 385 c 0
412 285 m 1
 400 276 384 271 364 268 c 2
 316 263 l 2
 211 250 165 218 165 156 c 0
 165 97 206 59 268 59 c 0
 348 59 412 124 412 210 c 2
 412 285 l 1
233 763 m 1
 237 719 263 690 298 690 c 0
 333 690 359 719 363 763 c 1
 432 763 l 1
 432 683 376 626 298 626 c 0
 220 626 164 683 164 763 c 1
 233 763 l 1
EndSplineSet
Validated: 1
EndChar

StartChar: acircumflex
Encoding: 226 226 363
Width: 600
GlyphClass: 1
Flags: W
LayerCount: 2
Fore
SplineSet
516 0 m 1
 436 0 l 1
 428 22 422 51 418 86 c 1
 414 86 l 1
 383 25 326 -10 253 -10 c 0
 152 -10 81 57 81 154 c 0
 81 302 244 316 357 326 c 0
 395 330 412 348 412 384 c 0
 412 443 368 479 297 479 c 0
 232 479 182 448 176 402 c 1
 94 402 l 1
 98 488 184 550 298 550 c 0
 416 550 496 484 496 384 c 2
 496 193 l 2
 496 109 502 47 516 0 c 1
412 285 m 1
 400 276 384 271 364 268 c 0
 353 267 324 264 316 263 c 0
 211 250 165 218 165 156 c 0
 165 97 206 59 268 59 c 0
 348 59 412 124 412 210 c 2
 412 285 l 1
143 625 m 1
 254 801 l 1
 342 801 l 1
 453 625 l 1
 380 625 l 1
 298 729 l 1
 216 625 l 1
 143 625 l 1
EndSplineSet
Validated: 1
Substitution2: "'cv08' +W1d7JlPYT1MA-08 +Z+VifgAA 7+Zv9O44ho" acircumflex.cv08
Substitution2: "'cv01' +W1d7JlPYT1MA-01 +Z+VifgAA 0+Zv9O44ho" acircumflex.cv01
EndChar

StartChar: acircumflex.cv01
Encoding: 65730 -1 364
Width: 600
GlyphClass: 1
Flags: W
LayerCount: 2
Fore
SplineSet
427 97 m 1
 394 29 339 -10 266 -10 c 0
 141 -10 48 108 48 270 c 0
 48 431 141 550 267 550 c 0
 340 550 396 510 429 439 c 1
 434 439 l 1
 434 540 l 1
 513 540 l 1
 513 180 l 2
 513 129 516 63 520 0 c 1
 440 0 l 1
 436 34 433 65 432 97 c 1
 427 97 l 1
431 270 m 0
 431 390 371 474 285 474 c 0
 197 474 133 387 133 270 c 0
 133 153 196 66 284 66 c 0
 370 66 431 150 431 270 c 0
127 625 m 1
 238 801 l 1
 326 801 l 1
 437 625 l 1
 364 625 l 1
 282 729 l 1
 200 625 l 1
 127 625 l 1
EndSplineSet
Validated: 1
EndChar

StartChar: acircumflex.cv08
Encoding: 65731 -1 365
Width: 600
GlyphClass: 1
Flags: W
LayerCount: 2
Fore
SplineSet
412 385 m 0
 412 443 370 479 301 479 c 0
 237 479 189 448 183 402 c 1
 101 402 l 1
 105 488 189 550 301 550 c 0
 418 550 496 484 496 384 c 2
 496 193 l 2
 496 109 502 47 516 0 c 1
 436 0 l 1
 428 22 422 51 418 86 c 1
 414 86 l 1
 383 25 326 -10 253 -10 c 0
 152 -10 81 57 81 154 c 0
 81 253 155 307 307 321 c 2
 357 326 l 2
 395 330 412 348 412 385 c 0
412 285 m 1
 400 276 384 271 364 268 c 2
 316 263 l 2
 211 250 165 218 165 156 c 0
 165 97 206 59 268 59 c 0
 348 59 412 124 412 210 c 2
 412 285 l 1
143 625 m 1
 254 801 l 1
 342 801 l 1
 453 625 l 1
 380 625 l 1
 298 729 l 1
 216 625 l 1
 143 625 l 1
EndSplineSet
Validated: 1
EndChar

StartChar: uni2406
Encoding: 9222 9222 366
Width: 600
GlyphClass: 1
Flags: W
LayerCount: 2
Fore
SplineSet
68 625 m 1
 12 625 l 1
 110 975 l 1
 190 975 l 1
 288 625 l 1
 231 625 l 1
 205 719 l 1
 94 719 l 1
 68 625 l 1
108 770 m 1
 191 770 l 1
 151 916 l 1
 149 916 l 1
 108 770 l 1
369 269 m 1
 427 269 l 1
 421 211 373 170 313 170 c 0
 233 170 177 244 177 350 c 0
 177 457 233 530 312 530 c 0
 370 530 416 491 424 436 c 1
 367 436 l 1
 360 461 339 477 312 477 c 0
 265 477 235 428 235 350 c 0
 235 273 266 223 314 223 c 0
 342 223 364 241 369 269 c 1
390 75 m 1
 390 -85 l 1
 524 75 l 1
 594 75 l 1
 472 -70 l 1
 600 -275 l 1
 534 -275 l 1
 434 -116 l 1
 390 -168 l 1
 390 -275 l 1
 331 -275 l 1
 331 75 l 1
 390 75 l 1
EndSplineSet
Validated: 1
EndChar

StartChar: acute
Encoding: 180 180 367
Width: 600
GlyphClass: 1
Flags: W
LayerCount: 2
Fore
SplineSet
446 780 m 1
 244 536 l 1
 154 536 l 1
 321 780 l 1
 446 780 l 1
EndSplineSet
Validated: 1
EndChar

StartChar: acutecomb
Encoding: 769 769 368
Width: 600
GlyphClass: 1
Flags: W
LayerCount: 2
Fore
SplineSet
395 817 m 1
 279 632 l 1
 206 632 l 1
 284 817 l 1
 395 817 l 1
EndSplineSet
Validated: 1
EndChar

StartChar: adieresis
Encoding: 228 228 369
Width: 600
GlyphClass: 1
Flags: W
LayerCount: 2
Fore
SplineSet
516 0 m 1
 436 0 l 1
 428 22 422 51 418 86 c 1
 414 86 l 1
 383 25 326 -10 253 -10 c 0
 152 -10 81 57 81 154 c 0
 81 302 244 316 357 326 c 0
 395 330 412 348 412 384 c 0
 412 443 368 479 297 479 c 0
 232 479 182 448 176 402 c 1
 94 402 l 1
 98 488 184 550 298 550 c 0
 416 550 496 484 496 384 c 2
 496 193 l 2
 496 109 502 47 516 0 c 1
412 285 m 1
 400 276 384 271 364 268 c 0
 353 267 324 264 316 263 c 0
 211 250 165 218 165 156 c 0
 165 97 206 59 268 59 c 0
 348 59 412 124 412 210 c 2
 412 285 l 1
126 715 m 0
 126 753 156 783 194 783 c 0
 233 783 262 753 262 715 c 0
 262 677 233 646 194 646 c 0
 156 646 126 677 126 715 c 0
334 715 m 0
 334 753 364 783 402 783 c 0
 441 783 470 753 470 715 c 0
 470 677 441 646 402 646 c 0
 364 646 334 677 334 715 c 0
EndSplineSet
Validated: 1
Substitution2: "'cv08' +W1d7JlPYT1MA-08 +Z+VifgAA 7+Zv9O44ho" adieresis.cv08
Substitution2: "'cv03' +W1d7JlPYT1MA-03 +Z+VifgAA 2+Zv9O44ho" adieresis.square
Substitution2: "'cv01' +W1d7JlPYT1MA-01 +Z+VifgAA 0+Zv9O44ho" adieresis.cv01
EndChar

StartChar: adieresis.cv01
Encoding: 65732 -1 370
Width: 600
GlyphClass: 1
Flags: W
LayerCount: 2
Fore
SplineSet
427 97 m 1
 394 29 339 -10 266 -10 c 0
 141 -10 48 108 48 270 c 0
 48 431 141 550 267 550 c 0
 340 550 396 510 429 439 c 1
 434 439 l 1
 434 540 l 1
 513 540 l 1
 513 180 l 2
 513 129 516 63 520 0 c 1
 440 0 l 1
 436 34 433 65 432 97 c 1
 427 97 l 1
431 270 m 0
 431 390 371 474 285 474 c 0
 197 474 133 387 133 270 c 0
 133 153 196 66 284 66 c 0
 370 66 431 150 431 270 c 0
110 715 m 0
 110 753 140 783 178 783 c 0
 217 783 246 753 246 715 c 0
 246 677 217 646 178 646 c 0
 140 646 110 677 110 715 c 0
318 715 m 0
 318 753 348 783 386 783 c 0
 425 783 454 753 454 715 c 0
 454 677 425 646 386 646 c 0
 348 646 318 677 318 715 c 0
EndSplineSet
Validated: 1
EndChar

StartChar: adieresis.cv08
Encoding: 65733 -1 371
Width: 600
GlyphClass: 1
Flags: W
LayerCount: 2
Fore
SplineSet
412 385 m 0
 412 443 370 479 301 479 c 0
 237 479 189 448 183 402 c 1
 101 402 l 1
 105 488 189 550 301 550 c 0
 418 550 496 484 496 384 c 2
 496 193 l 2
 496 109 502 47 516 0 c 1
 436 0 l 1
 428 22 422 51 418 86 c 1
 414 86 l 1
 383 25 326 -10 253 -10 c 0
 152 -10 81 57 81 154 c 0
 81 253 155 307 307 321 c 2
 357 326 l 2
 395 330 412 348 412 385 c 0
412 285 m 1
 400 276 384 271 364 268 c 2
 316 263 l 2
 211 250 165 218 165 156 c 0
 165 97 206 59 268 59 c 0
 348 59 412 124 412 210 c 2
 412 285 l 1
126 715 m 0
 126 753 156 783 194 783 c 0
 233 783 262 753 262 715 c 0
 262 677 233 646 194 646 c 0
 156 646 126 677 126 715 c 0
334 715 m 0
 334 753 364 783 402 783 c 0
 441 783 470 753 470 715 c 0
 470 677 441 646 402 646 c 0
 364 646 334 677 334 715 c 0
EndSplineSet
Validated: 1
Substitution2: "'cv03' +W1d7JlPYT1MA-03 +Z+VifgAA 2+Zv9O44ho" adieresis.square.cv08
EndChar

StartChar: adieresis.square
Encoding: 65734 -1 372
Width: 600
GlyphClass: 1
Flags: W
LayerCount: 2
Fore
SplineSet
516 0 m 1
 436 0 l 1
 428 22 422 51 418 86 c 1
 414 86 l 1
 383 25 326 -10 253 -10 c 0
 152 -10 81 57 81 154 c 0
 81 302 244 316 357 326 c 0
 395 330 412 348 412 384 c 0
 412 443 368 479 297 479 c 0
 232 479 182 448 176 402 c 1
 94 402 l 1
 98 488 184 550 298 550 c 0
 416 550 496 484 496 384 c 2
 496 193 l 2
 496 109 502 47 516 0 c 1
412 285 m 1
 400 276 384 271 364 268 c 0
 353 267 324 264 316 263 c 0
 211 250 165 218 165 156 c 0
 165 97 206 59 268 59 c 0
 348 59 412 124 412 210 c 2
 412 285 l 1
133 650 m 1
 133 771 l 1
 255 771 l 1
 255 650 l 1
 133 650 l 1
341 650 m 1
 341 771 l 1
 463 771 l 1
 463 650 l 1
 341 650 l 1
EndSplineSet
Validated: 1
Substitution2: "'cv08' +W1d7JlPYT1MA-08 +Z+VifgAA 7+Zv9O44ho" adieresis.square.cv08
Substitution2: "'cv01' +W1d7JlPYT1MA-01 +Z+VifgAA 0+Zv9O44ho" adieresis.square.cv01
EndChar

StartChar: adieresis.square.cv01
Encoding: 65735 -1 373
Width: 600
GlyphClass: 1
Flags: W
LayerCount: 2
Fore
SplineSet
427 97 m 1
 394 29 339 -10 266 -10 c 0
 141 -10 48 108 48 270 c 0
 48 431 141 550 267 550 c 0
 340 550 396 510 429 439 c 1
 434 439 l 1
 434 540 l 1
 513 540 l 1
 513 180 l 2
 513 129 516 63 520 0 c 1
 440 0 l 1
 436 34 433 65 432 97 c 1
 427 97 l 1
431 270 m 0
 431 390 371 474 285 474 c 0
 197 474 133 387 133 270 c 0
 133 153 196 66 284 66 c 0
 370 66 431 150 431 270 c 0
117 650 m 1
 117 771 l 1
 239 771 l 1
 239 650 l 1
 117 650 l 1
325 650 m 1
 325 771 l 1
 447 771 l 1
 447 650 l 1
 325 650 l 1
EndSplineSet
Validated: 1
EndChar

StartChar: adieresis.square.cv08
Encoding: 65736 -1 374
Width: 600
GlyphClass: 1
Flags: W
LayerCount: 2
Fore
SplineSet
412 385 m 0
 412 443 370 479 301 479 c 0
 237 479 189 448 183 402 c 1
 101 402 l 1
 105 488 189 550 301 550 c 0
 418 550 496 484 496 384 c 2
 496 193 l 2
 496 109 502 47 516 0 c 1
 436 0 l 1
 428 22 422 51 418 86 c 1
 414 86 l 1
 383 25 326 -10 253 -10 c 0
 152 -10 81 57 81 154 c 0
 81 253 155 307 307 321 c 2
 357 326 l 2
 395 330 412 348 412 385 c 0
412 285 m 1
 400 276 384 271 364 268 c 2
 316 263 l 2
 211 250 165 218 165 156 c 0
 165 97 206 59 268 59 c 0
 348 59 412 124 412 210 c 2
 412 285 l 1
133 650 m 1
 133 771 l 1
 255 771 l 1
 255 650 l 1
 133 650 l 1
341 650 m 1
 341 771 l 1
 463 771 l 1
 463 650 l 1
 341 650 l 1
EndSplineSet
Validated: 1
EndChar

StartChar: ae
Encoding: 230 230 375
Width: 600
GlyphClass: 1
Flags: W
LayerCount: 2
Fore
SplineSet
152 -10 m 0
 72 -10 16 54 16 146 c 0
 16 250 90 317 205 317 c 2
 252 317 l 1
 252 343 l 2
 252 422 217 480 169 480 c 0
 134 480 102 448 97 402 c 1
 24 402 l 1
 29 487 89 550 165 550 c 0
 227 550 274 508 295 437 c 1
 300 437 l 1
 325 509 368 550 425 550 c 0
 520 550 584 441 584 284 c 2
 584 252 l 1
 333 252 l 1
 336 133 374 59 430 59 c 0
 468 59 502 92 509 138 c 1
 579 138 l 1
 569 52 507 -10 431 -10 c 0
 369 -10 322 33 296 109 c 1
 292 109 l 1
 268 34 217 -10 152 -10 c 0
334 317 m 1
 509 317 l 1
 506 419 473 481 423 481 c 0
 374 481 341 419 334 317 c 1
252 252 m 1
 205 252 l 2
 134 252 91 213 91 147 c 0
 91 95 118 59 157 59 c 0
 211 59 252 131 252 226 c 2
 252 252 l 1
EndSplineSet
Validated: 1
EndChar

StartChar: aeacute
Encoding: 509 509 376
Width: 600
GlyphClass: 1
Flags: W
LayerCount: 2
Fore
SplineSet
152 -10 m 0
 72 -10 16 54 16 146 c 0
 16 250 90 317 205 317 c 2
 252 317 l 1
 252 343 l 2
 252 422 217 480 169 480 c 0
 134 480 102 448 97 402 c 1
 24 402 l 1
 29 487 89 550 165 550 c 0
 227 550 274 508 295 437 c 1
 300 437 l 1
 325 509 368 550 425 550 c 0
 520 550 584 441 584 284 c 2
 584 252 l 1
 333 252 l 1
 336 133 374 59 430 59 c 0
 468 59 502 92 509 138 c 1
 579 138 l 1
 569 52 507 -10 431 -10 c 0
 369 -10 322 33 296 109 c 1
 292 109 l 1
 268 34 217 -10 152 -10 c 0
334 317 m 1
 509 317 l 1
 506 419 473 481 423 481 c 0
 374 481 341 419 334 317 c 1
252 252 m 1
 205 252 l 2
 134 252 91 213 91 147 c 0
 91 95 118 59 157 59 c 0
 211 59 252 131 252 226 c 2
 252 252 l 1
433 816 m 1
 317 631 l 1
 244 631 l 1
 322 816 l 1
 433 816 l 1
EndSplineSet
Validated: 1
EndChar

StartChar: agrave
Encoding: 224 224 377
Width: 600
GlyphClass: 1
Flags: W
LayerCount: 2
Fore
SplineSet
516 0 m 1
 436 0 l 1
 428 22 422 51 418 86 c 1
 414 86 l 1
 383 25 326 -10 253 -10 c 0
 152 -10 81 57 81 154 c 0
 81 302 244 316 357 326 c 0
 395 330 412 348 412 384 c 0
 412 443 368 479 297 479 c 0
 232 479 182 448 176 402 c 1
 94 402 l 1
 98 488 184 550 298 550 c 0
 416 550 496 484 496 384 c 2
 496 193 l 2
 496 109 502 47 516 0 c 1
412 285 m 1
 400 276 384 271 364 268 c 0
 353 267 324 264 316 263 c 0
 211 250 165 218 165 156 c 0
 165 97 206 59 268 59 c 0
 348 59 412 124 412 210 c 2
 412 285 l 1
353 632 m 1
 280 632 l 1
 164 817 l 1
 275 817 l 1
 353 632 l 1
EndSplineSet
Validated: 1
Substitution2: "'cv08' +W1d7JlPYT1MA-08 +Z+VifgAA 7+Zv9O44ho" agrave.cv08
Substitution2: "'cv01' +W1d7JlPYT1MA-01 +Z+VifgAA 0+Zv9O44ho" agrave.cv01
EndChar

StartChar: agrave.cv01
Encoding: 65737 -1 378
Width: 600
GlyphClass: 1
Flags: W
LayerCount: 2
Fore
SplineSet
427 97 m 1
 394 29 339 -10 266 -10 c 0
 141 -10 48 108 48 270 c 0
 48 431 141 550 267 550 c 0
 340 550 396 510 429 439 c 1
 434 439 l 1
 434 540 l 1
 513 540 l 1
 513 180 l 2
 513 129 516 63 520 0 c 1
 440 0 l 1
 436 34 433 65 432 97 c 1
 427 97 l 1
431 270 m 0
 431 390 371 474 285 474 c 0
 197 474 133 387 133 270 c 0
 133 153 196 66 284 66 c 0
 370 66 431 150 431 270 c 0
337 632 m 1
 264 632 l 1
 148 817 l 1
 259 817 l 1
 337 632 l 1
EndSplineSet
Validated: 1
EndChar

StartChar: agrave.cv08
Encoding: 65738 -1 379
Width: 600
GlyphClass: 1
Flags: W
LayerCount: 2
Fore
SplineSet
412 385 m 0
 412 443 370 479 301 479 c 0
 237 479 189 448 183 402 c 1
 101 402 l 1
 105 488 189 550 301 550 c 0
 418 550 496 484 496 384 c 2
 496 193 l 2
 496 109 502 47 516 0 c 1
 436 0 l 1
 428 22 422 51 418 86 c 1
 414 86 l 1
 383 25 326 -10 253 -10 c 0
 152 -10 81 57 81 154 c 0
 81 253 155 307 307 321 c 2
 357 326 l 2
 395 330 412 348 412 385 c 0
412 285 m 1
 400 276 384 271 364 268 c 2
 316 263 l 2
 211 250 165 218 165 156 c 0
 165 97 206 59 268 59 c 0
 348 59 412 124 412 210 c 2
 412 285 l 1
353 632 m 1
 280 632 l 1
 164 817 l 1
 275 817 l 1
 353 632 l 1
EndSplineSet
Validated: 1
EndChar

StartChar: alpha
Encoding: 945 945 380
Width: 600
GlyphClass: 1
Flags: W
LayerCount: 2
Fore
SplineSet
263 550 m 0
 343 550 404 501 439 408 c 1
 468 540 l 1
 552 540 l 1
 495 270 l 1
 552 0 l 1
 468 0 l 1
 439 132 l 1
 404 39 343 -10 264 -10 c 0
 139 -10 48 109 48 270 c 0
 48 432 139 550 263 550 c 0
408 220 m 2
 418 270 l 1
 408 320 l 2
 387 419 339 474 274 474 c 0
 192 474 133 388 133 270 c 0
 133 152 192 66 274 66 c 0
 339 66 387 121 408 220 c 2
EndSplineSet
Validated: 1
EndChar

StartChar: alphatonos
Encoding: 940 940 381
Width: 600
GlyphClass: 1
Flags: W
LayerCount: 2
Fore
SplineSet
263 550 m 0
 343 550 404 501 439 408 c 1
 468 540 l 1
 552 540 l 1
 495 270 l 1
 552 0 l 1
 468 0 l 1
 439 132 l 1
 404 39 343 -10 264 -10 c 0
 139 -10 48 109 48 270 c 0
 48 432 139 550 263 550 c 0
408 220 m 2
 418 270 l 1
 408 320 l 2
 387 419 339 474 274 474 c 0
 192 474 133 388 133 270 c 0
 133 152 192 66 274 66 c 0
 339 66 387 121 408 220 c 2
378 827 m 1
 312 625 l 1
 245 625 l 1
 279 827 l 1
 378 827 l 1
EndSplineSet
Validated: 1
EndChar

StartChar: uni2387
Encoding: 9095 9095 382
Width: 600
GlyphClass: 1
Flags: W
LayerCount: 2
Fore
SplineSet
425 628 m 1
 171 1 l 1
 6 1 l 1
 6 74 l 1
 122 74 l 1
 376 702 l 1
 594 702 l 1
 594 628 l 1
 425 628 l 1
594 1 m 1
 343 1 l 1
 343 74 l 1
 594 74 l 1
 594 1 l 1
EndSplineSet
Validated: 1
EndChar

StartChar: amacron
Encoding: 257 257 383
Width: 600
GlyphClass: 1
Flags: W
LayerCount: 2
Fore
SplineSet
516 0 m 1
 436 0 l 1
 428 22 422 51 418 86 c 1
 414 86 l 1
 383 25 326 -10 253 -10 c 0
 152 -10 81 57 81 154 c 0
 81 302 244 316 357 326 c 0
 395 330 412 348 412 384 c 0
 412 443 368 479 297 479 c 0
 232 479 182 448 176 402 c 1
 94 402 l 1
 98 488 184 550 298 550 c 0
 416 550 496 484 496 384 c 2
 496 193 l 2
 496 109 502 47 516 0 c 1
412 285 m 1
 400 276 384 271 364 268 c 0
 353 267 324 264 316 263 c 0
 211 250 165 218 165 156 c 0
 165 97 206 59 268 59 c 0
 348 59 412 124 412 210 c 2
 412 285 l 1
144 670 m 1
 144 740 l 1
 452 740 l 1
 452 670 l 1
 144 670 l 1
EndSplineSet
Validated: 1
Substitution2: "'cv08' +W1d7JlPYT1MA-08 +Z+VifgAA 7+Zv9O44ho" amacron.cv08
Substitution2: "'cv01' +W1d7JlPYT1MA-01 +Z+VifgAA 0+Zv9O44ho" amacron.cv01
EndChar

StartChar: amacron.cv01
Encoding: 65739 -1 384
Width: 600
GlyphClass: 1
Flags: W
LayerCount: 2
Fore
SplineSet
427 97 m 1
 394 29 339 -10 266 -10 c 0
 141 -10 48 108 48 270 c 0
 48 431 141 550 267 550 c 0
 340 550 396 510 429 439 c 1
 434 439 l 1
 434 540 l 1
 513 540 l 1
 513 180 l 2
 513 129 516 63 520 0 c 1
 440 0 l 1
 436 34 433 65 432 97 c 1
 427 97 l 1
431 270 m 0
 431 390 371 474 285 474 c 0
 197 474 133 387 133 270 c 0
 133 153 196 66 284 66 c 0
 370 66 431 150 431 270 c 0
128 670 m 1
 128 740 l 1
 436 740 l 1
 436 670 l 1
 128 670 l 1
EndSplineSet
Validated: 1
EndChar

StartChar: amacron.cv08
Encoding: 65740 -1 385
Width: 600
GlyphClass: 1
Flags: W
LayerCount: 2
Fore
SplineSet
412 385 m 0
 412 443 370 479 301 479 c 0
 237 479 189 448 183 402 c 1
 101 402 l 1
 105 488 189 550 301 550 c 0
 418 550 496 484 496 384 c 2
 496 193 l 2
 496 109 502 47 516 0 c 1
 436 0 l 1
 428 22 422 51 418 86 c 1
 414 86 l 1
 383 25 326 -10 253 -10 c 0
 152 -10 81 57 81 154 c 0
 81 253 155 307 307 321 c 2
 357 326 l 2
 395 330 412 348 412 385 c 0
412 285 m 1
 400 276 384 271 364 268 c 2
 316 263 l 2
 211 250 165 218 165 156 c 0
 165 97 206 59 268 59 c 0
 348 59 412 124 412 210 c 2
 412 285 l 1
144 670 m 1
 144 740 l 1
 452 740 l 1
 452 670 l 1
 144 670 l 1
EndSplineSet
Validated: 1
EndChar

StartChar: ampersand
Encoding: 38 38 386
Width: 600
GlyphClass: 1
Flags: W
LayerCount: 2
Fore
SplineSet
480 0 m 1
 404 87 l 1
 345 22 276 -14 202 -14 c 0
 98 -14 22 60 22 161 c 0
 22 238 67 311 152 373 c 1
 140 387 l 2
 91 443 65 499 65 554 c 0
 65 644 134 710 231 710 c 0
 328 710 398 644 398 555 c 0
 398 489 359 427 288 377 c 2
 268 363 l 1
 399 214 l 1
 421 254 440 300 454 352 c 1
 538 352 l 1
 517 275 488 208 453 152 c 1
 587 0 l 1
 480 0 l 1
209 62 m 0
 260 62 310 92 353 145 c 1
 202 316 l 1
 202 315 l 1
 140 271 107 220 107 166 c 0
 107 105 149 62 209 62 c 0
150 550 m 0
 150 514 169 476 203 436 c 2
 217 420 l 1
 244 439 l 2
 290 473 316 512 316 553 c 0
 316 600 282 635 233 635 c 0
 184 635 150 599 150 550 c 0
EndSplineSet
Validated: 1
EndChar

StartChar: aogonek
Encoding: 261 261 387
Width: 600
GlyphClass: 1
Flags: W
LayerCount: 2
Fore
SplineSet
512 -200 m 1
 501 -203 487 -205 471 -205 c 0
 400 -205 352 -162 352 -101 c 0
 352 -56 378 -16 432 13 c 1
 426 33 421 58 418 86 c 1
 414 86 l 1
 383 25 326 -10 253 -10 c 0
 152 -10 81 57 81 154 c 0
 81 302 244 316 357 326 c 0
 395 330 412 348 412 384 c 0
 412 443 368 479 297 479 c 0
 232 479 182 448 176 402 c 1
 94 402 l 1
 98 488 184 550 298 550 c 0
 416 550 496 484 496 384 c 2
 496 193 l 2
 496 109 502 47 516 0 c 1
 515 0 l 1
 455 -23 425 -52 425 -87 c 0
 425 -120 451 -142 486 -142 c 0
 493 -142 503 -141 512 -139 c 1
 512 -200 l 1
412 285 m 1
 400 276 384 271 364 268 c 0
 353 267 324 264 316 263 c 0
 211 250 165 218 165 156 c 0
 165 97 206 59 268 59 c 0
 348 59 412 124 412 210 c 2
 412 285 l 1
EndSplineSet
Validated: 1
Substitution2: "'cv08' +W1d7JlPYT1MA-08 +Z+VifgAA 7+Zv9O44ho" aogonek.cv08
Substitution2: "'cv01' +W1d7JlPYT1MA-01 +Z+VifgAA 0+Zv9O44ho" aogonek.cv01
EndChar

StartChar: aogonek.cv01
Encoding: 65741 -1 388
Width: 600
GlyphClass: 1
Flags: W
LayerCount: 2
Fore
SplineSet
427 97 m 1
 394 29 339 -10 266 -10 c 0
 141 -10 48 108 48 270 c 0
 48 431 141 550 267 550 c 0
 340 550 396 510 429 439 c 1
 434 439 l 1
 434 540 l 1
 513 540 l 1
 513 180 l 2
 513 129 516 63 520 0 c 1
 460 -23 430 -52 430 -87 c 0
 430 -120 456 -142 491 -142 c 0
 498 -142 508 -141 517 -139 c 1
 517 -200 l 1
 506 -203 492 -205 476 -205 c 0
 405 -205 357 -162 357 -101 c 0
 357 -55 384 -16 438 14 c 1
 435 43 433 69 432 97 c 1
 427 97 l 1
431 270 m 0
 431 390 371 474 285 474 c 0
 197 474 133 387 133 270 c 0
 133 153 196 66 284 66 c 0
 370 66 431 150 431 270 c 0
EndSplineSet
Validated: 1
EndChar

StartChar: aogonek.cv08
Encoding: 65742 -1 389
Width: 600
GlyphClass: 1
Flags: W
LayerCount: 2
Fore
SplineSet
513 -200 m 1
 502 -203 488 -205 472 -205 c 0
 401 -205 353 -162 353 -101 c 0
 353 -56 379 -17 432 13 c 1
 426 33 421 57 418 86 c 1
 414 86 l 1
 383 25 326 -10 253 -10 c 0
 152 -10 81 57 81 154 c 0
 81 253 155 307 307 321 c 2
 357 326 l 2
 395 330 412 348 412 385 c 0
 412 443 370 479 301 479 c 0
 237 479 189 448 183 402 c 1
 101 402 l 1
 105 488 189 550 301 550 c 0
 418 550 496 484 496 384 c 2
 496 193 l 2
 496 109 502 47 516 0 c 1
 456 -23 426 -52 426 -87 c 0
 426 -120 452 -142 487 -142 c 0
 494 -142 504 -141 513 -139 c 1
 513 -200 l 1
412 285 m 1
 400 276 384 271 364 268 c 2
 316 263 l 2
 211 250 165 218 165 156 c 0
 165 97 206 59 268 59 c 0
 348 59 412 124 412 210 c 2
 412 285 l 1
EndSplineSet
Validated: 1
EndChar

StartChar: uniF8FF
Encoding: 63743 63743 390
Width: 600
GlyphClass: 1
Flags: W
LayerCount: 2
Fore
SplineSet
0 0 m 1
 0 700 l 1
 600 700 l 1
 600 0 l 1
 0 0 l 1
360 175 m 1
 360 471 l 1
 362 471 l 1
 425 250 l 1
 467 250 l 1
 531 471 l 1
 533 471 l 1
 533 175 l 1
 576 175 l 1
 576 525 l 1
 510 525 l 1
 447 306 l 1
 445 306 l 1
 383 525 l 1
 316 525 l 1
 316 175 l 1
 360 175 l 1
278 265 m 1
 233 265 l 1
 226 234 200 213 166 213 c 0
 113 213 78 267 78 350 c 0
 78 433 112 488 165 488 c 0
 197 488 223 469 229 440 c 1
 274 440 l 1
 266 493 221 530 165 530 c 0
 86 530 31 457 31 350 c 0
 31 244 86 170 165 170 c 0
 223 170 270 210 278 265 c 1
EndSplineSet
Validated: 1
EndChar

StartChar: approxequal
Encoding: 8776 8776 391
Width: 600
GlyphClass: 1
Flags: W
LayerCount: 2
Fore
SplineSet
56 339 m 1
 56 373 l 2
 56 467 112 529 196 529 c 0
 322 529 330 392 408 392 c 0
 444 392 465 421 467 479 c 2
 468 509 l 1
 544 509 l 1
 544 475 l 2
 544 381 488 319 404 319 c 0
 278 319 268 456 191 456 c 0
 155 456 135 426 133 369 c 2
 132 339 l 1
 56 339 l 1
56 111 m 1
 56 145 l 2
 56 239 112 301 196 301 c 0
 322 301 330 164 408 164 c 0
 444 164 465 193 467 251 c 2
 468 281 l 1
 544 281 l 1
 544 247 l 2
 544 153 488 91 404 91 c 0
 278 91 268 228 191 228 c 0
 155 228 135 198 133 141 c 2
 132 111 l 1
 56 111 l 1
EndSplineSet
Validated: 1
Substitution2: "+U1VOAGb/Y2IA +Z+VifgAA 54+Zv9O44ho" approxequal.case
EndChar

StartChar: approxequal.case
Encoding: 65743 -1 392
Width: 600
GlyphClass: 1
Flags: W
LayerCount: 2
Fore
SplineSet
56 379 m 1
 56 413 l 2
 56 507 112 569 196 569 c 0
 322 569 330 432 408 432 c 0
 444 432 465 461 467 519 c 2
 468 549 l 1
 544 549 l 1
 544 515 l 2
 544 421 488 359 404 359 c 0
 278 359 268 496 191 496 c 0
 155 496 135 466 133 409 c 2
 132 379 l 1
 56 379 l 1
56 151 m 1
 56 185 l 2
 56 279 112 341 196 341 c 0
 322 341 330 204 408 204 c 0
 444 204 465 233 467 291 c 2
 468 321 l 1
 544 321 l 1
 544 287 l 2
 544 193 488 131 404 131 c 0
 278 131 268 268 191 268 c 0
 155 268 135 238 133 181 c 2
 132 151 l 1
 56 151 l 1
EndSplineSet
Validated: 1
Substitution2: "+U1VOAGb/Y2IA +Z+VifgAA 54+Zv9O44ho" approxequal
EndChar

StartChar: aring
Encoding: 229 229 393
Width: 600
GlyphClass: 1
Flags: W
LayerCount: 2
Fore
SplineSet
516 0 m 1
 436 0 l 1
 428 22 422 51 418 86 c 1
 414 86 l 1
 383 25 326 -10 253 -10 c 0
 152 -10 81 57 81 154 c 0
 81 302 244 316 357 326 c 0
 395 330 412 348 412 384 c 0
 412 443 368 479 297 479 c 0
 232 479 182 448 176 402 c 1
 94 402 l 1
 98 488 184 550 298 550 c 0
 416 550 496 484 496 384 c 2
 496 193 l 2
 496 109 502 47 516 0 c 1
412 285 m 1
 400 276 384 271 364 268 c 0
 353 267 324 264 316 263 c 0
 211 250 165 218 165 156 c 0
 165 97 206 59 268 59 c 0
 348 59 412 124 412 210 c 2
 412 285 l 1
182 729 m 0
 182 793 232 843 298 843 c 0
 364 843 414 793 414 729 c 0
 414 664 363 613 298 613 c 0
 233 613 182 664 182 729 c 0
298 670 m 0
 330 670 354 694 354 728 c 0
 354 762 330 786 298 786 c 0
 266 786 242 762 242 728 c 0
 242 694 266 670 298 670 c 0
EndSplineSet
Validated: 1
Substitution2: "'cv08' +W1d7JlPYT1MA-08 +Z+VifgAA 7+Zv9O44ho" aring.cv08
Substitution2: "'cv01' +W1d7JlPYT1MA-01 +Z+VifgAA 0+Zv9O44ho" aring.cv01
EndChar

StartChar: aring.cv01
Encoding: 65744 -1 394
Width: 600
GlyphClass: 1
Flags: W
LayerCount: 2
Fore
SplineSet
427 97 m 1
 394 29 339 -10 266 -10 c 0
 141 -10 48 108 48 270 c 0
 48 431 141 550 267 550 c 0
 340 550 396 510 429 439 c 1
 434 439 l 1
 434 540 l 1
 513 540 l 1
 513 180 l 2
 513 129 516 63 520 0 c 1
 440 0 l 1
 436 34 433 65 432 97 c 1
 427 97 l 1
431 270 m 0
 431 390 371 474 285 474 c 0
 197 474 133 387 133 270 c 0
 133 153 196 66 284 66 c 0
 370 66 431 150 431 270 c 0
166 729 m 0
 166 793 216 843 282 843 c 0
 348 843 398 793 398 729 c 0
 398 664 347 613 282 613 c 0
 217 613 166 664 166 729 c 0
282 670 m 0
 314 670 338 694 338 728 c 0
 338 762 314 786 282 786 c 0
 250 786 226 762 226 728 c 0
 226 694 250 670 282 670 c 0
EndSplineSet
Validated: 1
EndChar

